# https://github.com/mikedh/trimesh
v 0.04220000 0.00980000 -0.00610000
v 0.01440000 0.00980000 -0.00610000
v 0.01140000 0.00680000 -0.00610000
v 0.04317500 0.00970400 -0.00610000
v 0.04720000 0.00480000 -0.00610000
v 0.04720000 -0.00480000 -0.00610000
v 0.01140000 -0.00680000 -0.00610000
v 0.01381500 0.00974200 -0.00610000
v 0.01325200 0.00957200 -0.00610000
v 0.01145800 0.00738500 -0.00610000
v 0.01162800 0.00794800 -0.00610000
v 0.01273300 0.00929400 -0.00610000
v 0.01227900 0.00892100 -0.00610000
v 0.01190600 0.00846700 -0.00610000
v 0.01440000 -0.00980000 -0.00610000
v 0.04220000 -0.00980000 -0.00610000
v 0.04710400 -0.00577500 -0.00610000
v 0.04317500 -0.00970400 -0.00610000
v 0.04411300 -0.00941900 -0.00610000
v 0.04411300 0.00941900 -0.00610000
v 0.04710400 0.00577500 -0.00610000
v 0.04681900 0.00671300 -0.00610000
v 0.04635700 0.00757800 -0.00610000
v 0.04573600 0.00833600 -0.00610000
v 0.04497800 0.00895700 -0.00610000
v 0.01145800 -0.00738500 -0.00610000
v 0.01162800 -0.00794800 -0.00610000
v 0.01381500 -0.00974200 -0.00610000
v 0.01190600 -0.00846700 -0.00610000
v 0.01227900 -0.00892100 -0.00610000
v 0.01273300 -0.00929400 -0.00610000
v 0.01325200 -0.00957200 -0.00610000
v 0.04497800 -0.00895700 -0.00610000
v 0.04573600 -0.00833600 -0.00610000
v 0.04681900 -0.00671300 -0.00610000
v 0.04635700 -0.00757800 -0.00610000
v 0.01140000 0.00680000 0.00630000
v 0.01145800 0.00738500 0.00630000
v 0.01162800 0.00794800 0.00630000
v 0.01190600 0.00846700 0.00630000
v 0.01227900 0.00892100 0.00630000
v 0.01273300 0.00929400 0.00630000
v 0.01325200 0.00957200 0.00630000
v 0.01381500 0.00974200 0.00630000
v 0.01440000 0.00980000 0.00630000
v 0.04710400 0.00577500 0.00630000
v 0.04720000 0.00480000 0.00630000
v 0.04411300 0.00941900 0.00630000
v 0.01140000 -0.00680000 0.00630000
v 0.04720000 -0.00480000 0.00630000
v 0.04317500 0.00970400 0.00630000
v 0.04411300 -0.00941900 0.00630000
v 0.04317500 -0.00970400 0.00630000
v 0.04710400 -0.00577500 0.00630000
v 0.04220000 -0.00980000 0.00630000
v 0.01440000 -0.00980000 0.00630000
v 0.01145800 -0.00738500 0.00630000
v 0.04220000 0.00980000 0.00630000
v 0.04681900 -0.00671300 0.00630000
v 0.04635700 -0.00757800 0.00630000
v 0.04573600 -0.00833600 0.00630000
v 0.04497800 0.00895700 0.00630000
v 0.04573600 0.00833600 0.00630000
v 0.04635700 0.00757800 0.00630000
v 0.04681900 0.00671300 0.00630000
v 0.04497800 -0.00895700 0.00630000
v 0.01162800 -0.00794800 0.00630000
v 0.01381500 -0.00974200 0.00630000
v 0.01325200 -0.00957200 0.00630000
v 0.01273300 -0.00929400 0.00630000
v 0.01227900 -0.00892100 0.00630000
v 0.01190600 -0.00846700 0.00630000
v 0.00099200 -0.00680000 -0.01150000
v 0.00099200 -0.00680000 -0.01350000
v -0.00005200 -0.00669000 -0.01350000
v -0.00005200 -0.00669000 -0.01150000
v -0.00104900 -0.00636400 -0.01350000
v -0.00104900 -0.00636400 -0.01150000
v -0.00195700 -0.00583800 -0.01350000
v -0.00195700 -0.00583800 -0.01150000
v -0.00273500 -0.00513300 -0.01350000
v -0.00273500 -0.00513300 -0.01150000
v -0.00425500 -0.00308500 -0.01350000
v -0.00425500 -0.00308500 -0.01150000
v -0.00537800 -0.00079600 -0.01350000
v -0.00537800 -0.00079600 -0.01150000
v -0.00606800 0.00166000 -0.01350000
v -0.00606800 0.00166000 -0.01150000
v -0.00630000 0.00420000 -0.01350000
v -0.00630000 0.00420000 -0.01150000
v 0.01040000 -0.00680000 -0.01350000
v 0.01040000 -0.00680000 -0.01150000
v 0.01140000 0.00980000 -0.01150000
v 0.01140000 0.00980000 -0.01110000
v 0.01140000 -0.00780000 -0.01150000
v 0.01140000 -0.00980000 -0.01110000
v 0.01140000 -0.00780000 -0.01350000
v 0.01140000 -0.00980000 -0.01350000
v 0.01078300 -0.00687600 -0.01350000
v 0.01570000 0.00980000 -0.01350000
v 0.01123100 -0.00724400 -0.01350000
v 0.01570000 -0.00980000 -0.01350000
v -0.00630000 0.00680000 -0.01350000
v -0.00330000 0.00980000 -0.01350000
v -0.00388500 0.00974200 -0.01350000
v -0.00444800 0.00957200 -0.01350000
v -0.00624200 0.00738500 -0.01350000
v -0.00607200 0.00794800 -0.01350000
v -0.00496700 0.00929400 -0.01350000
v -0.00542100 0.00892100 -0.01350000
v -0.00579400 0.00846700 -0.01350000
v 0.01570000 -0.00980000 -0.01110000
v 0.01570000 0.00980000 -0.01110000
v -0.00330000 0.00980000 -0.01150000
v -0.00630000 0.00680000 -0.01150000
v 0.01123100 -0.00724400 -0.01150000
v 0.01078300 -0.00687600 -0.01150000
v -0.00388500 0.00974200 -0.01150000
v -0.00444800 0.00957200 -0.01150000
v -0.00624200 0.00738500 -0.01150000
v -0.00607200 0.00794800 -0.01150000
v -0.00579400 0.00846700 -0.01150000
v -0.00542100 0.00892100 -0.01150000
v -0.00496700 0.00929400 -0.01150000
v 0.01140000 0.00980000 0.00950000
v 0.01570000 0.00980000 0.00950000
v 0.01140000 0.00980000 0.01130000
v 0.01570000 0.00980000 0.01350000
v -0.00330000 0.00980000 0.01130000
v -0.00330000 0.00980000 0.01350000
v 0.01570000 -0.00980000 0.01350000
v 0.01570000 -0.00980000 0.00950000
v 0.01140000 -0.00980000 0.01350000
v 0.01140000 -0.00980000 0.00950000
v 0.01132400 -0.00741700 0.01350000
v 0.01095600 -0.00696900 0.01350000
v 0.01140000 -0.00780000 0.01350000
v 0.01040000 -0.00680000 0.01350000
v 0.00099200 -0.00680000 0.01350000
v -0.00630000 0.00420000 0.01350000
v -0.00273500 -0.00513300 0.01350000
v -0.00425500 -0.00308500 0.01350000
v -0.00624200 0.00738500 0.01350000
v -0.00607200 0.00794800 0.01350000
v -0.00537800 -0.00079600 0.01350000
v -0.00606800 0.00166000 0.01350000
v -0.00630000 0.00680000 0.01350000
v -0.00195700 -0.00583800 0.01350000
v -0.00005200 -0.00669000 0.01350000
v -0.00104900 -0.00636400 0.01350000
v -0.00388500 0.00974200 0.01350000
v -0.00444800 0.00957200 0.01350000
v -0.00496700 0.00929400 0.01350000
v -0.00579400 0.00846700 0.01350000
v -0.00542100 0.00892100 0.01350000
v 0.01140000 -0.00780000 0.01130000
v 0.00099200 -0.00680000 0.01130000
v 0.01040000 -0.00680000 0.01130000
v -0.00005200 -0.00669000 0.01130000
v -0.00104900 -0.00636400 0.01130000
v -0.00195700 -0.00583800 0.01130000
v -0.00273500 -0.00513300 0.01130000
v 0.01132400 -0.00741700 0.01130000
v 0.01095600 -0.00696900 0.01130000
v -0.00537800 -0.00079600 0.01130000
v -0.00425500 -0.00308500 0.01130000
v -0.00624200 0.00738500 0.01130000
v -0.00630000 0.00680000 0.01130000
v -0.00630000 0.00420000 0.01130000
v -0.00606800 0.00166000 0.01130000
v -0.00388500 0.00974200 0.01130000
v -0.00444800 0.00957200 0.01130000
v -0.00496700 0.00929400 0.01130000
v -0.00542100 0.00892100 0.01130000
v -0.00579400 0.00846700 0.01130000
v -0.00607200 0.00794800 0.01130000
v 0.04220000 -0.00980000 0.01100000
v 0.02540000 -0.00980000 0.01100000
v 0.02637500 -0.00970400 0.01100000
v 0.02731300 -0.00941900 0.01100000
v 0.02817800 -0.00895700 0.01100000
v 0.02893600 -0.00833600 0.01100000
v 0.02955700 0.00757800 0.01100000
v 0.02893600 0.00833600 0.01100000
v 0.04220000 0.00980000 0.01100000
v 0.02817800 0.00895700 0.01100000
v 0.02955700 -0.00757800 0.01100000
v 0.03001900 -0.00671300 0.01100000
v 0.04317500 -0.00970400 0.01100000
v 0.03030400 -0.00577500 0.01100000
v 0.04411300 -0.00941900 0.01100000
v 0.02731300 0.00941900 0.01100000
v 0.02637500 0.00970400 0.01100000
v 0.02540000 0.00980000 0.01100000
v 0.03040000 -0.00480000 0.01100000
v 0.04710400 -0.00577500 0.01100000
v 0.04681900 -0.00671300 0.01100000
v 0.04317500 0.00970400 0.01100000
v 0.03030400 0.00577500 0.01100000
v 0.03001900 0.00671300 0.01100000
v 0.04635700 -0.00757800 0.01100000
v 0.04573600 -0.00833600 0.01100000
v 0.04497800 -0.00895700 0.01100000
v 0.04720000 -0.00480000 0.01100000
v 0.03040000 0.00480000 0.01100000
v 0.04720000 0.00480000 0.01100000
v 0.04635700 0.00757800 0.01100000
v 0.04681900 0.00671300 0.01100000
v 0.04710400 0.00577500 0.01100000
v 0.04411300 0.00941900 0.01100000
v 0.04497800 0.00895700 0.01100000
v 0.04573600 0.00833600 0.01100000
v 0.01440000 -0.00980000 0.00950000
v 0.01381500 -0.00974200 0.00950000
v 0.01325200 -0.00957200 0.00950000
v 0.01273300 -0.00929400 0.00950000
v 0.01227900 -0.00892100 0.00950000
v 0.01190600 -0.00846700 0.00950000
v 0.01162800 -0.00794800 0.00950000
v 0.01145800 -0.00738500 0.00950000
v 0.01140000 -0.00680000 0.00950000
v 0.01381500 0.00974200 0.00950000
v 0.01440000 0.00980000 0.00950000
v 0.01140000 0.00680000 0.00950000
v 0.01325200 0.00957200 0.00950000
v 0.01145800 0.00738500 0.00950000
v 0.01162800 0.00794800 0.00950000
v 0.01190600 0.00846700 0.00950000
v 0.01227900 0.00892100 0.00950000
v 0.01273300 0.00929400 0.00950000
v 0.02540000 -0.00980000 0.01350000
v 0.02540000 0.00980000 0.01350000
v 0.03040000 0.00480000 0.01350000
v 0.03030400 0.00577500 0.01350000
v 0.03001900 0.00671300 0.01350000
v 0.02955700 0.00757800 0.01350000
v 0.02893600 0.00833600 0.01350000
v 0.02817800 0.00895700 0.01350000
v 0.02731300 0.00941900 0.01350000
v 0.02637500 0.00970400 0.01350000
v 0.03030400 -0.00577500 0.01350000
v 0.03040000 -0.00480000 0.01350000
v 0.02817800 -0.00895700 0.01350000
v 0.02731300 -0.00941900 0.01350000
v 0.02893600 -0.00833600 0.01350000
v 0.02955700 -0.00757800 0.01350000
v 0.03001900 -0.00671300 0.01350000
v 0.02637500 -0.00970400 0.01350000
v 0.02540000 0.00915000 -0.01150000
v 0.01735000 0.00915000 -0.01150000
v 0.02540000 0.00915000 -0.01080000
v 0.01735000 0.00915000 -0.01080000
v 0.01735000 -0.00915000 -0.01150000
v 0.02540000 -0.00915000 -0.01150000
v 0.01735000 -0.00915000 -0.01080000
v 0.02540000 -0.00915000 -0.01080000
v 0.01635000 -0.00815000 -0.01080000
v 0.01635000 -0.00815000 -0.01150000
v 0.01651900 -0.00870600 -0.01080000
v 0.01651900 -0.00870600 -0.01150000
v 0.01696700 -0.00907400 -0.01080000
v 0.01696700 -0.00907400 -0.01150000
v 0.01440000 0.00980000 -0.01110000
v 0.01381500 0.00974200 -0.01110000
v 0.01325200 0.00957200 -0.01110000
v 0.01273300 0.00929400 -0.01110000
v 0.01227900 0.00892100 -0.01110000
v 0.01190600 0.00846700 -0.01110000
v 0.01162800 0.00794800 -0.01110000
v 0.01145800 0.00738500 -0.01110000
v 0.01140000 0.00680000 -0.01110000
v 0.01635000 0.00815000 -0.01150000
v 0.01635000 0.00815000 -0.01080000
v 0.04220000 -0.00980000 -0.01080000
v 0.02540000 -0.00980000 -0.01080000
v 0.01440000 -0.00980000 -0.01110000
v 0.02540000 -0.00980000 -0.01350000
v 0.02624900 -0.00906600 -0.01150000
v 0.02975000 -0.00480000 -0.01150000
v 0.02706500 0.00881900 -0.01150000
v 0.02781700 0.00841700 -0.01150000
v 0.02847600 0.00787600 -0.01150000
v 0.02624900 0.00906600 -0.01150000
v 0.02975000 0.00480000 -0.01150000
v 0.01642600 0.00853300 -0.01150000
v 0.01679400 0.00898100 -0.01150000
v 0.02941900 0.00646500 -0.01150000
v 0.02966600 0.00564900 -0.01150000
v 0.02901700 0.00721700 -0.01150000
v 0.02966600 -0.00564900 -0.01150000
v 0.02941900 -0.00646500 -0.01150000
v 0.02781700 -0.00841700 -0.01150000
v 0.02901700 -0.00721700 -0.01150000
v 0.02847600 -0.00787600 -0.01150000
v 0.02706500 -0.00881900 -0.01150000
v 0.01140000 -0.00680000 -0.01110000
v 0.04220000 0.00980000 -0.01080000
v 0.02540000 0.00980000 -0.01080000
v 0.02637500 0.00970400 -0.01080000
v 0.02731300 0.00941900 -0.01080000
v 0.02817800 0.00895700 -0.01080000
v 0.02893600 0.00833600 -0.01080000
v 0.02955700 -0.00757800 -0.01080000
v 0.02893600 -0.00833600 -0.01080000
v 0.02817800 -0.00895700 -0.01080000
v 0.02955700 0.00757800 -0.01080000
v 0.03001900 0.00671300 -0.01080000
v 0.04317500 0.00970400 -0.01080000
v 0.03030400 0.00577500 -0.01080000
v 0.04411300 0.00941900 -0.01080000
v 0.02731300 -0.00941900 -0.01080000
v 0.02637500 -0.00970400 -0.01080000
v 0.03040000 0.00480000 -0.01080000
v 0.04710400 0.00577500 -0.01080000
v 0.04681900 0.00671300 -0.01080000
v 0.04317500 -0.00970400 -0.01080000
v 0.03030400 -0.00577500 -0.01080000
v 0.03001900 -0.00671300 -0.01080000
v 0.04635700 0.00757800 -0.01080000
v 0.04573600 0.00833600 -0.01080000
v 0.04497800 0.00895700 -0.01080000
v 0.04720000 0.00480000 -0.01080000
v 0.03040000 -0.00480000 -0.01080000
v 0.04720000 -0.00480000 -0.01080000
v 0.04635700 -0.00757800 -0.01080000
v 0.04681900 -0.00671300 -0.01080000
v 0.04710400 -0.00577500 -0.01080000
v 0.04411300 -0.00941900 -0.01080000
v 0.04497800 -0.00895700 -0.01080000
v 0.04573600 -0.00833600 -0.01080000
v 0.02624900 0.00906600 -0.01080000
v 0.02706500 0.00881900 -0.01080000
v 0.02781700 0.00841700 -0.01080000
v 0.02847600 0.00787600 -0.01080000
v 0.02901700 0.00721700 -0.01080000
v 0.02941900 0.00646500 -0.01080000
v 0.02966600 0.00564900 -0.01080000
v 0.02975000 0.00480000 -0.01080000
v 0.03030400 -0.00577500 -0.01350000
v 0.03040000 -0.00480000 -0.01350000
v 0.03030400 0.00577500 -0.01350000
v 0.02540000 0.00980000 -0.01350000
v 0.03040000 0.00480000 -0.01350000
v 0.02817800 0.00895700 -0.01350000
v 0.02731300 0.00941900 -0.01350000
v 0.02893600 0.00833600 -0.01350000
v 0.02955700 0.00757800 -0.01350000
v 0.03001900 0.00671300 -0.01350000
v 0.02637500 0.00970400 -0.01350000
v 0.02637500 -0.00970400 -0.01350000
v 0.02731300 -0.00941900 -0.01350000
v 0.02955700 -0.00757800 -0.01350000
v 0.02817800 -0.00895700 -0.01350000
v 0.02893600 -0.00833600 -0.01350000
v 0.03001900 -0.00671300 -0.01350000
v 0.01145800 -0.00738500 -0.01110000
v 0.01162800 -0.00794800 -0.01110000
v 0.01190600 -0.00846700 -0.01110000
v 0.01227900 -0.00892100 -0.01110000
v 0.01273300 -0.00929400 -0.01110000
v 0.01325200 -0.00957200 -0.01110000
v 0.01381500 -0.00974200 -0.01110000
v 0.01679400 0.00898100 -0.01080000
v 0.01642600 0.00853300 -0.01080000
v 0.02975000 -0.00480000 -0.01080000
v 0.02966600 -0.00564900 -0.01080000
v 0.02941900 -0.00646500 -0.01080000
v 0.02901700 -0.00721700 -0.01080000
v 0.02847600 -0.00787600 -0.01080000
v 0.02781700 -0.00841700 -0.01080000
v 0.02706500 -0.00881900 -0.01080000
v 0.02624900 -0.00906600 -0.01080000
v 0.04140000 0.01190000 -0.01425000
v 0.04140000 0.01190000 -0.01375000
v 0.04140000 0.01420000 -0.01425000
v 0.04140000 0.01420000 -0.01375000
v 0.04140000 0.01439100 -0.01421200
v 0.04140000 0.01190000 0.01375000
v 0.04140000 0.01190000 0.01425000
v 0.04140000 0.01420000 0.01375000
v 0.04140000 0.01420000 0.01425000
v 0.04140000 0.01466200 0.01394100
v 0.04140000 0.01470000 0.01375000
v 0.04140000 0.01470000 -0.01375000
v 0.01760000 0.01420000 -0.01425000
v 0.01760000 0.01439100 -0.01421200
v 0.01760000 0.01470000 -0.01375000
v 0.03840000 0.01090000 0.01425000
v 0.01646100 0.00322700 0.01425000
v 0.01589200 0.00135100 0.01425000
v 0.01130000 0.00780000 0.01425000
v 0.03417500 0.01022100 0.01425000
v 0.03273600 0.00940000 0.01425000
v 0.02570000 0.00940000 0.01425000
v 0.01330000 0.00980000 0.01425000
v 0.01560000 0.00980000 0.01425000
v 0.01738500 0.00495600 0.01425000
v 0.01599000 0.00983800 0.01425000
v 0.01862900 0.00647100 0.01425000
v 0.01130000 -0.00550000 0.01425000
v 0.01570000 -0.00060000 0.01425000
v 0.01570000 -0.00550000 0.01425000
v 0.01636500 0.00995200 0.01425000
v 0.01671100 0.01013700 0.01425000
v 0.02014400 0.00771500 0.01425000
v 0.01526100 -0.00656100 0.01425000
v 0.01477400 -0.00688600 0.01425000
v 0.01420000 -0.00700000 0.01425000
v 0.03740000 0.01090000 0.01425000
v 0.03575200 0.01072800 0.01425000
v 0.01760000 0.01420000 0.01425000
v 0.01760000 0.01180000 0.01425000
v 0.01756200 0.01141000 0.01425000
v 0.02374900 0.00920800 0.01425000
v 0.01744800 0.01103500 0.01425000
v 0.02187300 0.00863900 0.01425000
v 0.01726300 0.01068900 0.01425000
v 0.01701400 0.01038600 0.01425000
v 0.01133800 0.00819000 0.01425000
v 0.01145200 0.00856500 0.01425000
v 0.01163700 0.00891100 0.01425000
v 0.01188600 0.00921400 0.01425000
v 0.01218900 0.00946300 0.01425000
v 0.01558600 -0.00607400 0.01425000
v 0.01280000 -0.00700000 0.01425000
v 0.01253500 0.00964800 0.01425000
v 0.01291000 0.00976200 0.01425000
v 0.01222600 -0.00688600 0.01425000
v 0.01173900 -0.00656100 0.01425000
v 0.01141400 -0.00607400 0.01425000
v 0.01570000 -0.00550000 0.01375000
v 0.01570000 -0.00060000 0.01375000
v 0.01130000 -0.00550000 0.01375000
v 0.01760000 0.01420000 0.01375000
v 0.02374900 0.00920800 0.01375000
v 0.02570000 0.00940000 0.01375000
v 0.01130000 0.00780000 0.01375000
v 0.01760000 0.01180000 0.01375000
v 0.01756200 0.01141000 0.01375000
v 0.02187300 0.00863900 0.01375000
v 0.03840000 0.01090000 0.01375000
v 0.03740000 0.01090000 0.01375000
v 0.03575200 0.01072800 0.01375000
v 0.03417500 0.01022100 0.01375000
v 0.03273600 0.00940000 0.01375000
v 0.01173900 -0.00656100 0.01375000
v 0.01222600 -0.00688600 0.01375000
v 0.01280000 -0.00700000 0.01375000
v 0.01862900 0.00647100 0.01375000
v 0.01636500 0.00995200 0.01375000
v 0.01738500 0.00495600 0.01375000
v 0.01599000 0.00983800 0.01375000
v 0.01646100 0.00322700 0.01375000
v 0.01560000 0.00980000 0.01375000
v 0.01330000 0.00980000 0.01375000
v 0.01744800 0.01103500 0.01375000
v 0.01726300 0.01068900 0.01375000
v 0.02014400 0.00771500 0.01375000
v 0.01701400 0.01038600 0.01375000
v 0.01671100 0.01013700 0.01375000
v 0.01141400 -0.00607400 0.01375000
v 0.01420000 -0.00700000 0.01375000
v 0.01477400 -0.00688600 0.01375000
v 0.01526100 -0.00656100 0.01375000
v 0.01558600 -0.00607400 0.01375000
v 0.01291000 0.00976200 0.01375000
v 0.01253500 0.00964800 0.01375000
v 0.01218900 0.00946300 0.01375000
v 0.01589200 0.00135100 0.01375000
v 0.01133800 0.00819000 0.01375000
v 0.01145200 0.00856500 0.01375000
v 0.01188600 0.00921400 0.01375000
v 0.01163700 0.00891100 0.01375000
v 0.01760000 0.01420000 -0.01375000
v 0.03740000 0.01090000 -0.01375000
v 0.03740000 0.01090000 -0.01425000
v 0.03575200 0.01072800 -0.01375000
v 0.03575200 0.01072800 -0.01425000
v 0.03417500 0.01022100 -0.01375000
v 0.03417500 0.01022100 -0.01425000
v 0.03273600 0.00940000 -0.01375000
v 0.03273600 0.00940000 -0.01425000
v 0.02570000 0.00940000 -0.01375000
v 0.02570000 0.00940000 -0.01425000
v 0.02374900 0.00920800 -0.01375000
v 0.02374900 0.00920800 -0.01425000
v 0.02187300 0.00863900 -0.01375000
v 0.02187300 0.00863900 -0.01425000
v 0.02014400 0.00771500 -0.01375000
v 0.02014400 0.00771500 -0.01425000
v 0.01862900 0.00647100 -0.01375000
v 0.01862900 0.00647100 -0.01425000
v 0.01738500 0.00495600 -0.01375000
v 0.01738500 0.00495600 -0.01425000
v 0.01646100 0.00322700 -0.01375000
v 0.01646100 0.00322700 -0.01425000
v 0.01589200 0.00135100 -0.01375000
v 0.01589200 0.00135100 -0.01425000
v 0.01570000 -0.00060000 -0.01375000
v 0.01570000 -0.00060000 -0.01425000
v 0.01570000 -0.00550000 -0.01425000
v 0.01570000 -0.00550000 -0.01375000
v 0.01558600 -0.00607400 -0.01425000
v 0.01558600 -0.00607400 -0.01375000
v 0.01526100 -0.00656100 -0.01425000
v 0.01526100 -0.00656100 -0.01375000
v 0.01477400 -0.00688600 -0.01425000
v 0.01477400 -0.00688600 -0.01375000
v 0.01420000 -0.00700000 -0.01425000
v 0.01420000 -0.00700000 -0.01375000
v 0.01280000 -0.00700000 -0.01375000
v 0.01280000 -0.00700000 -0.01425000
v 0.01130000 -0.00550000 -0.01425000
v 0.01130000 -0.00550000 -0.01375000
v 0.01141400 -0.00607400 -0.01375000
v 0.01141400 -0.00607400 -0.01425000
v 0.01173900 -0.00656100 -0.01375000
v 0.01173900 -0.00656100 -0.01425000
v 0.01222600 -0.00688600 -0.01375000
v 0.01222600 -0.00688600 -0.01425000
v 0.01130000 0.00780000 -0.01375000
v 0.01130000 0.00780000 -0.01425000
v 0.01133800 0.00819000 -0.01425000
v 0.01133800 0.00819000 -0.01375000
v 0.01145200 0.00856500 -0.01425000
v 0.01145200 0.00856500 -0.01375000
v 0.01163700 0.00891100 -0.01425000
v 0.01163700 0.00891100 -0.01375000
v 0.01188600 0.00921400 -0.01425000
v 0.01188600 0.00921400 -0.01375000
v 0.01218900 0.00946300 -0.01425000
v 0.01218900 0.00946300 -0.01375000
v 0.01253500 0.00964800 -0.01425000
v 0.01253500 0.00964800 -0.01375000
v 0.01291000 0.00976200 -0.01425000
v 0.01291000 0.00976200 -0.01375000
v 0.01330000 0.00980000 -0.01425000
v 0.01330000 0.00980000 -0.01375000
v 0.01560000 0.00980000 -0.01375000
v 0.01560000 0.00980000 -0.01425000
v 0.01760000 0.01470000 0.01375000
v 0.01760000 0.01466200 0.01394100
v 0.01760000 0.01180000 -0.01425000
v 0.01756200 0.01141000 -0.01425000
v 0.03840000 0.01090000 -0.01425000
v 0.01636500 0.00995200 -0.01425000
v 0.01599000 0.00983800 -0.01425000
v 0.01744800 0.01103500 -0.01425000
v 0.01726300 0.01068900 -0.01425000
v 0.01701400 0.01038600 -0.01425000
v 0.01671100 0.01013700 -0.01425000
v 0.01760000 0.01180000 -0.01375000
v 0.01756200 0.01141000 -0.01375000
v 0.01744800 0.01103500 -0.01375000
v 0.01726300 0.01068900 -0.01375000
v 0.01701400 0.01038600 -0.01375000
v 0.01671100 0.01013700 -0.01375000
v 0.01636500 0.00995200 -0.01375000
v 0.01599000 0.00983800 -0.01375000
v 0.03840000 0.01090000 -0.01375000
f 3 2 1
f 5 1 4
f 5 3 1
f 6 3 5
f 6 7 3
f 3 8 2
f 3 9 8
f 10 9 3
f 10 11 9
f 9 13 12
f 9 14 13
f 11 14 9
f 6 15 7
f 6 16 15
f 17 16 6
f 17 18 16
f 19 18 17
f 20 5 4
f 20 21 5
f 22 21 20
f 20 23 22
f 20 24 23
f 25 24 20
f 15 26 7
f 15 27 26
f 28 27 15
f 28 29 27
f 28 30 29
f 28 31 30
f 32 31 28
f 17 33 19
f 17 34 33
f 35 34 17
f 35 36 34
f 10 3 37
f 38 10 37
f 38 11 10
f 39 11 38
f 39 14 11
f 40 14 39
f 40 13 14
f 41 13 40
f 41 12 13
f 42 12 41
f 42 9 12
f 43 9 42
f 43 8 9
f 44 8 43
f 44 2 8
f 45 2 44
f 48 47 46
f 49 47 37
f 49 50 47
f 51 47 48
f 54 53 52
f 54 55 53
f 50 55 54
f 49 55 50
f 49 56 55
f 57 56 49
f 38 43 39
f 38 37 43
f 37 44 43
f 37 45 44
f 47 45 37
f 47 58 45
f 51 58 47
f 61 60 59
f 43 40 39
f 43 41 40
f 42 41 43
f 64 63 62
f 48 64 62
f 48 65 64
f 46 65 48
f 54 61 59
f 54 66 61
f 52 66 54
f 67 56 57
f 67 68 56
f 69 68 67
f 67 70 69
f 67 71 70
f 72 71 67
f 3 49 37
f 3 7 49
f 4 1 58
f 51 4 58
f 51 20 4
f 48 20 51
f 48 25 20
f 62 25 48
f 62 24 25
f 63 24 62
f 63 23 24
f 64 23 63
f 64 22 23
f 65 22 64
f 65 21 22
f 46 21 65
f 46 5 21
f 47 5 46
f 1 45 58
f 1 2 45
f 47 6 5
f 47 50 6
f 17 6 50
f 54 17 50
f 54 35 17
f 59 35 54
f 59 36 35
f 60 36 59
f 60 34 36
f 61 34 60
f 61 33 34
f 66 33 61
f 66 19 33
f 52 19 66
f 52 18 19
f 53 18 52
f 53 16 18
f 55 16 53
f 55 15 16
f 55 56 15
f 28 15 56
f 68 28 56
f 68 32 28
f 69 32 68
f 69 31 32
f 70 31 69
f 70 30 31
f 71 30 70
f 71 29 30
f 72 29 71
f 72 27 29
f 67 27 72
f 67 26 27
f 57 26 67
f 57 7 26
f 49 7 57
f 75 74 73
f 76 75 73
f 76 77 75
f 78 77 76
f 78 79 77
f 80 79 78
f 80 81 79
f 82 81 80
f 83 81 82
f 84 83 82
f 84 85 83
f 86 85 84
f 86 87 85
f 88 87 86
f 88 89 87
f 90 89 88
f 91 73 74
f 91 92 73
f 95 94 93
f 95 96 94
f 97 96 95
f 97 98 96
f 100 99 91
f 100 101 99
f 102 101 100
f 102 97 101
f 98 97 102
f 104 89 103
f 104 100 89
f 74 100 91
f 74 89 100
f 87 89 74
f 103 105 104
f 103 106 105
f 107 106 103
f 107 108 106
f 74 85 87
f 74 83 85
f 81 83 74
f 106 110 109
f 106 111 110
f 108 111 106
f 74 79 81
f 74 77 79
f 75 77 74
f 112 98 102
f 112 96 98
f 113 102 100
f 113 112 102
f 115 93 114
f 93 116 95
f 93 117 116
f 92 117 93
f 93 86 84
f 118 115 114
f 93 88 86
f 93 90 88
f 115 90 93
f 119 115 118
f 119 120 115
f 121 120 119
f 93 73 92
f 93 76 73
f 78 76 93
f 93 80 78
f 93 82 80
f 84 82 93
f 119 122 121
f 119 123 122
f 124 123 119
f 116 97 95
f 116 101 97
f 117 101 116
f 117 99 101
f 92 99 117
f 92 91 99
f 89 115 103
f 89 90 115
f 93 104 114
f 93 100 104
f 94 100 93
f 94 113 100
f 113 96 112
f 113 94 96
f 107 103 115
f 120 107 115
f 120 108 107
f 121 108 120
f 121 111 108
f 122 111 121
f 122 110 111
f 123 110 122
f 123 109 110
f 124 109 123
f 124 106 109
f 119 106 124
f 119 105 106
f 118 105 119
f 118 104 105
f 114 104 118
f 127 126 125
f 127 128 126
f 129 128 127
f 129 130 128
f 132 128 131
f 132 126 128
f 134 131 133
f 134 132 131
f 128 136 135
f 137 128 135
f 137 131 128
f 133 131 137
f 140 139 138
f 139 142 141
f 130 144 143
f 139 145 142
f 139 146 145
f 140 146 139
f 128 138 136
f 128 140 138
f 130 140 128
f 130 147 140
f 143 147 130
f 148 139 141
f 148 149 139
f 150 149 148
f 152 130 151
f 152 153 130
f 130 154 144
f 130 155 154
f 153 155 130
f 156 133 137
f 156 134 133
f 127 134 156
f 127 125 134
f 158 139 157
f 158 138 139
f 159 157 139
f 149 159 139
f 149 160 159
f 150 160 149
f 150 161 160
f 148 161 150
f 148 162 161
f 141 162 148
f 163 127 156
f 163 164 127
f 127 157 159
f 127 158 157
f 164 158 127
f 127 166 165
f 127 162 166
f 129 168 167
f 129 169 168
f 127 169 129
f 127 170 169
f 165 170 127
f 129 172 171
f 129 173 172
f 174 173 129
f 129 175 174
f 129 176 175
f 167 176 129
f 127 161 162
f 127 160 161
f 159 160 127
f 164 138 158
f 164 136 138
f 163 136 164
f 163 135 136
f 156 135 163
f 156 137 135
f 168 140 147
f 168 169 140
f 132 125 126
f 132 134 125
f 151 130 129
f 171 151 129
f 171 152 151
f 172 152 171
f 172 153 152
f 173 153 172
f 173 155 153
f 174 155 173
f 174 154 155
f 175 154 174
f 175 144 154
f 176 144 175
f 176 143 144
f 167 143 176
f 167 147 143
f 168 147 167
f 146 140 169
f 170 146 169
f 170 145 146
f 165 145 170
f 165 142 145
f 166 142 165
f 166 141 142
f 162 141 166
f 179 178 177
f 177 180 179
f 177 181 180
f 182 181 177
f 185 184 183
f 185 186 184
f 177 187 182
f 177 188 187
f 189 188 177
f 189 190 188
f 191 190 189
f 185 192 186
f 185 193 192
f 194 193 185
f 197 196 195
f 185 199 198
f 185 200 199
f 183 200 185
f 195 201 197
f 195 202 201
f 190 202 195
f 190 203 202
f 191 203 190
f 204 195 196
f 204 205 195
f 206 205 204
f 205 208 207
f 205 209 208
f 206 209 205
f 199 210 198
f 199 211 210
f 205 211 199
f 205 212 211
f 207 212 205
f 68 56 213
f 214 68 213
f 214 69 68
f 215 69 214
f 215 70 69
f 216 70 215
f 216 71 70
f 217 71 216
f 217 72 71
f 218 72 217
f 218 67 72
f 219 67 218
f 219 57 67
f 220 57 219
f 220 49 57
f 221 49 220
f 213 221 220
f 224 223 222
f 224 126 223
f 221 126 224
f 221 132 126
f 213 132 221
f 225 224 222
f 225 226 224
f 227 226 225
f 225 228 227
f 225 229 228
f 230 229 225
f 219 213 220
f 219 214 213
f 215 214 219
f 219 216 215
f 219 217 216
f 218 217 219
f 132 56 55
f 132 213 56
f 178 55 177
f 178 132 55
f 231 132 178
f 231 131 132
f 54 50 204
f 196 54 204
f 196 59 54
f 197 59 196
f 197 60 59
f 201 60 197
f 201 61 60
f 202 61 201
f 202 66 61
f 203 66 202
f 203 52 66
f 191 52 203
f 191 53 52
f 189 53 191
f 189 55 53
f 177 55 189
f 206 50 47
f 206 204 50
f 45 185 58
f 45 194 185
f 126 45 223
f 126 194 45
f 128 194 126
f 128 232 194
f 51 58 185
f 198 51 185
f 198 48 51
f 210 48 198
f 210 62 48
f 211 62 210
f 211 63 62
f 212 63 211
f 212 64 63
f 207 64 212
f 207 65 64
f 208 65 207
f 208 46 65
f 209 46 208
f 209 47 46
f 206 47 209
f 38 37 224
f 226 38 224
f 226 39 38
f 227 39 226
f 227 40 39
f 228 40 227
f 228 41 40
f 229 41 228
f 229 42 41
f 230 42 229
f 230 43 42
f 225 43 230
f 225 44 43
f 222 44 225
f 222 45 44
f 223 45 222
f 234 233 205
f 199 234 205
f 199 235 234
f 200 235 199
f 200 236 235
f 183 236 200
f 183 237 236
f 184 237 183
f 184 238 237
f 186 238 184
f 186 239 238
f 192 239 186
f 192 240 239
f 193 240 192
f 193 232 240
f 194 232 193
f 37 221 224
f 37 49 221
f 232 233 234
f 242 231 241
f 242 131 231
f 233 131 242
f 233 128 131
f 232 128 233
f 245 244 243
f 245 246 244
f 231 247 241
f 231 246 247
f 248 246 231
f 248 244 246
f 236 239 240
f 236 238 239
f 237 238 236
f 232 236 240
f 232 235 236
f 234 235 232
f 205 242 195
f 205 233 242
f 190 195 242
f 241 190 242
f 241 188 190
f 247 188 241
f 247 187 188
f 246 187 247
f 246 182 187
f 245 182 246
f 245 181 182
f 243 181 245
f 243 180 181
f 244 180 243
f 244 179 180
f 248 179 244
f 248 178 179
f 231 178 248
f 37 45 58
f 47 58 51
f 47 37 58
f 50 37 47
f 50 49 37
f 37 44 45
f 37 43 44
f 38 43 37
f 38 39 43
f 43 41 42
f 43 40 41
f 39 40 43
f 50 56 49
f 50 55 56
f 54 55 50
f 54 53 55
f 52 53 54
f 48 47 51
f 48 46 47
f 65 46 48
f 48 64 65
f 48 63 64
f 62 63 48
f 56 57 49
f 56 67 57
f 68 67 56
f 68 72 67
f 68 71 72
f 68 70 71
f 69 70 68
f 54 66 52
f 54 61 66
f 59 61 54
f 59 60 61
f 126 131 128
f 126 132 131
f 251 250 249
f 251 252 250
f 255 254 253
f 255 256 254
f 259 258 257
f 259 260 258
f 261 260 259
f 261 262 260
f 255 262 261
f 255 253 262
f 8 2 263
f 264 8 263
f 264 9 8
f 265 9 264
f 265 12 9
f 266 12 265
f 266 13 12
f 267 13 266
f 267 14 13
f 268 14 267
f 268 11 14
f 269 11 268
f 269 10 11
f 270 10 269
f 270 3 10
f 271 3 270
f 273 258 272
f 273 257 258
f 112 100 102
f 112 113 100
f 15 274 16
f 15 275 274
f 112 15 276
f 112 275 15
f 102 275 112
f 102 277 275
f 279 254 278
f 282 281 280
f 283 282 280
f 284 254 279
f 260 262 253
f 272 286 285
f 272 250 286
f 249 250 272
f 249 288 287
f 249 284 288
f 249 254 284
f 272 254 249
f 272 253 254
f 258 253 272
f 258 260 253
f 249 282 283
f 249 289 282
f 287 289 249
f 292 291 290
f 292 293 291
f 294 293 292
f 279 292 290
f 279 295 292
f 278 295 279
f 271 7 3
f 271 296 7
f 299 298 297
f 297 300 299
f 297 301 300
f 302 301 297
f 274 304 303
f 274 305 304
f 297 306 302
f 297 307 306
f 308 307 297
f 308 309 307
f 310 309 308
f 274 311 305
f 274 312 311
f 275 312 274
f 315 314 313
f 274 317 316
f 274 318 317
f 303 318 274
f 313 319 315
f 313 320 319
f 309 320 313
f 309 321 320
f 310 321 309
f 322 313 314
f 322 323 313
f 324 323 322
f 323 326 325
f 323 327 326
f 324 327 323
f 317 328 316
f 317 329 328
f 323 329 317
f 323 330 329
f 325 330 323
f 283 251 249
f 283 331 251
f 280 331 283
f 280 332 331
f 281 332 280
f 281 333 332
f 282 333 281
f 282 334 333
f 289 334 282
f 289 335 334
f 287 335 289
f 287 336 335
f 288 336 287
f 288 337 336
f 284 337 288
f 284 338 337
f 277 340 339
f 343 342 341
f 343 100 342
f 340 100 343
f 340 102 100
f 277 102 340
f 346 345 344
f 346 347 345
f 342 348 341
f 342 347 348
f 349 347 342
f 349 345 347
f 352 351 350
f 352 353 351
f 354 353 352
f 277 352 350
f 277 355 352
f 339 355 277
f 26 7 296
f 356 26 296
f 356 27 26
f 357 27 356
f 357 29 27
f 358 29 357
f 358 30 29
f 359 30 358
f 359 31 30
f 360 31 359
f 360 32 31
f 361 32 360
f 361 28 32
f 362 28 361
f 362 15 28
f 276 15 362
f 363 250 252
f 363 286 250
f 364 286 363
f 364 285 286
f 273 285 364
f 273 272 285
f 339 340 323
f 317 339 323
f 317 355 339
f 318 355 317
f 318 352 355
f 303 352 318
f 303 354 352
f 304 354 303
f 304 353 354
f 305 353 304
f 305 351 353
f 311 351 305
f 311 350 351
f 312 350 311
f 312 277 350
f 275 277 312
f 290 365 279
f 290 366 365
f 291 366 290
f 291 367 366
f 293 367 291
f 293 368 367
f 294 368 293
f 294 369 368
f 292 369 294
f 292 370 369
f 295 370 292
f 295 371 370
f 278 371 295
f 278 372 371
f 254 372 278
f 254 256 372
f 323 343 313
f 323 340 343
f 324 5 6
f 324 322 5
f 365 284 279
f 365 338 284
f 309 313 343
f 341 309 343
f 341 307 309
f 348 307 341
f 348 306 307
f 347 306 348
f 347 302 306
f 346 302 347
f 346 301 302
f 344 301 346
f 344 300 301
f 345 300 344
f 345 299 300
f 349 299 345
f 349 298 299
f 342 298 349
f 251 256 255
f 252 364 363
f 252 273 364
f 372 256 365
f 257 261 259
f 257 255 261
f 273 255 257
f 273 251 255
f 252 251 273
f 368 370 367
f 368 369 370
f 365 371 372
f 365 370 371
f 366 370 365
f 366 367 370
f 251 365 256
f 251 338 365
f 337 338 251
f 251 333 334
f 251 332 333
f 331 332 251
f 251 336 337
f 251 335 336
f 334 335 251
f 18 16 274
f 316 18 274
f 316 19 18
f 328 19 316
f 328 33 19
f 329 33 328
f 329 34 33
f 330 34 329
f 330 36 34
f 325 36 330
f 325 35 36
f 326 35 325
f 326 17 35
f 327 17 326
f 327 6 17
f 324 6 327
f 113 2 1
f 113 263 2
f 298 1 297
f 298 113 1
f 342 113 298
f 342 100 113
f 7 15 16
f 6 16 18
f 6 7 16
f 5 7 6
f 5 3 7
f 7 28 15
f 7 32 28
f 26 32 7
f 26 27 32
f 32 30 31
f 32 29 30
f 27 29 32
f 5 2 3
f 5 1 2
f 21 1 5
f 21 4 1
f 20 4 21
f 19 6 18
f 19 17 6
f 35 17 19
f 19 36 35
f 19 34 36
f 33 34 19
f 2 10 3
f 2 11 10
f 8 11 2
f 8 14 11
f 8 13 14
f 8 12 13
f 9 12 8
f 21 25 20
f 21 24 25
f 22 24 21
f 22 23 24
f 21 5 322
f 314 21 322
f 314 22 21
f 315 22 314
f 315 23 22
f 319 23 315
f 319 24 23
f 320 24 319
f 320 25 24
f 321 25 320
f 321 20 25
f 310 20 321
f 310 4 20
f 308 4 310
f 308 1 4
f 297 1 308
f 263 271 270
f 296 276 362
f 296 112 276
f 271 112 296
f 271 113 112
f 263 113 271
f 361 296 362
f 361 356 296
f 357 356 361
f 361 358 357
f 361 359 358
f 360 359 361
f 269 263 270
f 269 264 263
f 265 264 269
f 269 266 265
f 269 267 266
f 268 267 269
f 375 374 373
f 375 376 374
f 377 376 375
f 380 379 378
f 380 381 379
f 380 382 381
f 380 383 382
f 376 383 380
f 376 384 383
f 377 384 376
f 377 375 385
f 386 377 385
f 386 384 377
f 387 384 386
f 388 379 381
f 391 390 389
f 394 393 392
f 397 396 395
f 397 398 396
f 399 398 397
f 400 390 391
f 400 401 390
f 402 401 400
f 399 403 398
f 399 404 403
f 405 404 399
f 408 407 406
f 381 409 388
f 381 410 409
f 411 410 381
f 411 392 410
f 412 392 411
f 412 394 392
f 413 394 412
f 413 414 394
f 415 414 413
f 415 416 414
f 417 416 415
f 417 405 416
f 418 405 417
f 418 404 405
f 397 391 389
f 397 419 391
f 420 419 397
f 397 421 420
f 397 422 421
f 423 422 397
f 402 406 424
f 402 408 406
f 400 408 402
f 400 425 408
f 397 426 423
f 397 427 426
f 395 427 397
f 400 428 425
f 400 429 428
f 430 429 400
f 433 432 431
f 436 435 434
f 437 432 433
f 435 438 434
f 435 439 438
f 440 439 435
f 442 378 441
f 442 380 378
f 443 380 442
f 443 434 380
f 444 434 443
f 444 436 434
f 445 436 444
f 448 447 446
f 451 450 449
f 451 452 450
f 453 452 451
f 453 454 452
f 455 454 453
f 440 456 439
f 440 457 456
f 458 457 440
f 458 459 457
f 449 459 458
f 449 460 459
f 450 460 449
f 433 446 461
f 433 448 446
f 431 448 433
f 431 462 448
f 431 463 462
f 431 464 463
f 465 464 431
f 453 466 455
f 453 467 466
f 468 467 453
f 437 469 432
f 437 453 469
f 470 453 437
f 470 471 453
f 453 472 468
f 453 473 472
f 471 473 453
f 474 380 434
f 474 376 380
f 477 476 475
f 477 478 476
f 479 478 477
f 479 480 478
f 481 480 479
f 481 482 480
f 483 482 481
f 483 484 482
f 485 484 483
f 485 486 484
f 487 486 485
f 487 488 486
f 489 488 487
f 489 490 488
f 491 490 489
f 491 492 490
f 493 492 491
f 493 494 492
f 495 494 493
f 495 496 494
f 497 496 495
f 497 498 496
f 499 498 497
f 499 500 498
f 500 502 501
f 500 499 502
f 503 501 502
f 504 503 502
f 504 505 503
f 506 505 504
f 506 507 505
f 508 507 506
f 508 509 507
f 510 509 508
f 512 510 511
f 512 509 510
f 515 514 513
f 516 515 513
f 516 517 515
f 518 517 516
f 518 519 517
f 520 519 518
f 520 511 519
f 512 511 520
f 521 513 514
f 521 522 513
f 523 522 521
f 524 523 521
f 524 525 523
f 526 525 524
f 526 527 525
f 528 527 526
f 528 529 527
f 530 529 528
f 530 531 529
f 532 531 530
f 532 533 531
f 534 533 532
f 534 535 533
f 536 535 534
f 536 537 535
f 538 537 536
f 539 537 538
f 539 540 537
f 430 400 433
f 461 430 433
f 461 429 430
f 446 429 461
f 446 428 429
f 447 428 446
f 447 425 428
f 448 425 447
f 448 408 425
f 448 462 408
f 465 431 402
f 424 465 402
f 424 464 465
f 406 464 424
f 406 463 464
f 407 463 406
f 407 462 463
f 408 462 407
f 541 384 387
f 541 383 384
f 432 402 431
f 432 401 402
f 382 383 541
f 542 382 541
f 542 381 382
f 411 381 542
f 394 445 393
f 394 436 445
f 513 500 501
f 484 486 385
f 522 500 513
f 486 543 385
f 486 544 543
f 488 544 486
f 476 373 545
f 476 375 373
f 478 375 476
f 478 385 375
f 480 385 478
f 480 484 385
f 482 484 480
f 512 520 518
f 494 546 492
f 494 547 546
f 496 547 494
f 496 540 547
f 537 540 496
f 488 548 544
f 488 549 548
f 490 549 488
f 490 550 549
f 492 550 490
f 492 551 550
f 546 551 492
f 513 518 516
f 513 512 518
f 501 512 513
f 501 509 512
f 501 507 509
f 501 505 507
f 503 505 501
f 496 535 537
f 496 533 535
f 531 533 496
f 522 498 500
f 522 496 498
f 523 496 522
f 523 525 496
f 496 529 531
f 496 527 529
f 525 527 496
f 544 552 543
f 544 553 552
f 548 553 544
f 548 554 553
f 549 554 548
f 549 555 554
f 550 555 549
f 550 556 555
f 551 556 550
f 551 557 556
f 546 557 551
f 546 558 557
f 547 558 546
f 547 559 558
f 540 559 547
f 540 539 559
f 412 434 438
f 412 411 434
f 385 474 386
f 385 552 474
f 543 552 385
f 474 387 386
f 474 541 387
f 434 541 474
f 434 542 541
f 411 542 434
f 414 436 394
f 414 435 436
f 416 435 414
f 416 440 435
f 405 440 416
f 405 458 440
f 399 458 405
f 399 449 458
f 397 449 399
f 397 451 449
f 389 451 397
f 389 453 451
f 390 453 389
f 390 469 453
f 401 469 390
f 401 432 469
f 391 433 400
f 391 437 433
f 470 437 391
f 419 470 391
f 419 471 470
f 420 471 419
f 420 473 471
f 421 473 420
f 421 472 473
f 422 472 421
f 422 468 472
f 423 468 422
f 423 467 468
f 426 467 423
f 426 466 467
f 427 466 426
f 427 455 466
f 395 455 427
f 396 455 395
f 396 454 455
f 439 412 438
f 439 413 412
f 456 413 439
f 456 415 413
f 457 415 456
f 457 417 415
f 459 417 457
f 459 418 417
f 460 418 459
f 460 404 418
f 450 404 460
f 450 403 404
f 452 403 450
f 452 398 403
f 454 398 452
f 454 396 398
f 388 378 379
f 388 441 378
f 442 388 409
f 442 441 388
f 410 442 409
f 410 443 442
f 392 443 410
f 392 444 443
f 393 444 392
f 393 445 444
f 560 476 545
f 560 475 476
f 560 374 376
f 493 559 539
f 521 497 495
f 483 481 479
f 491 559 493
f 493 528 526
f 376 475 560
f 376 477 475
f 474 477 376
f 474 479 477
f 552 479 474
f 552 483 479
f 553 483 552
f 553 485 483
f 554 485 553
f 554 487 485
f 555 487 554
f 555 489 487
f 491 558 559
f 491 557 558
f 489 557 491
f 489 556 557
f 555 556 489
f 514 497 521
f 514 499 497
f 502 499 514
f 510 508 506
f 493 530 528
f 493 532 530
f 534 532 493
f 493 521 495
f 493 524 521
f 526 524 493
f 493 536 534
f 493 538 536
f 539 538 493
f 502 506 504
f 502 510 506
f 514 510 502
f 514 511 510
f 514 519 511
f 514 517 519
f 515 517 514
f 560 373 374
f 560 545 373

