# https://github.com/mikedh/trimesh
v 0.03130000 0.00980000 -0.01110000
v 0.03130000 0.00980000 -0.01350000
v 0.03130000 -0.00980000 -0.01110000
v 0.03130000 -0.00980000 -0.01350000
v 0.02270000 -0.00980000 -0.01110000
v 0.02270000 -0.00980000 -0.01350000
v 0.02270000 0.00980000 -0.01110000
v 0.02270000 0.00980000 -0.01350000
v 0.02270000 0.00980000 0.00950000
v 0.02270000 0.00980000 0.01350000
v 0.02270000 -0.00980000 0.00950000
v 0.02270000 -0.00980000 0.01350000
v 0.03130000 -0.00980000 0.00950000
v 0.03130000 -0.00980000 0.01350000
v 0.03130000 0.00980000 0.00950000
v 0.03130000 0.00980000 0.01350000
v -0.00300000 0.01420000 0.01375000
v 0.05700000 0.01420000 0.01375000
v -0.00300000 0.01420000 -0.01375000
v 0.05700000 0.01420000 -0.01375000
v -0.00300000 0.01190000 0.01425000
v -0.00300000 0.01190000 0.01375000
v -0.00300000 0.01420000 0.01425000
v -0.00300000 0.01439100 0.01421200
v -0.00300000 0.01190000 -0.01375000
v -0.00300000 0.01190000 -0.01425000
v -0.00300000 0.01420000 -0.01425000
v -0.00300000 0.01466200 -0.01394100
v -0.00300000 0.01470000 -0.01375000
v -0.00300000 0.01470000 0.01375000
v 0.02012100 0.00902100 -0.01375000
v 0.01966700 0.00939400 -0.01375000
v 0.03322800 0.00804800 -0.01375000
v 0.01914800 0.00967200 -0.01375000
v 0.01858500 0.00984200 -0.01375000
v 0.05700000 0.01190000 -0.01375000
v 0.05400000 0.01090000 -0.01375000
v 0.05300000 0.01090000 -0.01375000
v 0.05165900 0.01078700 -0.01375000
v 0.05035500 0.01045000 -0.01375000
v 0.04912700 0.00990000 -0.01375000
v 0.03600000 0.00990000 -0.01375000
v 0.03485200 0.00967200 -0.01375000
v 0.03433300 0.00939400 -0.01375000
v 0.02049400 0.00856700 -0.01375000
v 0.01800000 0.00990000 -0.01375000
v 0.00487300 0.00990000 -0.01375000
v 0.00364500 0.01045000 -0.01375000
v -0.00000000 0.01090000 -0.01375000
v 0.00100000 0.01090000 -0.01375000
v 0.03541500 0.00984200 -0.01375000
v 0.03387900 0.00902100 -0.01375000
v 0.03350600 0.00856700 -0.01375000
v 0.00234100 0.01078700 -0.01375000
v 0.02100000 0.00270000 -0.01375000
v 0.02100000 0.00690000 -0.01375000
v 0.02250000 0.00120000 -0.01375000
v 0.02077200 0.00804800 -0.01375000
v 0.03305800 0.00748500 -0.01375000
v 0.02094200 0.00748500 -0.01375000
v 0.03300000 0.00690000 -0.01375000
v 0.03150000 0.00120000 -0.01375000
v 0.03256100 0.00163900 -0.01375000
v 0.03207400 0.00131400 -0.01375000
v 0.03288600 0.00212600 -0.01375000
v 0.03300000 0.00270000 -0.01375000
v 0.02192600 0.00131400 -0.01375000
v 0.02143900 0.00163900 -0.01375000
v 0.02111400 0.00212600 -0.01375000
v 0.05700000 0.01190000 -0.01425000
v 0.05700000 0.01420000 -0.01425000
v 0.05700000 0.01439100 0.01421200
v 0.05700000 0.01420000 0.01425000
v 0.05700000 0.01190000 0.01375000
v 0.05700000 0.01190000 0.01425000
v 0.05700000 0.01470000 0.01375000
v 0.05700000 0.01470000 -0.01375000
v 0.05700000 0.01466200 -0.01394100
v 0.03600000 0.00990000 0.01425000
v 0.03600000 0.00990000 0.01375000
v 0.03541500 0.00984200 0.01425000
v 0.03541500 0.00984200 0.01375000
v 0.03485200 0.00967200 0.01425000
v 0.03485200 0.00967200 0.01375000
v 0.03433300 0.00939400 0.01425000
v 0.03433300 0.00939400 0.01375000
v 0.03387900 0.00902100 0.01425000
v 0.03387900 0.00902100 0.01375000
v 0.03350600 0.00856700 0.01425000
v 0.03350600 0.00856700 0.01375000
v 0.03322800 0.00804800 0.01425000
v 0.03322800 0.00804800 0.01375000
v 0.03305800 0.00748500 0.01425000
v 0.03305800 0.00748500 0.01375000
v 0.03300000 0.00690000 0.01425000
v 0.03300000 0.00690000 0.01375000
v 0.03300000 0.00270000 0.01425000
v 0.03300000 0.00270000 0.01375000
v 0.03150000 0.00120000 0.01375000
v 0.03150000 0.00120000 0.01425000
v 0.03207400 0.00131400 0.01425000
v 0.03207400 0.00131400 0.01375000
v 0.03256100 0.00163900 0.01425000
v 0.03256100 0.00163900 0.01375000
v 0.03288600 0.00212600 0.01425000
v 0.03288600 0.00212600 0.01375000
v 0.02100000 0.00690000 0.01375000
v 0.02100000 0.00690000 0.01425000
v 0.02100000 0.00270000 0.01375000
v 0.02100000 0.00270000 0.01425000
v 0.02094200 0.00748500 0.01425000
v 0.02094200 0.00748500 0.01375000
v 0.02077200 0.00804800 0.01425000
v 0.02077200 0.00804800 0.01375000
v 0.02049400 0.00856700 0.01425000
v 0.02049400 0.00856700 0.01375000
v 0.02012100 0.00902100 0.01425000
v 0.02012100 0.00902100 0.01375000
v 0.01966700 0.00939400 0.01425000
v 0.01966700 0.00939400 0.01375000
v 0.01914800 0.00967200 0.01425000
v 0.01914800 0.00967200 0.01375000
v 0.01858500 0.00984200 0.01425000
v 0.01858500 0.00984200 0.01375000
v 0.01800000 0.00990000 0.01425000
v 0.01800000 0.00990000 0.01375000
v 0.00487300 0.00990000 0.01425000
v 0.00487300 0.00990000 0.01375000
v 0.00100000 0.01090000 0.01375000
v 0.00100000 0.01090000 0.01425000
v 0.00234100 0.01078700 0.01375000
v 0.00234100 0.01078700 0.01425000
v 0.00364500 0.01045000 0.01375000
v 0.00364500 0.01045000 0.01425000
v -0.00000000 0.01090000 0.01425000
v -0.00000000 0.01090000 0.01375000
v 0.04912700 0.00990000 0.01375000
v 0.04912700 0.00990000 0.01425000
v 0.05035500 0.01045000 0.01375000
v 0.05035500 0.01045000 0.01425000
v 0.05165900 0.01078700 0.01375000
v 0.05165900 0.01078700 0.01425000
v 0.05300000 0.01090000 0.01375000
v 0.05300000 0.01090000 0.01425000
v 0.05400000 0.01090000 0.01425000
v 0.05400000 0.01090000 0.01375000
v 0.03150000 0.00120000 -0.01425000
v 0.03207400 0.00131400 -0.01425000
v 0.03256100 0.00163900 -0.01425000
v 0.03288600 0.00212600 -0.01425000
v 0.03300000 0.00270000 -0.01425000
v 0.02250000 0.00120000 -0.01425000
v 0.02100000 0.00270000 -0.01425000
v 0.02111400 0.00212600 -0.01425000
v 0.02143900 0.00163900 -0.01425000
v 0.02192600 0.00131400 -0.01425000
v 0.02100000 0.00690000 -0.01425000
v 0.02094200 0.00748500 -0.01425000
v 0.02077200 0.00804800 -0.01425000
v 0.02049400 0.00856700 -0.01425000
v 0.02012100 0.00902100 -0.01425000
v 0.01966700 0.00939400 -0.01425000
v 0.01914800 0.00967200 -0.01425000
v 0.01858500 0.00984200 -0.01425000
v 0.01800000 0.00990000 -0.01425000
v 0.00487300 0.00990000 -0.01425000
v 0.00100000 0.01090000 -0.01425000
v 0.00234100 0.01078700 -0.01425000
v 0.00364500 0.01045000 -0.01425000
v -0.00000000 0.01090000 -0.01425000
v 0.05400000 0.01090000 -0.01425000
v 0.05300000 0.01090000 -0.01425000
v 0.02111400 0.00212600 0.01425000
v 0.02111400 0.00212600 0.01375000
v 0.02143900 0.00163900 0.01425000
v 0.02143900 0.00163900 0.01375000
v 0.02192600 0.00131400 0.01425000
v 0.02192600 0.00131400 0.01375000
v 0.02250000 0.00120000 0.01425000
v 0.02250000 0.00120000 0.01375000
v 0.04912700 0.00990000 -0.01425000
v 0.05035500 0.01045000 -0.01425000
v 0.05165900 0.01078700 -0.01425000
v 0.03600000 0.00990000 -0.01425000
v 0.03541500 0.00984200 -0.01425000
v 0.03485200 0.00967200 -0.01425000
v 0.03433300 0.00939400 -0.01425000
v 0.03387900 0.00902100 -0.01425000
v 0.03350600 0.00856700 -0.01425000
v 0.03322800 0.00804800 -0.01425000
v 0.03305800 0.00748500 -0.01425000
v 0.03300000 0.00690000 -0.01425000
v 0.04100000 0.00915000 -0.01150000
v 0.03295000 0.00915000 -0.01150000
v 0.04100000 0.00915000 -0.01080000
v 0.03295000 0.00915000 -0.01080000
v 0.03295000 -0.00915000 -0.01150000
v 0.04100000 -0.00915000 -0.01150000
v 0.03295000 -0.00915000 -0.01080000
v 0.04100000 -0.00915000 -0.01080000
v 0.03195000 -0.00815000 -0.01080000
v 0.03195000 -0.00815000 -0.01150000
v 0.03211900 -0.00870600 -0.01080000
v 0.03211900 -0.00870600 -0.01150000
v 0.03256700 -0.00907400 -0.01080000
v 0.03256700 -0.00907400 -0.01150000
v 0.03000000 0.00980000 -0.01110000
v 0.03000000 0.00980000 -0.00610000
v 0.02941500 0.00974200 -0.00610000
v 0.02941500 0.00974200 -0.01110000
v 0.02885200 0.00957200 -0.00610000
v 0.02885200 0.00957200 -0.01110000
v 0.02833300 0.00929400 -0.00610000
v 0.02833300 0.00929400 -0.01110000
v 0.02787900 0.00892100 -0.00610000
v 0.02787900 0.00892100 -0.01110000
v 0.02750600 0.00846700 -0.00610000
v 0.02750600 0.00846700 -0.01110000
v 0.02722800 0.00794800 -0.00610000
v 0.02722800 0.00794800 -0.01110000
v 0.02705800 0.00738500 -0.00610000
v 0.02705800 0.00738500 -0.01110000
v 0.02700000 0.00680000 -0.00610000
v 0.02700000 0.00680000 -0.01110000
v 0.03195000 0.00815000 -0.01150000
v 0.03195000 0.00815000 -0.01080000
v 0.05780000 -0.00980000 -0.00610000
v 0.05780000 -0.00980000 -0.01080000
v 0.03000000 -0.00980000 -0.00610000
v 0.04100000 -0.00980000 -0.01080000
v 0.03000000 -0.00980000 -0.01110000
v 0.04100000 -0.00980000 -0.01350000
v 0.04184900 -0.00906600 -0.01150000
v 0.04535000 -0.00480000 -0.01150000
v 0.04266500 0.00881900 -0.01150000
v 0.04341700 0.00841700 -0.01150000
v 0.04407600 0.00787600 -0.01150000
v 0.04184900 0.00906600 -0.01150000
v 0.04535000 0.00480000 -0.01150000
v 0.03202600 0.00853300 -0.01150000
v 0.03239400 0.00898100 -0.01150000
v 0.04501900 0.00646500 -0.01150000
v 0.04526600 0.00564900 -0.01150000
v 0.04461700 0.00721700 -0.01150000
v 0.04526600 -0.00564900 -0.01150000
v 0.04501900 -0.00646500 -0.01150000
v 0.04341700 -0.00841700 -0.01150000
v 0.04461700 -0.00721700 -0.01150000
v 0.04407600 -0.00787600 -0.01150000
v 0.04266500 -0.00881900 -0.01150000
v 0.02700000 -0.00680000 -0.00610000
v 0.02700000 -0.00680000 -0.01110000
v 0.05780000 0.00980000 -0.01080000
v 0.04100000 0.00980000 -0.01080000
v 0.04197500 0.00970400 -0.01080000
v 0.04291300 0.00941900 -0.01080000
v 0.04377800 0.00895700 -0.01080000
v 0.04453600 0.00833600 -0.01080000
v 0.04515700 -0.00757800 -0.01080000
v 0.04453600 -0.00833600 -0.01080000
v 0.04377800 -0.00895700 -0.01080000
v 0.04515700 0.00757800 -0.01080000
v 0.04561900 0.00671300 -0.01080000
v 0.05877500 0.00970400 -0.01080000
v 0.04590400 0.00577500 -0.01080000
v 0.05971300 0.00941900 -0.01080000
v 0.04291300 -0.00941900 -0.01080000
v 0.04197500 -0.00970400 -0.01080000
v 0.04600000 0.00480000 -0.01080000
v 0.06270400 0.00577500 -0.01080000
v 0.06241900 0.00671300 -0.01080000
v 0.05877500 -0.00970400 -0.01080000
v 0.04590400 -0.00577500 -0.01080000
v 0.04561900 -0.00671300 -0.01080000
v 0.06195700 0.00757800 -0.01080000
v 0.06133600 0.00833600 -0.01080000
v 0.06057800 0.00895700 -0.01080000
v 0.06280000 0.00480000 -0.01080000
v 0.04600000 -0.00480000 -0.01080000
v 0.06280000 -0.00480000 -0.01080000
v 0.06195700 -0.00757800 -0.01080000
v 0.06241900 -0.00671300 -0.01080000
v 0.06270400 -0.00577500 -0.01080000
v 0.05971300 -0.00941900 -0.01080000
v 0.06057800 -0.00895700 -0.01080000
v 0.06133600 -0.00833600 -0.01080000
v 0.04184900 0.00906600 -0.01080000
v 0.04266500 0.00881900 -0.01080000
v 0.04341700 0.00841700 -0.01080000
v 0.04407600 0.00787600 -0.01080000
v 0.04461700 0.00721700 -0.01080000
v 0.04501900 0.00646500 -0.01080000
v 0.04526600 0.00564900 -0.01080000
v 0.04535000 0.00480000 -0.01080000
v 0.04590400 -0.00577500 -0.01350000
v 0.04600000 -0.00480000 -0.01350000
v 0.04590400 0.00577500 -0.01350000
v 0.04100000 0.00980000 -0.01350000
v 0.04600000 0.00480000 -0.01350000
v 0.04377800 0.00895700 -0.01350000
v 0.04291300 0.00941900 -0.01350000
v 0.04453600 0.00833600 -0.01350000
v 0.04515700 0.00757800 -0.01350000
v 0.04561900 0.00671300 -0.01350000
v 0.04197500 0.00970400 -0.01350000
v 0.04197500 -0.00970400 -0.01350000
v 0.04291300 -0.00941900 -0.01350000
v 0.04515700 -0.00757800 -0.01350000
v 0.04377800 -0.00895700 -0.01350000
v 0.04453600 -0.00833600 -0.01350000
v 0.04561900 -0.00671300 -0.01350000
v 0.02705800 -0.00738500 -0.00610000
v 0.02705800 -0.00738500 -0.01110000
v 0.02722800 -0.00794800 -0.00610000
v 0.02722800 -0.00794800 -0.01110000
v 0.02750600 -0.00846700 -0.00610000
v 0.02750600 -0.00846700 -0.01110000
v 0.02787900 -0.00892100 -0.00610000
v 0.02787900 -0.00892100 -0.01110000
v 0.02833300 -0.00929400 -0.00610000
v 0.02833300 -0.00929400 -0.01110000
v 0.02885200 -0.00957200 -0.00610000
v 0.02885200 -0.00957200 -0.01110000
v 0.02941500 -0.00974200 -0.00610000
v 0.02941500 -0.00974200 -0.01110000
v 0.03239400 0.00898100 -0.01080000
v 0.03202600 0.00853300 -0.01080000
v 0.04535000 -0.00480000 -0.01080000
v 0.04526600 -0.00564900 -0.01080000
v 0.04501900 -0.00646500 -0.01080000
v 0.04461700 -0.00721700 -0.01080000
v 0.04407600 -0.00787600 -0.01080000
v 0.04341700 -0.00841700 -0.01080000
v 0.04266500 -0.00881900 -0.01080000
v 0.04184900 -0.00906600 -0.01080000
v 0.06280000 -0.00480000 -0.00610000
v 0.06280000 0.00480000 -0.00610000
v 0.05877500 -0.00970400 -0.00610000
v 0.05971300 -0.00941900 -0.00610000
v 0.06057800 -0.00895700 -0.00610000
v 0.06133600 -0.00833600 -0.00610000
v 0.06195700 -0.00757800 -0.00610000
v 0.06241900 -0.00671300 -0.00610000
v 0.06270400 -0.00577500 -0.00610000
v 0.05780000 0.00980000 -0.00610000
v 0.06270400 0.00577500 -0.00610000
v 0.05877500 0.00970400 -0.00610000
v 0.05971300 0.00941900 -0.00610000
v 0.06057800 0.00895700 -0.00610000
v 0.06133600 0.00833600 -0.00610000
v 0.06241900 0.00671300 -0.00610000
v 0.06195700 0.00757800 -0.00610000
v 0.02700000 0.00680000 0.00630000
v 0.02705800 0.00738500 0.00630000
v 0.02722800 0.00794800 0.00630000
v 0.02750600 0.00846700 0.00630000
v 0.02787900 0.00892100 0.00630000
v 0.02833300 0.00929400 0.00630000
v 0.02885200 0.00957200 0.00630000
v 0.02941500 0.00974200 0.00630000
v 0.03000000 0.00980000 0.00630000
v 0.06270400 0.00577500 0.00630000
v 0.06280000 0.00480000 0.00630000
v 0.05971300 0.00941900 0.00630000
v 0.02700000 -0.00680000 0.00630000
v 0.06280000 -0.00480000 0.00630000
v 0.05877500 0.00970400 0.00630000
v 0.05971300 -0.00941900 0.00630000
v 0.05877500 -0.00970400 0.00630000
v 0.06270400 -0.00577500 0.00630000
v 0.05780000 -0.00980000 0.00630000
v 0.03000000 -0.00980000 0.00630000
v 0.02705800 -0.00738500 0.00630000
v 0.05780000 0.00980000 0.00630000
v 0.06241900 -0.00671300 0.00630000
v 0.06195700 -0.00757800 0.00630000
v 0.06133600 -0.00833600 0.00630000
v 0.06057800 0.00895700 0.00630000
v 0.06133600 0.00833600 0.00630000
v 0.06195700 0.00757800 0.00630000
v 0.06241900 0.00671300 0.00630000
v 0.06057800 -0.00895700 0.00630000
v 0.02722800 -0.00794800 0.00630000
v 0.02941500 -0.00974200 0.00630000
v 0.02885200 -0.00957200 0.00630000
v 0.02833300 -0.00929400 0.00630000
v 0.02787900 -0.00892100 0.00630000
v 0.02750600 -0.00846700 0.00630000
v 0.05780000 -0.00980000 0.01100000
v 0.04100000 -0.00980000 0.01100000
v 0.04197500 -0.00970400 0.01100000
v 0.04291300 -0.00941900 0.01100000
v 0.04377800 -0.00895700 0.01100000
v 0.04453600 -0.00833600 0.01100000
v 0.04515700 0.00757800 0.01100000
v 0.04453600 0.00833600 0.01100000
v 0.05780000 0.00980000 0.01100000
v 0.04377800 0.00895700 0.01100000
v 0.04515700 -0.00757800 0.01100000
v 0.04561900 -0.00671300 0.01100000
v 0.05877500 -0.00970400 0.01100000
v 0.04590400 -0.00577500 0.01100000
v 0.05971300 -0.00941900 0.01100000
v 0.04291300 0.00941900 0.01100000
v 0.04197500 0.00970400 0.01100000
v 0.04100000 0.00980000 0.01100000
v 0.04600000 -0.00480000 0.01100000
v 0.06270400 -0.00577500 0.01100000
v 0.06241900 -0.00671300 0.01100000
v 0.05877500 0.00970400 0.01100000
v 0.04590400 0.00577500 0.01100000
v 0.04561900 0.00671300 0.01100000
v 0.06195700 -0.00757800 0.01100000
v 0.06133600 -0.00833600 0.01100000
v 0.06057800 -0.00895700 0.01100000
v 0.06280000 -0.00480000 0.01100000
v 0.04600000 0.00480000 0.01100000
v 0.06280000 0.00480000 0.01100000
v 0.06195700 0.00757800 0.01100000
v 0.06241900 0.00671300 0.01100000
v 0.06270400 0.00577500 0.01100000
v 0.05971300 0.00941900 0.01100000
v 0.06057800 0.00895700 0.01100000
v 0.06133600 0.00833600 0.01100000
v 0.03000000 -0.00980000 0.00950000
v 0.02941500 -0.00974200 0.00950000
v 0.02885200 -0.00957200 0.00950000
v 0.02833300 -0.00929400 0.00950000
v 0.02787900 -0.00892100 0.00950000
v 0.02750600 -0.00846700 0.00950000
v 0.02722800 -0.00794800 0.00950000
v 0.02705800 -0.00738500 0.00950000
v 0.02700000 -0.00680000 0.00950000
v 0.02941500 0.00974200 0.00950000
v 0.03000000 0.00980000 0.00950000
v 0.02700000 0.00680000 0.00950000
v 0.02885200 0.00957200 0.00950000
v 0.02705800 0.00738500 0.00950000
v 0.02722800 0.00794800 0.00950000
v 0.02750600 0.00846700 0.00950000
v 0.02787900 0.00892100 0.00950000
v 0.02833300 0.00929400 0.00950000
v 0.04100000 -0.00980000 0.01350000
v 0.04100000 0.00980000 0.01350000
v 0.04600000 0.00480000 0.01350000
v 0.04590400 0.00577500 0.01350000
v 0.04561900 0.00671300 0.01350000
v 0.04515700 0.00757800 0.01350000
v 0.04453600 0.00833600 0.01350000
v 0.04377800 0.00895700 0.01350000
v 0.04291300 0.00941900 0.01350000
v 0.04197500 0.00970400 0.01350000
v 0.04590400 -0.00577500 0.01350000
v 0.04600000 -0.00480000 0.01350000
v 0.04377800 -0.00895700 0.01350000
v 0.04291300 -0.00941900 0.01350000
v 0.04453600 -0.00833600 0.01350000
v 0.04515700 -0.00757800 0.01350000
v 0.04561900 -0.00671300 0.01350000
v 0.04197500 -0.00970400 0.01350000
v 0.00800000 0.00480000 0.01100000
v 0.00800000 0.00480000 0.01350000
v 0.00800000 -0.00480000 0.01100000
v 0.00800000 -0.00480000 0.01350000
v -0.00380000 -0.00980000 0.00630000
v -0.00380000 -0.00980000 0.01100000
v 0.02400000 -0.00980000 0.00630000
v 0.01300000 -0.00980000 0.01100000
v 0.02400000 -0.00980000 0.00950000
v 0.01300000 -0.00980000 0.01350000
v -0.00380000 0.00980000 0.01100000
v 0.01300000 0.00980000 0.01100000
v 0.01202500 0.00970400 0.01100000
v 0.01108700 0.00941900 0.01100000
v 0.01022200 0.00895700 0.01100000
v 0.00946400 0.00833600 0.01100000
v 0.00884300 -0.00757800 0.01100000
v 0.00946400 -0.00833600 0.01100000
v 0.01022200 -0.00895700 0.01100000
v 0.00884300 0.00757800 0.01100000
v 0.00838100 0.00671300 0.01100000
v -0.00477500 0.00970400 0.01100000
v 0.00809600 0.00577500 0.01100000
v -0.00571300 0.00941900 0.01100000
v 0.01108700 -0.00941900 0.01100000
v 0.01202500 -0.00970400 0.01100000
v -0.00870400 0.00577500 0.01100000
v -0.00841900 0.00671300 0.01100000
v -0.00477500 -0.00970400 0.01100000
v 0.00809600 -0.00577500 0.01100000
v 0.00838100 -0.00671300 0.01100000
v -0.00795700 0.00757800 0.01100000
v -0.00733600 0.00833600 0.01100000
v -0.00657800 0.00895700 0.01100000
v -0.00880000 0.00480000 0.01100000
v -0.00880000 -0.00480000 0.01100000
v -0.00795700 -0.00757800 0.01100000
v -0.00841900 -0.00671300 0.01100000
v -0.00870400 -0.00577500 0.01100000
v -0.00571300 -0.00941900 0.01100000
v -0.00657800 -0.00895700 0.01100000
v -0.00733600 -0.00833600 0.01100000
v -0.00477500 -0.00970400 0.00630000
v -0.00571300 -0.00941900 0.00630000
v -0.00657800 -0.00895700 0.00630000
v -0.00733600 -0.00833600 0.00630000
v -0.00795700 -0.00757800 0.00630000
v -0.00841900 -0.00671300 0.00630000
v -0.00870400 -0.00577500 0.00630000
v -0.00880000 -0.00480000 0.00630000
v 0.00809600 0.00577500 0.01350000
v 0.00838100 0.00671300 0.01350000
v 0.00884300 0.00757800 0.01350000
v 0.00946400 0.00833600 0.01350000
v 0.01022200 0.00895700 0.01350000
v 0.01108700 0.00941900 0.01350000
v 0.01202500 0.00970400 0.01350000
v 0.01300000 0.00980000 0.01350000
v -0.00880000 0.00480000 0.00630000
v 0.02458500 -0.00974200 0.00630000
v 0.02514800 -0.00957200 0.00630000
v 0.02694200 -0.00738500 0.00630000
v 0.02677200 -0.00794800 0.00630000
v 0.02566700 -0.00929400 0.00630000
v 0.02612100 -0.00892100 0.00630000
v 0.02649400 -0.00846700 0.00630000
v 0.02400000 0.00980000 0.00630000
v -0.00380000 0.00980000 0.00630000
v -0.00870400 0.00577500 0.00630000
v -0.00477500 0.00970400 0.00630000
v -0.00571300 0.00941900 0.00630000
v 0.02694200 0.00738500 0.00630000
v 0.02677200 0.00794800 0.00630000
v 0.02458500 0.00974200 0.00630000
v 0.02649400 0.00846700 0.00630000
v 0.02612100 0.00892100 0.00630000
v 0.02566700 0.00929400 0.00630000
v 0.02514800 0.00957200 0.00630000
v -0.00657800 0.00895700 0.00630000
v -0.00733600 0.00833600 0.00630000
v -0.00841900 0.00671300 0.00630000
v -0.00795700 0.00757800 0.00630000
v 0.00809600 -0.00577500 0.01350000
v 0.01202500 -0.00970400 0.01350000
v 0.01108700 -0.00941900 0.01350000
v 0.00884300 -0.00757800 0.01350000
v 0.01022200 -0.00895700 0.01350000
v 0.00946400 -0.00833600 0.01350000
v 0.00838100 -0.00671300 0.01350000
v 0.02400000 0.00980000 0.00950000
v 0.02458500 0.00974200 0.00950000
v 0.02514800 0.00957200 0.00950000
v 0.02566700 0.00929400 0.00950000
v 0.02612100 0.00892100 0.00950000
v 0.02649400 0.00846700 0.00950000
v 0.02677200 0.00794800 0.00950000
v 0.02694200 0.00738500 0.00950000
v 0.02694200 -0.00738500 0.00950000
v 0.02677200 -0.00794800 0.00950000
v 0.02649400 -0.00846700 0.00950000
v 0.02612100 -0.00892100 0.00950000
v 0.02566700 -0.00929400 0.00950000
v 0.02514800 -0.00957200 0.00950000
v 0.02458500 -0.00974200 0.00950000
v -0.00380000 -0.00980000 -0.00610000
v 0.02400000 -0.00980000 -0.00610000
v -0.00477500 -0.00970400 -0.00610000
v -0.00880000 -0.00480000 -0.00610000
v -0.00880000 0.00480000 -0.00610000
v 0.02458500 -0.00974200 -0.00610000
v 0.02514800 -0.00957200 -0.00610000
v 0.02694200 -0.00738500 -0.00610000
v 0.02677200 -0.00794800 -0.00610000
v 0.02566700 -0.00929400 -0.00610000
v 0.02612100 -0.00892100 -0.00610000
v 0.02649400 -0.00846700 -0.00610000
v 0.02400000 0.00980000 -0.00610000
v -0.00380000 0.00980000 -0.00610000
v -0.00870400 0.00577500 -0.00610000
v -0.00477500 0.00970400 -0.00610000
v -0.00571300 0.00941900 -0.00610000
v -0.00571300 -0.00941900 -0.00610000
v -0.00870400 -0.00577500 -0.00610000
v -0.00841900 -0.00671300 -0.00610000
v -0.00795700 -0.00757800 -0.00610000
v -0.00733600 -0.00833600 -0.00610000
v -0.00657800 -0.00895700 -0.00610000
v 0.02694200 0.00738500 -0.00610000
v 0.02677200 0.00794800 -0.00610000
v 0.02458500 0.00974200 -0.00610000
v 0.02649400 0.00846700 -0.00610000
v 0.02612100 0.00892100 -0.00610000
v 0.02566700 0.00929400 -0.00610000
v 0.02514800 0.00957200 -0.00610000
v -0.00657800 0.00895700 -0.00610000
v -0.00733600 0.00833600 -0.00610000
v -0.00841900 0.00671300 -0.00610000
v -0.00795700 0.00757800 -0.00610000
v 0.00865000 0.00480000 -0.01150000
v 0.00865000 0.00480000 -0.01080000
v 0.00873400 0.00564900 -0.01150000
v 0.00873400 0.00564900 -0.01080000
v 0.00898100 0.00646500 -0.01150000
v 0.00898100 0.00646500 -0.01080000
v 0.00938300 0.00721700 -0.01150000
v 0.00938300 0.00721700 -0.01080000
v 0.00992400 0.00787600 -0.01150000
v 0.00992400 0.00787600 -0.01080000
v 0.01058300 0.00841700 -0.01150000
v 0.01058300 0.00841700 -0.01080000
v 0.01133500 0.00881900 -0.01150000
v 0.01133500 0.00881900 -0.01080000
v 0.01215100 0.00906600 -0.01150000
v 0.01215100 0.00906600 -0.01080000
v 0.01300000 0.00915000 -0.01150000
v 0.01300000 0.00915000 -0.01080000
v 0.02105000 0.00915000 -0.01150000
v 0.02105000 0.00915000 -0.01080000
v 0.01300000 -0.00915000 -0.01150000
v 0.02105000 -0.00915000 -0.01150000
v 0.01300000 -0.00915000 -0.01080000
v 0.02105000 -0.00915000 -0.01080000
v 0.01215100 -0.00906600 -0.01150000
v 0.01215100 -0.00906600 -0.01080000
v 0.01133500 -0.00881900 -0.01150000
v 0.01133500 -0.00881900 -0.01080000
v 0.01058300 -0.00841700 -0.01150000
v 0.01058300 -0.00841700 -0.01080000
v 0.00992400 -0.00787600 -0.01150000
v 0.00992400 -0.00787600 -0.01080000
v 0.00938300 -0.00721700 -0.01150000
v 0.00938300 -0.00721700 -0.01080000
v 0.00898100 -0.00646500 -0.01150000
v 0.00898100 -0.00646500 -0.01080000
v 0.00873400 -0.00564900 -0.01150000
v 0.00873400 -0.00564900 -0.01080000
v 0.00865000 -0.00480000 -0.01150000
v 0.00865000 -0.00480000 -0.01080000
v 0.02205000 0.00815000 -0.01080000
v 0.02205000 0.00815000 -0.01150000
v 0.02188100 0.00870600 -0.01080000
v 0.02188100 0.00870600 -0.01150000
v 0.02143300 0.00907400 -0.01080000
v 0.02143300 0.00907400 -0.01150000
v 0.02160600 -0.00898100 -0.01080000
v 0.02160600 -0.00898100 -0.01150000
v 0.02197400 -0.00853300 -0.01080000
v 0.02197400 -0.00853300 -0.01150000
v 0.02205000 -0.00815000 -0.01080000
v 0.02205000 -0.00815000 -0.01150000
v 0.02694200 0.00738500 -0.01110000
v 0.02677200 0.00794800 -0.01110000
v 0.02649400 0.00846700 -0.01110000
v 0.02612100 0.00892100 -0.01110000
v 0.02566700 0.00929400 -0.01110000
v 0.02514800 0.00957200 -0.01110000
v 0.02458500 0.00974200 -0.01110000
v 0.02400000 0.00980000 -0.01110000
v 0.00809600 0.00577500 -0.01350000
v 0.00800000 0.00480000 -0.01350000
v 0.01300000 0.00980000 -0.01350000
v 0.00809600 -0.00577500 -0.01350000
v 0.01300000 -0.00980000 -0.01350000
v 0.00800000 -0.00480000 -0.01350000
v 0.01022200 -0.00895700 -0.01350000
v 0.01108700 -0.00941900 -0.01350000
v 0.00946400 -0.00833600 -0.01350000
v 0.00884300 -0.00757800 -0.01350000
v 0.00838100 -0.00671300 -0.01350000
v 0.01202500 -0.00970400 -0.01350000
v 0.01202500 0.00970400 -0.01350000
v 0.01108700 0.00941900 -0.01350000
v 0.00884300 0.00757800 -0.01350000
v 0.01022200 0.00895700 -0.01350000
v 0.00946400 0.00833600 -0.01350000
v 0.00838100 0.00671300 -0.01350000
v -0.00380000 -0.00980000 -0.01080000
v 0.01300000 -0.00980000 -0.01080000
v 0.01202500 -0.00970400 -0.01080000
v 0.01108700 -0.00941900 -0.01080000
v 0.01022200 -0.00895700 -0.01080000
v 0.00946400 -0.00833600 -0.01080000
v 0.00884300 0.00757800 -0.01080000
v 0.00946400 0.00833600 -0.01080000
v -0.00380000 0.00980000 -0.01080000
v 0.01022200 0.00895700 -0.01080000
v 0.00884300 -0.00757800 -0.01080000
v 0.00838100 -0.00671300 -0.01080000
v -0.00477500 -0.00970400 -0.01080000
v 0.00809600 -0.00577500 -0.01080000
v -0.00571300 -0.00941900 -0.01080000
v 0.01108700 0.00941900 -0.01080000
v 0.01202500 0.00970400 -0.01080000
v 0.01300000 0.00980000 -0.01080000
v 0.00800000 -0.00480000 -0.01080000
v -0.00870400 -0.00577500 -0.01080000
v -0.00841900 -0.00671300 -0.01080000
v -0.00477500 0.00970400 -0.01080000
v 0.00809600 0.00577500 -0.01080000
v 0.00838100 0.00671300 -0.01080000
v -0.00795700 -0.00757800 -0.01080000
v -0.00733600 -0.00833600 -0.01080000
v -0.00657800 -0.00895700 -0.01080000
v -0.00880000 -0.00480000 -0.01080000
v 0.00800000 0.00480000 -0.01080000
v -0.00880000 0.00480000 -0.01080000
v -0.00795700 0.00757800 -0.01080000
v -0.00841900 0.00671300 -0.01080000
v -0.00870400 0.00577500 -0.01080000
v -0.00571300 0.00941900 -0.01080000
v -0.00657800 0.00895700 -0.01080000
v -0.00733600 0.00833600 -0.01080000
v 0.02400000 -0.00980000 -0.01110000
v 0.02458500 -0.00974200 -0.01110000
v 0.02514800 -0.00957200 -0.01110000
v 0.02566700 -0.00929400 -0.01110000
v 0.02612100 -0.00892100 -0.01110000
v 0.02649400 -0.00846700 -0.01110000
v 0.02677200 -0.00794800 -0.01110000
v 0.02694200 -0.00738500 -0.01110000
f 3 2 1
f 3 4 2
f 5 4 3
f 5 6 4
f 5 1 7
f 5 3 1
f 7 6 5
f 7 8 6
f 2 6 8
f 2 4 6
f 1 8 7
f 1 2 8
f 11 10 9
f 11 12 10
f 13 12 11
f 13 14 12
f 13 9 15
f 13 11 9
f 15 14 13
f 15 16 14
f 10 14 16
f 10 12 14
f 9 16 15
f 9 10 16
f 19 18 17
f 19 20 18
f 23 22 21
f 23 17 22
f 24 17 23
f 19 26 25
f 19 27 26
f 19 28 27
f 19 29 28
f 17 29 19
f 17 30 29
f 24 30 17
f 33 32 31
f 20 35 34
f 20 37 36
f 20 38 37
f 39 38 20
f 20 40 39
f 20 32 40
f 34 32 20
f 42 41 40
f 32 44 43
f 45 33 31
f 48 47 46
f 50 25 49
f 50 19 25
f 32 42 40
f 32 51 42
f 43 51 32
f 32 52 44
f 32 53 52
f 33 53 32
f 20 46 35
f 20 48 46
f 19 48 20
f 19 54 48
f 50 54 19
f 57 56 55
f 58 33 45
f 58 59 33
f 60 59 58
f 60 61 59
f 56 61 60
f 56 62 61
f 57 62 56
f 65 64 63
f 65 62 64
f 66 62 65
f 66 61 62
f 57 68 67
f 57 69 68
f 55 69 57
f 70 20 36
f 70 71 20
f 73 18 72
f 73 74 18
f 75 74 73
f 18 76 72
f 18 77 76
f 20 77 18
f 20 78 77
f 71 78 20
f 81 80 79
f 81 82 80
f 83 82 81
f 83 84 82
f 85 84 83
f 85 86 84
f 87 86 85
f 87 88 86
f 89 88 87
f 89 90 88
f 91 90 89
f 91 92 90
f 93 92 91
f 93 94 92
f 95 94 93
f 95 96 94
f 97 96 95
f 97 98 96
f 101 100 99
f 102 101 99
f 102 103 101
f 104 103 102
f 104 105 103
f 106 105 104
f 106 97 105
f 98 97 106
f 109 108 107
f 109 110 108
f 111 107 108
f 111 112 107
f 113 112 111
f 113 114 112
f 115 114 113
f 115 116 114
f 117 116 115
f 117 118 116
f 119 118 117
f 119 120 118
f 121 120 119
f 121 122 120
f 123 122 121
f 123 124 122
f 125 124 123
f 125 126 124
f 127 126 125
f 127 128 126
f 131 130 129
f 131 132 130
f 133 132 131
f 133 134 132
f 128 134 133
f 128 127 134
f 136 130 135
f 136 129 130
f 28 29 77
f 78 28 77
f 78 27 28
f 71 27 78
f 24 23 73
f 72 24 73
f 72 30 24
f 76 30 72
f 29 76 77
f 29 30 76
f 139 138 137
f 139 140 138
f 141 140 139
f 141 142 140
f 143 142 141
f 143 144 142
f 143 145 144
f 143 146 145
f 145 74 75
f 145 146 74
f 136 21 22
f 136 135 21
f 137 79 80
f 137 138 79
f 64 62 147
f 148 64 147
f 148 63 64
f 149 63 148
f 149 65 63
f 150 65 149
f 150 66 65
f 151 66 150
f 147 57 152
f 147 62 57
f 69 55 153
f 154 69 153
f 154 68 69
f 155 68 154
f 155 67 68
f 156 67 155
f 156 57 67
f 152 57 156
f 153 56 157
f 153 55 56
f 60 157 56
f 60 158 157
f 58 158 60
f 58 159 158
f 45 159 58
f 45 160 159
f 31 160 45
f 31 161 160
f 32 161 31
f 32 162 161
f 34 162 32
f 34 163 162
f 35 163 34
f 35 164 163
f 46 164 35
f 46 165 164
f 47 165 46
f 47 166 165
f 168 50 167
f 168 54 50
f 169 54 168
f 169 48 54
f 166 48 169
f 166 47 48
f 50 170 167
f 50 49 170
f 170 25 26
f 170 49 25
f 37 70 36
f 37 171 70
f 37 172 171
f 37 38 172
f 173 110 109
f 174 173 109
f 174 175 173
f 176 175 174
f 176 177 175
f 178 177 176
f 178 179 177
f 180 179 178
f 91 119 117
f 73 123 121
f 73 145 75
f 73 144 145
f 142 144 73
f 73 140 142
f 73 119 140
f 121 119 73
f 79 138 140
f 119 85 83
f 115 91 117
f 134 127 125
f 130 21 135
f 130 23 21
f 119 79 140
f 119 81 79
f 83 81 119
f 119 87 85
f 119 89 87
f 91 89 119
f 73 125 123
f 73 134 125
f 23 134 73
f 23 132 134
f 130 132 23
f 179 108 110
f 113 91 115
f 113 93 91
f 111 93 113
f 111 95 93
f 108 95 111
f 108 100 95
f 179 100 108
f 105 101 103
f 105 100 101
f 97 100 105
f 97 95 100
f 179 175 177
f 179 173 175
f 110 173 179
f 182 41 181
f 182 40 41
f 183 40 182
f 183 39 40
f 172 39 183
f 172 38 39
f 179 99 100
f 179 180 99
f 126 128 133
f 136 22 17
f 92 118 120
f 92 116 118
f 17 90 92
f 17 88 90
f 17 86 88
f 17 84 86
f 82 84 17
f 139 137 80
f 143 74 146
f 143 18 74
f 17 80 82
f 17 139 80
f 18 139 17
f 18 141 139
f 143 141 18
f 17 129 136
f 17 131 129
f 133 131 17
f 17 126 133
f 17 124 126
f 92 124 17
f 92 122 124
f 120 122 92
f 99 96 98
f 92 114 116
f 92 112 114
f 94 112 92
f 94 107 112
f 96 107 94
f 96 180 107
f 99 180 96
f 174 178 176
f 174 180 178
f 109 180 174
f 109 107 180
f 99 104 102
f 99 106 104
f 98 106 99
f 181 42 184
f 181 41 42
f 51 184 42
f 51 185 184
f 43 185 51
f 43 186 185
f 44 186 43
f 44 187 186
f 52 187 44
f 52 188 187
f 53 188 52
f 53 189 188
f 33 189 53
f 33 190 189
f 59 190 33
f 59 191 190
f 61 191 59
f 61 192 191
f 66 192 61
f 66 151 192
f 71 164 165
f 170 26 27
f 162 187 188
f 160 161 190
f 27 167 170
f 27 168 167
f 71 168 27
f 71 169 168
f 165 169 71
f 165 166 169
f 162 190 161
f 162 189 190
f 188 189 162
f 162 186 187
f 162 185 186
f 184 185 162
f 172 70 171
f 172 71 70
f 183 71 172
f 183 182 71
f 147 192 151
f 71 163 164
f 71 162 163
f 182 162 71
f 182 184 162
f 181 184 182
f 190 159 160
f 190 158 159
f 191 158 190
f 191 157 158
f 192 157 191
f 192 152 157
f 147 152 192
f 154 156 155
f 154 152 156
f 153 152 154
f 153 157 152
f 147 149 148
f 147 150 149
f 151 150 147
f 195 194 193
f 195 196 194
f 199 198 197
f 199 200 198
f 203 202 201
f 203 204 202
f 205 204 203
f 205 206 204
f 199 206 205
f 199 197 206
f 209 208 207
f 210 209 207
f 210 211 209
f 212 211 210
f 212 213 211
f 214 213 212
f 214 215 213
f 216 215 214
f 216 217 215
f 218 217 216
f 218 219 217
f 220 219 218
f 220 221 219
f 222 221 220
f 222 223 221
f 224 223 222
f 226 202 225
f 226 201 202
f 3 2 4
f 3 1 2
f 229 228 227
f 229 230 228
f 3 229 231
f 3 230 229
f 4 230 3
f 4 232 230
f 234 198 233
f 237 236 235
f 238 237 235
f 239 198 234
f 204 206 197
f 225 241 240
f 225 194 241
f 193 194 225
f 193 243 242
f 193 239 243
f 193 198 239
f 225 198 193
f 225 197 198
f 202 197 225
f 202 204 197
f 193 237 238
f 193 244 237
f 242 244 193
f 247 246 245
f 247 248 246
f 249 248 247
f 234 247 245
f 234 250 247
f 233 250 234
f 224 251 223
f 224 252 251
f 255 254 253
f 253 256 255
f 253 257 256
f 258 257 253
f 228 260 259
f 228 261 260
f 253 262 258
f 253 263 262
f 264 263 253
f 264 265 263
f 266 265 264
f 228 267 261
f 228 268 267
f 230 268 228
f 271 270 269
f 228 273 272
f 228 274 273
f 259 274 228
f 269 275 271
f 269 276 275
f 265 276 269
f 265 277 276
f 266 277 265
f 278 269 270
f 278 279 269
f 280 279 278
f 279 282 281
f 279 283 282
f 280 283 279
f 273 284 272
f 273 285 284
f 279 285 273
f 279 286 285
f 281 286 279
f 238 195 193
f 238 287 195
f 235 287 238
f 235 288 287
f 236 288 235
f 236 289 288
f 237 289 236
f 237 290 289
f 244 290 237
f 244 291 290
f 242 291 244
f 242 292 291
f 243 292 242
f 243 293 292
f 239 293 243
f 239 294 293
f 232 296 295
f 299 298 297
f 299 2 298
f 296 2 299
f 296 4 2
f 232 4 296
f 302 301 300
f 302 303 301
f 298 304 297
f 298 303 304
f 305 303 298
f 305 301 303
f 308 307 306
f 308 309 307
f 310 309 308
f 232 308 306
f 232 311 308
f 295 311 232
f 312 251 252
f 313 312 252
f 313 314 312
f 315 314 313
f 315 316 314
f 317 316 315
f 317 318 316
f 319 318 317
f 319 320 318
f 321 320 319
f 321 322 320
f 323 322 321
f 323 324 322
f 325 324 323
f 325 229 324
f 231 229 325
f 326 194 196
f 326 241 194
f 327 241 326
f 327 240 241
f 226 240 327
f 226 225 240
f 295 296 279
f 273 295 279
f 273 311 295
f 274 311 273
f 274 308 311
f 259 308 274
f 259 310 308
f 260 310 259
f 260 309 310
f 261 309 260
f 261 307 309
f 267 307 261
f 267 306 307
f 268 306 267
f 268 232 306
f 230 232 268
f 245 328 234
f 245 329 328
f 246 329 245
f 246 330 329
f 248 330 246
f 248 331 330
f 249 331 248
f 249 332 331
f 247 332 249
f 247 333 332
f 250 333 247
f 250 334 333
f 233 334 250
f 233 335 334
f 198 335 233
f 198 200 335
f 279 299 269
f 279 296 299
f 280 337 336
f 280 278 337
f 328 239 234
f 328 294 239
f 265 269 299
f 297 265 299
f 297 263 265
f 304 263 297
f 304 262 263
f 303 262 304
f 303 258 262
f 302 258 303
f 302 257 258
f 300 257 302
f 300 256 257
f 301 256 300
f 301 255 256
f 305 255 301
f 305 254 255
f 298 254 305
f 195 200 199
f 196 327 326
f 196 226 327
f 335 200 328
f 201 205 203
f 201 199 205
f 226 199 201
f 226 195 199
f 196 195 226
f 331 333 330
f 331 332 333
f 328 334 335
f 328 333 334
f 329 333 328
f 329 330 333
f 195 328 200
f 195 294 328
f 293 294 195
f 195 289 290
f 195 288 289
f 287 288 195
f 195 292 293
f 195 291 292
f 290 291 195
f 338 227 228
f 272 338 228
f 272 339 338
f 284 339 272
f 284 340 339
f 285 340 284
f 285 341 340
f 286 341 285
f 286 342 341
f 281 342 286
f 281 343 342
f 282 343 281
f 282 344 343
f 283 344 282
f 283 336 344
f 280 336 283
f 1 208 345
f 1 207 208
f 254 345 253
f 254 1 345
f 298 1 254
f 298 2 1
f 251 229 227
f 336 227 338
f 336 251 227
f 337 251 336
f 337 223 251
f 251 324 229
f 251 322 324
f 312 322 251
f 312 314 322
f 322 318 320
f 322 316 318
f 314 316 322
f 337 208 223
f 337 345 208
f 346 345 337
f 346 347 345
f 348 347 346
f 339 336 338
f 339 344 336
f 343 344 339
f 339 342 343
f 339 341 342
f 340 341 339
f 208 221 223
f 208 219 221
f 209 219 208
f 209 217 219
f 209 215 217
f 209 213 215
f 211 213 209
f 346 349 348
f 346 350 349
f 351 350 346
f 351 352 350
f 346 337 278
f 270 346 278
f 270 351 346
f 271 351 270
f 271 352 351
f 275 352 271
f 275 350 352
f 276 350 275
f 276 349 350
f 277 349 276
f 277 348 349
f 266 348 277
f 266 347 348
f 264 347 266
f 264 345 347
f 253 345 264
f 207 224 222
f 252 231 325
f 252 3 231
f 224 3 252
f 224 1 3
f 207 1 224
f 323 252 325
f 323 313 252
f 315 313 323
f 323 317 315
f 323 319 317
f 321 319 323
f 220 207 222
f 220 210 207
f 212 210 220
f 220 214 212
f 220 216 214
f 218 216 220
f 223 208 345
f 337 345 347
f 337 223 345
f 336 223 337
f 336 251 223
f 223 209 208
f 223 211 209
f 221 211 223
f 221 219 211
f 211 215 213
f 211 217 215
f 219 217 211
f 336 229 251
f 336 227 229
f 344 227 336
f 344 338 227
f 339 338 344
f 348 337 347
f 348 346 337
f 351 346 348
f 348 352 351
f 348 350 352
f 349 350 348
f 229 312 251
f 229 314 312
f 324 314 229
f 324 316 314
f 324 318 316
f 324 320 318
f 322 320 324
f 344 340 339
f 344 341 340
f 343 341 344
f 343 342 341
f 221 223 353
f 354 221 353
f 354 219 221
f 355 219 354
f 355 217 219
f 356 217 355
f 356 215 217
f 357 215 356
f 357 213 215
f 358 213 357
f 358 211 213
f 359 211 358
f 359 209 211
f 360 209 359
f 360 208 209
f 361 208 360
f 364 363 362
f 365 363 353
f 365 366 363
f 367 363 364
f 370 369 368
f 370 371 369
f 366 371 370
f 365 371 366
f 365 372 371
f 373 372 365
f 354 359 355
f 354 353 359
f 353 360 359
f 353 361 360
f 363 361 353
f 363 374 361
f 367 374 363
f 377 376 375
f 359 356 355
f 359 357 356
f 358 357 359
f 380 379 378
f 364 380 378
f 364 381 380
f 362 381 364
f 370 377 375
f 370 382 377
f 368 382 370
f 383 372 373
f 383 384 372
f 385 384 383
f 383 386 385
f 383 387 386
f 388 387 383
f 223 365 353
f 223 251 365
f 347 345 374
f 367 347 374
f 367 348 347
f 364 348 367
f 364 349 348
f 378 349 364
f 378 350 349
f 379 350 378
f 379 352 350
f 380 352 379
f 380 351 352
f 381 351 380
f 381 346 351
f 362 346 381
f 362 337 346
f 363 337 362
f 345 361 374
f 345 208 361
f 363 336 337
f 363 366 336
f 344 336 366
f 370 344 366
f 370 343 344
f 375 343 370
f 375 342 343
f 376 342 375
f 376 341 342
f 377 341 376
f 377 340 341
f 382 340 377
f 382 339 340
f 368 339 382
f 368 338 339
f 369 338 368
f 369 227 338
f 371 227 369
f 371 229 227
f 371 372 229
f 324 229 372
f 384 324 372
f 384 322 324
f 385 322 384
f 385 320 322
f 386 320 385
f 386 318 320
f 387 318 386
f 387 316 318
f 388 316 387
f 388 314 316
f 383 314 388
f 383 312 314
f 373 312 383
f 373 251 312
f 365 251 373
f 391 390 389
f 389 392 391
f 389 393 392
f 394 393 389
f 397 396 395
f 397 398 396
f 389 399 394
f 389 400 399
f 401 400 389
f 401 402 400
f 403 402 401
f 397 404 398
f 397 405 404
f 406 405 397
f 409 408 407
f 397 411 410
f 397 412 411
f 395 412 397
f 407 413 409
f 407 414 413
f 402 414 407
f 402 415 414
f 403 415 402
f 416 407 408
f 416 417 407
f 418 417 416
f 417 420 419
f 417 421 420
f 418 421 417
f 411 422 410
f 411 423 422
f 417 423 411
f 417 424 423
f 419 424 417
f 384 372 425
f 426 384 425
f 426 385 384
f 427 385 426
f 427 386 385
f 428 386 427
f 428 387 386
f 429 387 428
f 429 388 387
f 430 388 429
f 430 383 388
f 431 383 430
f 431 373 383
f 432 373 431
f 432 365 373
f 433 365 432
f 425 433 432
f 436 435 434
f 436 15 435
f 433 15 436
f 433 13 15
f 425 13 433
f 437 436 434
f 437 438 436
f 439 438 437
f 437 440 439
f 437 441 440
f 442 441 437
f 431 425 432
f 431 426 425
f 427 426 431
f 431 428 427
f 431 429 428
f 430 429 431
f 13 372 371
f 13 425 372
f 390 371 389
f 390 13 371
f 443 13 390
f 443 14 13
f 370 366 416
f 408 370 416
f 408 375 370
f 409 375 408
f 409 376 375
f 413 376 409
f 413 377 376
f 414 377 413
f 414 382 377
f 415 382 414
f 415 368 382
f 403 368 415
f 403 369 368
f 401 369 403
f 401 371 369
f 389 371 401
f 418 366 363
f 418 416 366
f 361 397 374
f 361 406 397
f 15 361 435
f 15 406 361
f 16 406 15
f 16 444 406
f 367 374 397
f 410 367 397
f 410 364 367
f 422 364 410
f 422 378 364
f 423 378 422
f 423 379 378
f 424 379 423
f 424 380 379
f 419 380 424
f 419 381 380
f 420 381 419
f 420 362 381
f 421 362 420
f 421 363 362
f 418 363 421
f 354 353 436
f 438 354 436
f 438 355 354
f 439 355 438
f 439 356 355
f 440 356 439
f 440 357 356
f 441 357 440
f 441 358 357
f 442 358 441
f 442 359 358
f 437 359 442
f 437 360 359
f 434 360 437
f 434 361 360
f 435 361 434
f 446 445 417
f 411 446 417
f 411 447 446
f 412 447 411
f 412 448 447
f 395 448 412
f 395 449 448
f 396 449 395
f 396 450 449
f 398 450 396
f 398 451 450
f 404 451 398
f 404 452 451
f 405 452 404
f 405 444 452
f 406 444 405
f 353 433 436
f 353 365 433
f 444 445 446
f 454 443 453
f 454 14 443
f 445 14 454
f 445 16 14
f 444 16 445
f 457 456 455
f 457 458 456
f 443 459 453
f 443 458 459
f 460 458 443
f 460 456 458
f 448 451 452
f 448 450 451
f 449 450 448
f 444 448 452
f 444 447 448
f 446 447 444
f 417 454 407
f 417 445 454
f 402 407 454
f 453 402 454
f 453 400 402
f 459 400 453
f 459 399 400
f 458 399 459
f 458 394 399
f 457 394 458
f 457 393 394
f 455 393 457
f 455 392 393
f 456 392 455
f 456 391 392
f 460 391 456
f 460 390 391
f 443 390 460
f 353 361 374
f 363 374 367
f 363 353 374
f 366 353 363
f 366 365 353
f 353 360 361
f 353 359 360
f 354 359 353
f 354 355 359
f 359 357 358
f 359 356 357
f 355 356 359
f 366 372 365
f 366 371 372
f 370 371 366
f 370 369 371
f 368 369 370
f 364 363 367
f 364 362 363
f 381 362 364
f 364 380 381
f 364 379 380
f 378 379 364
f 372 373 365
f 372 383 373
f 384 383 372
f 384 388 383
f 384 387 388
f 384 386 387
f 385 386 384
f 370 382 368
f 370 377 382
f 375 377 370
f 375 376 377
f 15 14 16
f 15 13 14
f 463 462 461
f 463 464 462
f 467 466 465
f 467 468 466
f 11 467 469
f 11 468 467
f 12 468 11
f 12 470 468
f 11 10 12
f 11 9 10
f 473 472 471
f 471 474 473
f 471 475 474
f 476 475 471
f 466 478 477
f 466 479 478
f 471 480 476
f 471 481 480
f 482 481 471
f 482 483 481
f 484 483 482
f 466 485 479
f 466 486 485
f 468 486 466
f 488 487 461
f 466 490 489
f 466 491 490
f 477 491 466
f 461 492 488
f 461 493 492
f 483 493 461
f 483 494 493
f 484 494 483
f 495 461 487
f 495 463 461
f 496 463 495
f 463 498 497
f 463 499 498
f 496 499 463
f 490 500 489
f 490 501 500
f 463 501 490
f 463 502 501
f 497 502 463
f 503 465 466
f 489 503 466
f 489 504 503
f 500 504 489
f 500 505 504
f 501 505 500
f 501 506 505
f 502 506 501
f 502 507 506
f 497 507 502
f 497 508 507
f 498 508 497
f 498 509 508
f 499 509 498
f 499 510 509
f 496 510 499
f 483 461 462
f 511 483 462
f 511 481 483
f 512 481 511
f 512 480 481
f 513 480 512
f 513 476 480
f 514 476 513
f 514 475 476
f 515 475 514
f 515 474 475
f 516 474 515
f 516 473 474
f 517 473 516
f 517 472 473
f 518 472 517
f 365 467 465
f 510 465 503
f 510 365 465
f 519 365 510
f 519 353 365
f 365 520 467
f 365 521 520
f 522 521 365
f 522 523 521
f 521 525 524
f 521 526 525
f 523 526 521
f 519 527 353
f 519 528 527
f 529 528 519
f 529 530 528
f 531 530 529
f 504 510 503
f 504 509 510
f 508 509 504
f 504 507 508
f 504 506 507
f 505 506 504
f 527 532 353
f 527 533 532
f 534 533 527
f 534 535 533
f 534 536 535
f 534 537 536
f 538 537 534
f 529 539 531
f 529 540 539
f 541 540 529
f 541 542 540
f 470 464 543
f 462 518 511
f 462 10 518
f 464 10 462
f 464 12 10
f 470 12 464
f 514 516 515
f 514 513 516
f 518 512 511
f 518 513 512
f 517 513 518
f 517 516 513
f 546 545 544
f 546 547 545
f 548 547 546
f 470 546 544
f 470 549 546
f 543 549 470
f 495 510 496
f 495 519 510
f 543 464 463
f 490 543 463
f 490 549 543
f 491 549 490
f 491 546 549
f 477 546 491
f 477 548 546
f 478 548 477
f 478 547 548
f 479 547 478
f 479 545 547
f 485 545 479
f 485 544 545
f 486 544 485
f 486 470 544
f 468 470 486
f 365 436 433
f 365 353 436
f 529 519 495
f 487 529 495
f 487 541 529
f 488 541 487
f 488 542 541
f 492 542 488
f 492 540 542
f 493 540 492
f 493 539 540
f 494 539 493
f 494 531 539
f 484 531 494
f 484 530 531
f 482 530 484
f 482 528 530
f 471 528 482
f 528 471 472
f 9 550 527
f 9 518 10
f 9 472 518
f 527 472 9
f 527 528 472
f 534 527 550
f 551 534 550
f 551 538 534
f 552 538 551
f 552 537 538
f 553 537 552
f 553 536 537
f 554 536 553
f 554 535 536
f 555 535 554
f 555 533 535
f 556 533 555
f 556 532 533
f 557 532 556
f 557 353 532
f 436 353 557
f 522 365 433
f 558 522 433
f 558 523 522
f 559 523 558
f 559 526 523
f 560 526 559
f 560 525 526
f 561 525 560
f 561 524 525
f 562 524 561
f 562 521 524
f 563 521 562
f 563 520 521
f 564 520 563
f 564 467 520
f 469 467 564
f 550 436 557
f 433 469 564
f 433 11 469
f 436 11 433
f 436 9 11
f 550 9 436
f 563 433 564
f 563 558 433
f 559 558 563
f 563 560 559
f 563 561 560
f 562 561 563
f 556 550 557
f 556 551 550
f 552 551 556
f 556 553 552
f 556 554 553
f 555 554 556
f 251 566 565
f 568 565 567
f 568 251 565
f 569 251 568
f 569 223 251
f 251 570 566
f 251 571 570
f 572 571 251
f 572 573 571
f 571 575 574
f 571 576 575
f 573 576 571
f 569 577 223
f 569 578 577
f 579 578 569
f 579 580 578
f 581 580 579
f 582 568 567
f 582 583 568
f 584 583 582
f 582 585 584
f 582 586 585
f 587 586 582
f 577 588 223
f 577 589 588
f 590 589 577
f 590 591 589
f 590 592 591
f 590 593 592
f 594 593 590
f 579 595 581
f 579 596 595
f 597 596 579
f 597 598 596
f 572 251 365
f 522 572 365
f 522 573 572
f 523 573 522
f 523 576 573
f 526 576 523
f 526 575 576
f 525 575 526
f 525 574 575
f 524 574 525
f 524 571 574
f 521 571 524
f 521 570 571
f 520 570 521
f 520 566 570
f 467 566 520
f 504 510 509
f 353 510 365
f 353 519 510
f 503 510 504
f 529 530 531
f 529 528 530
f 519 528 529
f 353 528 519
f 353 527 528
f 532 527 353
f 522 521 523
f 522 365 521
f 365 520 521
f 365 467 520
f 510 467 365
f 510 465 467
f 503 465 510
f 540 542 541
f 521 526 523
f 521 525 526
f 524 525 521
f 507 506 505
f 504 507 505
f 504 508 507
f 509 508 504
f 529 540 541
f 529 539 540
f 531 539 529
f 533 527 532
f 533 534 527
f 538 534 533
f 533 537 538
f 533 536 537
f 535 536 533
f 251 353 365
f 251 223 353
f 567 565 465
f 503 567 465
f 503 582 567
f 504 582 503
f 504 587 582
f 505 587 504
f 505 586 587
f 506 586 505
f 506 585 586
f 507 585 506
f 507 584 585
f 508 584 507
f 508 583 584
f 509 583 508
f 509 568 583
f 510 568 509
f 565 467 465
f 565 566 467
f 510 569 568
f 510 519 569
f 579 569 519
f 529 579 519
f 529 597 579
f 541 597 529
f 541 598 597
f 542 598 541
f 542 596 598
f 540 596 542
f 540 595 596
f 539 595 540
f 539 581 595
f 531 581 539
f 531 580 581
f 530 580 531
f 530 578 580
f 528 578 530
f 528 577 578
f 528 527 577
f 590 577 527
f 534 590 527
f 534 594 590
f 538 594 534
f 538 593 594
f 537 593 538
f 537 592 593
f 536 592 537
f 536 591 592
f 535 591 536
f 535 589 591
f 533 589 535
f 533 588 589
f 532 588 533
f 532 223 588
f 353 223 532
f 601 600 599
f 601 602 600
f 603 602 601
f 603 604 602
f 605 604 603
f 605 606 604
f 607 606 605
f 607 608 606
f 609 608 607
f 609 610 608
f 611 610 609
f 611 612 610
f 613 612 611
f 613 614 612
f 615 614 613
f 615 616 614
f 618 615 617
f 618 616 615
f 621 620 619
f 621 622 620
f 623 621 619
f 623 624 621
f 625 624 623
f 625 626 624
f 627 626 625
f 627 628 626
f 629 628 627
f 629 630 628
f 631 630 629
f 631 632 630
f 633 632 631
f 633 634 632
f 635 634 633
f 635 636 634
f 637 636 635
f 637 638 636
f 600 637 599
f 600 638 637
f 641 640 639
f 641 642 640
f 643 642 641
f 643 644 642
f 618 644 643
f 618 617 644
f 645 620 622
f 645 646 620
f 647 646 645
f 647 648 646
f 649 648 647
f 649 650 648
f 649 640 650
f 649 639 640
f 621 616 618
f 614 616 600
f 622 647 645
f 622 649 647
f 606 610 604
f 606 608 610
f 600 612 614
f 600 610 612
f 602 610 600
f 602 604 610
f 639 643 641
f 639 618 643
f 649 618 639
f 649 621 618
f 622 621 649
f 621 600 616
f 621 638 600
f 636 638 621
f 621 628 630
f 621 626 628
f 624 626 621
f 621 634 636
f 621 632 634
f 630 632 621
f 588 223 224
f 651 588 224
f 651 589 588
f 652 589 651
f 652 591 589
f 653 591 652
f 653 592 591
f 654 592 653
f 654 593 592
f 655 593 654
f 655 594 593
f 656 594 655
f 656 590 594
f 657 590 656
f 657 577 590
f 658 577 657
f 661 660 659
f 664 663 662
f 664 6 663
f 660 6 664
f 660 8 6
f 661 8 660
f 667 666 665
f 667 668 666
f 663 669 662
f 663 668 669
f 670 668 663
f 670 666 668
f 673 672 671
f 673 674 672
f 675 674 673
f 661 673 671
f 661 676 673
f 659 676 661
f 252 223 251
f 252 224 223
f 679 678 677
f 677 680 679
f 677 681 680
f 682 681 677
f 685 684 683
f 685 686 684
f 677 687 682
f 677 688 687
f 689 688 677
f 689 690 688
f 691 690 689
f 685 692 686
f 685 693 692
f 694 693 685
f 697 696 695
f 685 699 698
f 685 700 699
f 683 700 685
f 695 701 697
f 695 702 701
f 690 702 695
f 690 703 702
f 691 703 690
f 704 695 696
f 704 705 695
f 706 705 704
f 705 708 707
f 705 709 708
f 706 709 705
f 699 710 698
f 699 711 710
f 705 711 699
f 705 712 711
f 707 712 705
f 5 566 565
f 5 713 566
f 678 565 677
f 678 5 565
f 663 5 678
f 663 6 5
f 570 566 713
f 714 570 713
f 714 571 570
f 715 571 714
f 715 574 571
f 716 574 715
f 716 575 574
f 717 575 716
f 717 576 575
f 718 576 717
f 718 573 576
f 719 573 718
f 719 572 573
f 720 572 719
f 720 251 572
f 252 251 720
f 659 660 705
f 699 659 705
f 699 676 659
f 700 676 699
f 700 673 676
f 683 673 700
f 683 675 673
f 684 675 683
f 684 674 675
f 686 674 684
f 686 672 674
f 692 672 686
f 692 671 672
f 693 671 692
f 693 661 671
f 694 661 693
f 705 664 695
f 705 660 664
f 690 695 664
f 662 690 664
f 662 688 690
f 669 688 662
f 669 687 688
f 668 687 669
f 668 682 687
f 667 682 668
f 667 681 682
f 665 681 667
f 665 680 681
f 666 680 665
f 666 679 680
f 670 679 666
f 670 678 679
f 663 678 670
f 583 568 704
f 696 583 704
f 696 584 583
f 697 584 696
f 697 585 584
f 701 585 697
f 701 586 585
f 702 586 701
f 702 587 586
f 703 587 702
f 703 582 587
f 691 582 703
f 691 567 582
f 689 567 691
f 689 565 567
f 677 565 689
f 7 6 8
f 7 5 6
f 577 685 578
f 577 694 685
f 7 577 658
f 7 694 577
f 8 694 7
f 8 661 694
f 223 577 578
f 569 578 580
f 569 223 578
f 568 223 569
f 568 251 223
f 223 590 577
f 223 594 590
f 588 594 223
f 588 589 594
f 594 592 593
f 594 591 592
f 589 591 594
f 568 566 251
f 568 565 566
f 583 565 568
f 583 567 565
f 582 567 583
f 581 569 580
f 581 579 569
f 597 579 581
f 581 598 597
f 581 596 598
f 595 596 581
f 566 572 251
f 566 573 572
f 570 573 566
f 570 576 573
f 570 575 576
f 570 574 575
f 571 574 570
f 583 587 582
f 583 586 587
f 584 586 583
f 584 585 586
f 599 615 613
f 629 627 625
f 623 629 625
f 637 615 599
f 642 644 617
f 650 646 648
f 650 620 646
f 619 620 650
f 619 635 633
f 619 637 635
f 619 615 637
f 650 615 619
f 650 617 615
f 640 617 650
f 640 642 617
f 619 629 623
f 619 631 629
f 633 631 619
f 609 603 601
f 609 605 603
f 607 605 609
f 599 609 601
f 599 611 609
f 613 611 599
f 706 568 569
f 706 704 568
f 580 578 685
f 698 580 685
f 698 581 580
f 710 581 698
f 710 595 581
f 711 595 710
f 711 596 595
f 712 596 711
f 712 598 596
f 707 598 712
f 707 597 598
f 708 597 707
f 708 579 597
f 709 579 708
f 709 569 579
f 706 569 709
f 713 252 720
f 224 658 657
f 224 7 658
f 252 7 224
f 252 5 7
f 713 5 252
f 656 224 657
f 656 651 224
f 652 651 656
f 656 653 652
f 656 654 653
f 655 654 656
f 719 713 720
f 719 714 713
f 715 714 719
f 719 716 715
f 719 717 716
f 718 717 719

