# https://github.com/mikedh/trimesh
v -0.00480000 0.03750000 0.00880000
v -0.00480000 0.03750000 -0.02700000
v 0.01480000 0.03750000 0.00880000
v 0.01480000 0.03750000 -0.02700000
v -0.00480000 0.03500000 0.00880000
v 0.01480000 0.03500000 0.00880000
v -0.00480000 0.03400000 -0.02280000
v 0.01480000 0.03400000 -0.02280000
v -0.00480000 0.03400000 -0.02700000
v 0.01480000 0.03400000 -0.02700000
v 0.01480000 0.03500000 -0.02280000
v -0.00480000 0.03500000 -0.02280000
v 0.01480000 0.01640000 0.00380000
v 0.01480000 0.01640000 -0.02400000
v 0.01180000 0.01640000 -0.02700000
v 0.01470400 0.01640000 0.00477500
v 0.00980000 0.01640000 0.00880000
v 0.00020000 0.01640000 0.00880000
v -0.00180000 0.01640000 -0.02700000
v 0.01474200 0.01640000 -0.02458500
v 0.01457200 0.01640000 -0.02514800
v 0.01238500 0.01640000 -0.02694200
v 0.01294800 0.01640000 -0.02677200
v 0.01429400 0.01640000 -0.02566700
v 0.01392100 0.01640000 -0.02612100
v 0.01346700 0.01640000 -0.02649400
v -0.00480000 0.01640000 -0.02400000
v -0.00480000 0.01640000 0.00380000
v -0.00077500 0.01640000 0.00870400
v -0.00470400 0.01640000 0.00477500
v -0.00441900 0.01640000 0.00571300
v 0.01441900 0.01640000 0.00571300
v 0.01077500 0.01640000 0.00870400
v 0.01171300 0.01640000 0.00841900
v 0.01257800 0.01640000 0.00795700
v 0.01333600 0.01640000 0.00733600
v 0.01395700 0.01640000 0.00657800
v -0.00238500 0.01640000 -0.02694200
v -0.00294800 0.01640000 -0.02677200
v -0.00474200 0.01640000 -0.02458500
v -0.00346700 0.01640000 -0.02649400
v -0.00392100 0.01640000 -0.02612100
v -0.00429400 0.01640000 -0.02566700
v -0.00457200 0.01640000 -0.02514800
v -0.00395700 0.01640000 0.00657800
v -0.00333600 0.01640000 0.00733600
v -0.00171300 0.01640000 0.00841900
v -0.00257800 0.01640000 0.00795700
v 0.01180000 0.02880000 -0.02700000
v 0.01238500 0.02880000 -0.02694200
v 0.01294800 0.02880000 -0.02677200
v 0.01346700 0.02880000 -0.02649400
v 0.01392100 0.02880000 -0.02612100
v 0.01429400 0.02880000 -0.02566700
v 0.01457200 0.02880000 -0.02514800
v 0.01474200 0.02880000 -0.02458500
v 0.01480000 0.02880000 -0.02400000
v 0.01077500 0.02880000 0.00870400
v 0.00980000 0.02880000 0.00880000
v 0.01441900 0.02880000 0.00571300
v -0.00180000 0.02880000 -0.02700000
v 0.00020000 0.02880000 0.00880000
v 0.01470400 0.02880000 0.00477500
v -0.00441900 0.02880000 0.00571300
v -0.00470400 0.02880000 0.00477500
v -0.00077500 0.02880000 0.00870400
v -0.00480000 0.02880000 0.00380000
v -0.00480000 0.02880000 -0.02400000
v -0.00238500 0.02880000 -0.02694200
v 0.01480000 0.02880000 0.00380000
v -0.00171300 0.02880000 0.00841900
v -0.00257800 0.02880000 0.00795700
v -0.00333600 0.02880000 0.00733600
v 0.01395700 0.02880000 0.00657800
v 0.01333600 0.02880000 0.00733600
v 0.01257800 0.02880000 0.00795700
v 0.01171300 0.02880000 0.00841900
v -0.00395700 0.02880000 0.00657800
v -0.00294800 0.02880000 -0.02677200
v -0.00474200 0.02880000 -0.02458500
v -0.00457200 0.02880000 -0.02514800
v -0.00429400 0.02880000 -0.02566700
v -0.00392100 0.02880000 -0.02612100
v -0.00346700 0.02880000 -0.02649400
v -0.00480000 0.03500000 -0.02270000
v 0.01480000 0.03500000 -0.02270000
v -0.00480000 0.02880000 -0.02700000
v -0.00480000 0.03400000 -0.02270000
v -0.00480000 0.02880000 0.00880000
v 0.01480000 0.02880000 0.00880000
v 0.01480000 0.02880000 -0.02700000
v 0.01480000 0.03400000 -0.02270000
v 0.01480000 0.00800000 0.00380000
v 0.01480000 0.00800000 -0.02270000
v -0.00480000 0.00800000 0.00380000
v -0.00480000 0.00800000 -0.02270000
v -0.00480000 0.01140000 0.00380000
v 0.01480000 0.01140000 0.00380000
v -0.00480000 0.01140000 -0.02270000
v -0.00480000 0.01140000 -0.02700000
v -0.00480000 0.01640000 -0.02700000
v -0.00480000 0.01640000 0.00880000
v -0.00480000 0.01140000 0.00880000
v 0.01480000 0.01140000 -0.02270000
v 0.01480000 0.01140000 -0.02700000
v 0.01480000 0.01640000 -0.02700000
v 0.01480000 0.01640000 0.00880000
v 0.01480000 0.01140000 0.00880000
v 0.02600000 0.01300000 0.00880000
v 0.02600000 -0.00600000 0.00880000
v 0.01480000 0.00800000 0.00880000
v -0.00700000 0.01300000 0.00880000
v -0.00480000 0.01300000 0.00880000
v -0.00480000 0.00800000 0.00880000
v -0.00086000 0.00390600 0.00880000
v -0.00168000 0.00363000 0.00880000
v -0.00242100 0.00318400 0.00880000
v -0.00304900 0.00259000 0.00880000
v -0.00353400 0.00187400 0.00880000
v -0.00800000 -0.00000000 0.00880000
v -0.00800000 0.01200000 0.00880000
v -0.00738300 0.01292400 0.00880000
v -0.00783100 0.01255600 0.00880000
v 0.01480000 0.02100000 0.00880000
v 0.01800000 0.02100000 0.00880000
v 0.01956100 0.02084600 0.00880000
v 0.02106100 0.02039100 0.00880000
v 0.02244500 0.01965200 0.00880000
v 0.02365700 0.01865700 0.00880000
v 0.02465200 0.01744500 0.00880000
v 0.02539100 0.01606100 0.00880000
v 0.02584600 0.01456100 0.00880000
v 0.00385400 0.00107000 0.00880000
v 0.00399400 0.00021700 0.00880000
v 0.00394700 -0.00064700 0.00880000
v 0.00353400 0.00187400 0.00880000
v 0.00304900 0.00259000 0.00880000
v 0.00242100 0.00318400 0.00880000
v 0.00168000 0.00363000 0.00880000
v 0.00086000 0.00390600 0.00880000
v 0.00000000 0.00400000 0.00880000
v 0.00000000 -0.00800000 0.00880000
v 0.00127700 -0.00379100 0.00880000
v 0.02400000 -0.00800000 0.00880000
v 0.00206200 -0.00342700 0.00880000
v 0.00275100 -0.00290400 0.00880000
v 0.02584800 -0.00676500 0.00880000
v 0.02566300 -0.00711100 0.00880000
v 0.00371600 -0.00148100 0.00880000
v -0.00385400 0.00107000 0.00880000
v -0.00399400 0.00021700 0.00880000
v -0.00784600 -0.00156100 0.00880000
v -0.00394700 -0.00064700 0.00880000
v -0.00739100 -0.00306100 0.00880000
v -0.00371600 -0.00148100 0.00880000
v -0.00665200 -0.00444500 0.00880000
v -0.00331100 -0.00224500 0.00880000
v -0.00565700 -0.00565700 0.00880000
v -0.00275100 -0.00290400 0.00880000
v -0.00444500 -0.00665200 0.00880000
v -0.00206200 -0.00342700 0.00880000
v -0.00306100 -0.00739100 0.00880000
v -0.00127700 -0.00379100 0.00880000
v -0.00156100 -0.00784600 0.00880000
v -0.00043200 -0.00397700 0.00880000
v 0.00043200 -0.00397700 0.00880000
v 0.02596200 -0.00639000 0.00880000
v 0.02541400 -0.00741400 0.00880000
v 0.02511100 -0.00766300 0.00880000
v 0.02476500 -0.00784800 0.00880000
v 0.00331100 -0.00224500 0.00880000
v 0.02439000 -0.00796200 0.00880000
v 0.00000000 -0.00400000 -0.03250000
v 0.00086000 -0.00390600 -0.02950000
v 0.00086000 -0.00390600 -0.03250000
v 0.00168000 -0.00363000 -0.02950000
v 0.00168000 -0.00363000 -0.03250000
v 0.00242100 -0.00318400 -0.02950000
v 0.00242100 -0.00318400 -0.03250000
v 0.00304900 -0.00259000 -0.02950000
v 0.00304900 -0.00259000 -0.03250000
v 0.00353400 -0.00187400 -0.02950000
v 0.00353400 -0.00187400 -0.03250000
v 0.00385400 -0.00107000 -0.02950000
v 0.00385400 -0.00107000 -0.03250000
v 0.00399400 -0.00021700 -0.02950000
v 0.00399400 -0.00021700 -0.03250000
v 0.00394700 0.00064700 -0.02950000
v 0.00394700 0.00064700 -0.03250000
v 0.00371600 0.00148100 -0.02950000
v 0.00371600 0.00148100 -0.03250000
v 0.00331100 0.00224500 -0.02950000
v 0.00331100 0.00224500 -0.03250000
v 0.00275100 0.00290400 -0.02950000
v 0.00275100 0.00290400 -0.03250000
v 0.00206200 0.00342700 -0.02950000
v 0.00206200 0.00342700 -0.03250000
v 0.00127700 0.00379100 -0.02950000
v 0.00127700 0.00379100 -0.03250000
v 0.00043200 0.00397700 -0.02950000
v 0.00043200 0.00397700 -0.03250000
v -0.00043200 0.00397700 -0.02950000
v -0.00043200 0.00397700 -0.03250000
v -0.00127700 0.00379100 -0.02950000
v -0.00127700 0.00379100 -0.03250000
v -0.00206200 0.00342700 -0.02950000
v -0.00206200 0.00342700 -0.03250000
v -0.00275100 0.00290400 -0.02950000
v -0.00275100 0.00290400 -0.03250000
v -0.00331100 0.00224500 -0.02950000
v -0.00331100 0.00224500 -0.03250000
v -0.00371600 0.00148100 -0.02950000
v -0.00371600 0.00148100 -0.03250000
v -0.00394700 0.00064700 -0.02950000
v -0.00394700 0.00064700 -0.03250000
v -0.00399400 -0.00021700 -0.02950000
v -0.00399400 -0.00021700 -0.03250000
v -0.00385400 -0.00107000 -0.02950000
v -0.00385400 -0.00107000 -0.03250000
v -0.00353400 -0.00187400 -0.02950000
v -0.00353400 -0.00187400 -0.03250000
v -0.00304900 -0.00259000 -0.02950000
v -0.00304900 -0.00259000 -0.03250000
v -0.00242100 -0.00318400 -0.02950000
v -0.00242100 -0.00318400 -0.03250000
v -0.00168000 -0.00363000 -0.02950000
v -0.00168000 -0.00363000 -0.03250000
v -0.00086000 -0.00390600 -0.02950000
v -0.00086000 -0.00390600 -0.03250000
v 0.00000000 -0.00400000 -0.02950000
v 0.02600000 -0.00600000 0.00280000
v 0.02596200 -0.00639000 0.00280000
v 0.02584800 -0.00676500 0.00280000
v 0.02566300 -0.00711100 0.00280000
v 0.02541400 -0.00741400 0.00280000
v 0.02511100 -0.00766300 0.00280000
v 0.02476500 -0.00784800 0.00280000
v 0.02439000 -0.00796200 0.00280000
v 0.02400000 -0.00800000 0.00280000
v 0.00000000 -0.00750000 -0.02900000
v 0.00161200 -0.00732500 -0.02700000
v 0.00161200 -0.00732500 -0.02900000
v 0.00314900 -0.00680700 -0.02700000
v 0.00314900 -0.00680700 -0.02900000
v 0.00453900 -0.00597100 -0.02700000
v 0.00453900 -0.00597100 -0.02900000
v 0.00571600 -0.00485500 -0.02700000
v 0.00571600 -0.00485500 -0.02900000
v 0.00662600 -0.00351300 -0.02700000
v 0.00662600 -0.00351300 -0.02900000
v 0.00722700 -0.00200600 -0.02700000
v 0.00722700 -0.00200600 -0.02900000
v 0.00748900 -0.00040600 -0.02700000
v 0.00748900 -0.00040600 -0.02900000
v 0.00740100 0.00121300 -0.02700000
v 0.00740100 0.00121300 -0.02900000
v 0.00696700 0.00277600 -0.02700000
v 0.00696700 0.00277600 -0.02900000
v 0.00620800 0.00420900 -0.02700000
v 0.00620800 0.00420900 -0.02900000
v 0.00515800 0.00544500 -0.02700000
v 0.00515800 0.00544500 -0.02900000
v 0.00386700 0.00642600 -0.02700000
v 0.00386700 0.00642600 -0.02900000
v 0.00239500 0.00710700 -0.02700000
v 0.00239500 0.00710700 -0.02900000
v 0.00081100 0.00745600 -0.02700000
v 0.00081100 0.00745600 -0.02900000
v -0.00081100 0.00745600 -0.02700000
v -0.00081100 0.00745600 -0.02900000
v -0.00239500 0.00710700 -0.02700000
v -0.00239500 0.00710700 -0.02900000
v -0.00386700 0.00642600 -0.02700000
v -0.00386700 0.00642600 -0.02900000
v -0.00515800 0.00544500 -0.02700000
v -0.00515800 0.00544500 -0.02900000
v -0.00620800 0.00420900 -0.02700000
v -0.00620800 0.00420900 -0.02900000
v -0.00696700 0.00277600 -0.02700000
v -0.00696700 0.00277600 -0.02900000
v -0.00740100 0.00121300 -0.02700000
v -0.00740100 0.00121300 -0.02900000
v -0.00748900 -0.00040600 -0.02700000
v -0.00748900 -0.00040600 -0.02900000
v -0.00722700 -0.00200600 -0.02700000
v -0.00722700 -0.00200600 -0.02900000
v -0.00662600 -0.00351300 -0.02700000
v -0.00662600 -0.00351300 -0.02900000
v -0.00571600 -0.00485500 -0.02700000
v -0.00571600 -0.00485500 -0.02900000
v -0.00453900 -0.00597100 -0.02700000
v -0.00453900 -0.00597100 -0.02900000
v -0.00314900 -0.00680700 -0.02700000
v -0.00314900 -0.00680700 -0.02900000
v -0.00161200 -0.00732500 -0.02700000
v -0.00161200 -0.00732500 -0.02900000
v 0.00000000 -0.00750000 -0.02700000
v 0.01397500 0.00200000 -0.02090400
v 0.01491300 0.00200000 -0.02061900
v 0.02600000 0.00200000 -0.02700000
v 0.01577800 0.00200000 -0.02015700
v 0.01653600 0.00200000 -0.01953600
v 0.01715700 0.00200000 -0.01877800
v 0.01761900 0.00200000 -0.01791300
v 0.01300000 0.00200000 -0.02100000
v 0.00800000 0.00200000 -0.02700000
v 0.00800000 0.00200000 -0.02100000
v 0.02600000 0.00200000 0.00280000
v 0.01790400 0.00200000 -0.00122500
v 0.01761900 0.00200000 -0.00028700
v 0.01715700 0.00200000 0.00057800
v 0.01653600 0.00200000 0.00133600
v 0.01577800 0.00200000 0.00195700
v 0.01491300 0.00200000 0.00241900
v 0.01397500 0.00200000 0.00270400
v 0.01300000 0.00200000 0.00280000
v 0.01790400 0.00200000 -0.01697500
v 0.01800000 0.00200000 -0.01600000
v 0.01800000 0.00200000 -0.00220000
v -0.00800000 -0.00000000 -0.02100000
v -0.00800000 -0.00000000 -0.02700000
v -0.00800000 0.01200000 -0.02100000
v -0.00800000 0.01200000 -0.02700000
v 0.01800000 0.00300000 -0.00220000
v 0.01790400 0.00300000 -0.00122500
v 0.01761900 0.00300000 -0.00028700
v 0.01715700 0.00300000 0.00057800
v 0.01653600 0.00300000 0.00133600
v 0.01577800 0.00300000 0.00195700
v 0.01491300 0.00300000 0.00241900
v 0.01397500 0.00300000 0.00270400
v 0.01300000 0.00300000 0.00280000
v 0.01300000 0.00300000 -0.02100000
v -0.00480000 0.00300000 -0.02100000
v 0.01800000 0.00300000 -0.01600000
v -0.00480000 0.00300000 0.00280000
v 0.01790400 0.00300000 -0.01697500
v 0.01761900 0.00300000 -0.01791300
v 0.01715700 0.00300000 -0.01877800
v 0.01653600 0.00300000 -0.01953600
v 0.01577800 0.00300000 -0.02015700
v 0.01491300 0.00300000 -0.02061900
v 0.01397500 0.00300000 -0.02090400
v 0.00000000 0.00400000 0.00920000
v 0.00086000 0.00390600 0.00920000
v 0.00168000 0.00363000 0.00920000
v 0.00242100 0.00318400 0.00920000
v 0.00304900 0.00259000 0.00920000
v 0.00353400 0.00187400 0.00920000
v 0.00385400 0.00107000 0.00920000
v 0.00399400 0.00021700 0.00920000
v 0.00394700 -0.00064700 0.00920000
v 0.00371600 -0.00148100 0.00920000
v 0.00331100 -0.00224500 0.00920000
v 0.00275100 -0.00290400 0.00920000
v 0.00206200 -0.00342700 0.00920000
v 0.00127700 -0.00379100 0.00920000
v 0.00043200 -0.00397700 0.00920000
v -0.00043200 -0.00397700 0.00920000
v -0.00127700 -0.00379100 0.00920000
v -0.00206200 -0.00342700 0.00920000
v -0.00275100 -0.00290400 0.00920000
v -0.00331100 -0.00224500 0.00920000
v -0.00371600 -0.00148100 0.00920000
v -0.00394700 -0.00064700 0.00920000
v -0.00399400 0.00021700 0.00920000
v -0.00385400 0.00107000 0.00920000
v -0.00353400 0.00187400 0.00920000
v -0.00304900 0.00259000 0.00920000
v -0.00242100 0.00318400 0.00920000
v -0.00168000 0.00363000 0.00920000
v -0.00086000 0.00390600 0.00920000
v -0.00700000 0.01300000 -0.02100000
v -0.00480000 0.01300000 -0.02100000
v -0.00480000 0.00800000 -0.02100000
v 0.00800000 -0.00800000 -0.02100000
v -0.00665200 -0.00444500 -0.02100000
v -0.00739100 -0.00306100 -0.02100000
v -0.00784600 -0.00156100 -0.02100000
v -0.00783100 0.01255600 -0.02100000
v -0.00738300 0.01292400 -0.02100000
v 0.00000000 -0.00800000 -0.02100000
v -0.00156100 -0.00784600 -0.02100000
v -0.00306100 -0.00739100 -0.02100000
v -0.00444500 -0.00665200 -0.02100000
v -0.00565700 -0.00565700 -0.02100000
v -0.00784600 -0.00156100 -0.02700000
v -0.00739100 -0.00306100 -0.02700000
v -0.00665200 -0.00444500 -0.02700000
v -0.00565700 -0.00565700 -0.02700000
v -0.00444500 -0.00665200 -0.02700000
v -0.00306100 -0.00739100 -0.02700000
v -0.00156100 -0.00784600 -0.02700000
v 0.00000000 -0.00800000 -0.02700000
v 0.00000000 0.00300000 0.01080000
v 0.00064500 0.00293000 0.01080000
v 0.00000000 -0.00000000 0.01080000
v -0.00064500 0.00293000 0.01080000
v -0.00228600 0.00194200 0.01080000
v -0.00181600 0.00238800 0.01080000
v -0.00126000 0.00272300 0.01080000
v -0.00299600 0.00016200 0.01080000
v -0.00289100 0.00080300 0.01080000
v -0.00265100 0.00140500 0.01080000
v -0.00248300 -0.00168400 0.01080000
v -0.00278700 -0.00111000 0.01080000
v -0.00296000 -0.00048500 0.01080000
v -0.00095800 -0.00284300 0.01080000
v -0.00154700 -0.00257100 0.01080000
v -0.00206300 -0.00217800 0.01080000
v 0.00095800 -0.00284300 0.01080000
v 0.00032400 -0.00298200 0.01080000
v -0.00032400 -0.00298200 0.01080000
v 0.00248300 -0.00168400 0.01080000
v 0.00206300 -0.00217800 0.01080000
v 0.00154700 -0.00257100 0.01080000
v 0.00299600 0.00016200 0.01080000
v 0.00296000 -0.00048500 0.01080000
v 0.00278700 -0.00111000 0.01080000
v 0.00228600 0.00194200 0.01080000
v 0.00265100 0.00140500 0.01080000
v 0.00289100 0.00080300 0.01080000
v 0.00126000 0.00272300 0.01080000
v 0.00181600 0.00238800 0.01080000
v -0.00480000 0.01300000 0.00280000
v -0.00700000 0.01300000 0.00280000
v -0.00700000 0.01300000 -0.02700000
v -0.00480000 0.01300000 -0.02700000
v -0.00480000 0.00800000 -0.02700000
v 0.02600000 0.01300000 -0.02700000
v 0.02584600 0.01456100 -0.02700000
v 0.01480000 0.00800000 -0.02700000
v 0.02539100 0.01606100 -0.02700000
v 0.02465200 0.01744500 -0.02700000
v 0.02365700 0.01865700 -0.02700000
v 0.02244500 0.01965200 -0.02700000
v 0.02106100 0.02039100 -0.02700000
v 0.01956100 0.02084600 -0.02700000
v 0.01800000 0.02100000 -0.02700000
v 0.01480000 0.02100000 -0.02700000
v 0.00800000 -0.00800000 -0.02700000
v -0.00738300 0.01292400 -0.02700000
v -0.00783100 0.01255600 -0.02700000
v 0.00209900 -0.00453800 -0.02900000
v 0.00302600 -0.00398000 -0.02900000
v 0.00381100 -0.00323700 -0.02900000
v 0.00441800 -0.00234200 -0.02900000
v 0.00481800 -0.00133800 -0.02900000
v 0.00499300 -0.00027100 -0.02900000
v 0.00493400 0.00080900 -0.02900000
v 0.00464500 0.00185100 -0.02900000
v 0.00413800 0.00280600 -0.02900000
v 0.00343800 0.00363000 -0.02900000
v 0.00257800 0.00428400 -0.02900000
v 0.00159700 0.00473800 -0.02900000
v 0.00054100 0.00497100 -0.02900000
v -0.00054100 0.00497100 -0.02900000
v -0.00159700 0.00473800 -0.02900000
v -0.00257800 0.00428400 -0.02900000
v -0.00343800 0.00363000 -0.02900000
v -0.00413800 0.00280600 -0.02900000
v -0.00464500 0.00185100 -0.02900000
v -0.00493400 0.00080900 -0.02900000
v -0.00499300 -0.00027100 -0.02900000
v -0.00481800 -0.00133800 -0.02900000
v -0.00441800 -0.00234200 -0.02900000
v -0.00381100 -0.00323700 -0.02900000
v -0.00302600 -0.00398000 -0.02900000
v -0.00209900 -0.00453800 -0.02900000
v -0.00107500 -0.00488300 -0.02900000
v 0.00000000 -0.00500000 -0.02900000
v 0.00107500 -0.00488300 -0.02900000
v -0.00738300 0.01292400 0.00280000
v -0.00783100 0.01255600 0.00280000
v -0.00800000 0.01200000 0.00280000
v -0.00480000 0.00800000 0.00280000
v -0.00800000 -0.00000000 0.00280000
v -0.00784600 -0.00156100 0.00280000
v -0.00739100 -0.00306100 0.00280000
v -0.00444500 -0.00665200 0.00280000
v -0.00306100 -0.00739100 0.00280000
v -0.00156100 -0.00784600 0.00280000
v 0.00000000 -0.00800000 0.00280000
v -0.00665200 -0.00444500 0.00280000
v -0.00565700 -0.00565700 0.00280000
v 0.00000000 -0.00000000 -0.03250000
v 0.00159700 0.00473800 -0.02950000
v 0.00054100 0.00497100 -0.02950000
v -0.00054100 0.00497100 -0.02950000
v -0.00159700 0.00473800 -0.02950000
v -0.00257800 0.00428400 -0.02950000
v -0.00343800 0.00363000 -0.02950000
v -0.00413800 0.00280600 -0.02950000
v -0.00464500 0.00185100 -0.02950000
v -0.00493400 0.00080900 -0.02950000
v -0.00499300 -0.00027100 -0.02950000
v -0.00481800 -0.00133800 -0.02950000
v -0.00441800 -0.00234200 -0.02950000
v -0.00381100 -0.00323700 -0.02950000
v -0.00302600 -0.00398000 -0.02950000
v -0.00209900 -0.00453800 -0.02950000
v -0.00107500 -0.00488300 -0.02950000
v 0.00000000 -0.00500000 -0.02950000
v 0.00107500 -0.00488300 -0.02950000
v 0.00209900 -0.00453800 -0.02950000
v 0.00302600 -0.00398000 -0.02950000
v 0.00381100 -0.00323700 -0.02950000
v 0.00441800 -0.00234200 -0.02950000
v 0.00481800 -0.00133800 -0.02950000
v 0.00499300 -0.00027100 -0.02950000
v 0.00493400 0.00080900 -0.02950000
v 0.00464500 0.00185100 -0.02950000
v 0.00413800 0.00280600 -0.02950000
v 0.00343800 0.00363000 -0.02950000
v 0.00257800 0.00428400 -0.02950000
v 0.00064500 0.00293000 0.00920000
v 0.00126000 0.00272300 0.00920000
v 0.00181600 0.00238800 0.00920000
v 0.00228600 0.00194200 0.00920000
v 0.00265100 0.00140500 0.00920000
v 0.00289100 0.00080300 0.00920000
v 0.00299600 0.00016200 0.00920000
v 0.00296000 -0.00048500 0.00920000
v 0.00278700 -0.00111000 0.00920000
v 0.00248300 -0.00168400 0.00920000
v 0.00206300 -0.00217800 0.00920000
v 0.00154700 -0.00257100 0.00920000
v 0.00095800 -0.00284300 0.00920000
v 0.00032400 -0.00298200 0.00920000
v -0.00032400 -0.00298200 0.00920000
v -0.00095800 -0.00284300 0.00920000
v -0.00154700 -0.00257100 0.00920000
v -0.00206300 -0.00217800 0.00920000
v -0.00248300 -0.00168400 0.00920000
v -0.00278700 -0.00111000 0.00920000
v -0.00296000 -0.00048500 0.00920000
v -0.00299600 0.00016200 0.00920000
v -0.00289100 0.00080300 0.00920000
v -0.00265100 0.00140500 0.00920000
v -0.00228600 0.00194200 0.00920000
v -0.00181600 0.00238800 0.00920000
v -0.00126000 0.00272300 0.00920000
v -0.00064500 0.00293000 0.00920000
v 0.00000000 0.00300000 0.00920000
f 3 2 1
f 3 4 2
f 6 1 5
f 6 3 1
f 9 8 7
f 9 10 8
f 12 8 11
f 12 7 8
f 6 12 11
f 6 5 12
f 12 9 7
f 12 2 9
f 5 2 12
f 5 1 2
f 9 4 10
f 9 2 4
f 11 3 6
f 11 4 3
f 8 4 11
f 8 10 4
f 15 14 13
f 17 13 16
f 17 15 13
f 18 15 17
f 18 19 15
f 15 20 14
f 15 21 20
f 22 21 15
f 22 23 21
f 21 25 24
f 21 26 25
f 23 26 21
f 18 27 19
f 18 28 27
f 29 28 18
f 29 30 28
f 31 30 29
f 32 17 16
f 32 33 17
f 34 33 32
f 32 35 34
f 32 36 35
f 37 36 32
f 27 38 19
f 27 39 38
f 40 39 27
f 40 41 39
f 40 42 41
f 40 43 42
f 44 43 40
f 29 45 31
f 29 46 45
f 47 46 29
f 47 48 46
f 22 15 49
f 50 22 49
f 50 23 22
f 51 23 50
f 51 26 23
f 52 26 51
f 52 25 26
f 53 25 52
f 53 24 25
f 54 24 53
f 54 21 24
f 55 21 54
f 55 20 21
f 56 20 55
f 56 14 20
f 57 14 56
f 60 59 58
f 61 59 49
f 61 62 59
f 63 59 60
f 66 65 64
f 66 67 65
f 62 67 66
f 61 67 62
f 61 68 67
f 69 68 61
f 50 55 51
f 50 49 55
f 49 56 55
f 49 57 56
f 59 57 49
f 59 70 57
f 63 70 59
f 73 72 71
f 55 52 51
f 55 53 52
f 54 53 55
f 76 75 74
f 60 76 74
f 60 77 76
f 58 77 60
f 66 73 71
f 66 78 73
f 64 78 66
f 79 68 69
f 79 80 68
f 81 80 79
f 79 82 81
f 79 83 82
f 84 83 79
f 15 61 49
f 15 19 61
f 16 13 70
f 63 16 70
f 63 32 16
f 60 32 63
f 60 37 32
f 74 37 60
f 74 36 37
f 75 36 74
f 75 35 36
f 76 35 75
f 76 34 35
f 77 34 76
f 77 33 34
f 58 33 77
f 58 17 33
f 59 17 58
f 13 57 70
f 13 14 57
f 59 18 17
f 59 62 18
f 29 18 62
f 66 29 62
f 66 47 29
f 71 47 66
f 71 48 47
f 72 48 71
f 72 46 48
f 73 46 72
f 73 45 46
f 78 45 73
f 78 31 45
f 64 31 78
f 64 30 31
f 65 30 64
f 65 28 30
f 67 28 65
f 67 27 28
f 67 68 27
f 40 27 68
f 80 40 68
f 80 44 40
f 81 44 80
f 81 43 44
f 82 43 81
f 82 42 43
f 83 42 82
f 83 41 42
f 84 41 83
f 84 39 41
f 79 39 84
f 79 38 39
f 69 38 79
f 69 19 38
f 61 19 69
f 5 86 85
f 5 6 86
f 88 9 87
f 88 5 85
f 88 89 5
f 87 89 88
f 87 90 89
f 87 91 90
f 5 90 6
f 5 89 90
f 9 92 10
f 9 88 92
f 92 85 86
f 92 88 85
f 10 87 9
f 10 91 87
f 92 91 10
f 92 90 91
f 86 90 92
f 86 6 90
f 95 94 93
f 95 96 94
f 95 98 97
f 95 93 98
f 101 100 99
f 97 103 102
f 97 96 95
f 97 99 96
f 102 99 97
f 102 101 99
f 99 94 96
f 99 104 94
f 105 99 100
f 105 104 99
f 100 106 105
f 100 101 106
f 102 108 107
f 102 103 108
f 107 108 98
f 104 105 106
f 104 93 94
f 104 98 93
f 106 98 104
f 106 107 98
f 102 106 101
f 102 107 106
f 98 103 97
f 98 108 103
f 111 110 109
f 114 113 112
f 114 116 115
f 114 117 116
f 118 117 114
f 114 119 118
f 114 120 119
f 112 120 114
f 112 121 120
f 122 121 112
f 122 123 121
f 111 125 124
f 111 126 125
f 127 126 111
f 111 128 127
f 111 129 128
f 130 129 111
f 111 131 130
f 111 132 131
f 109 132 111
f 134 111 133
f 134 110 111
f 135 110 134
f 111 136 133
f 111 137 136
f 138 137 111
f 111 139 138
f 111 140 139
f 114 140 111
f 114 141 140
f 115 141 114
f 144 143 142
f 144 145 143
f 146 145 144
f 149 148 147
f 120 150 119
f 120 151 150
f 152 151 120
f 152 153 151
f 154 153 152
f 154 155 153
f 156 155 154
f 156 157 155
f 158 157 156
f 158 159 157
f 160 159 158
f 160 161 159
f 162 161 160
f 162 163 161
f 164 163 162
f 164 165 163
f 142 165 164
f 142 166 165
f 143 166 142
f 149 110 135
f 149 167 110
f 147 167 149
f 149 168 148
f 149 169 168
f 170 169 149
f 144 171 146
f 144 149 171
f 172 149 144
f 172 170 149
f 175 174 173
f 175 176 174
f 177 176 175
f 177 178 176
f 179 178 177
f 179 180 178
f 181 180 179
f 181 182 180
f 183 182 181
f 183 184 182
f 185 184 183
f 185 186 184
f 187 186 185
f 187 188 186
f 189 188 187
f 189 190 188
f 191 190 189
f 191 192 190
f 193 192 191
f 193 194 192
f 195 194 193
f 195 196 194
f 197 196 195
f 197 198 196
f 199 198 197
f 199 200 198
f 201 200 199
f 201 202 200
f 203 202 201
f 203 204 202
f 205 204 203
f 205 206 204
f 207 206 205
f 207 208 206
f 209 208 207
f 209 210 208
f 211 210 209
f 211 212 210
f 213 212 211
f 213 214 212
f 215 214 213
f 215 216 214
f 217 216 215
f 217 218 216
f 219 218 217
f 219 220 218
f 221 220 219
f 221 222 220
f 223 222 221
f 223 224 222
f 225 224 223
f 225 226 224
f 227 226 225
f 227 228 226
f 229 228 227
f 229 230 228
f 173 230 229
f 173 174 230
f 232 231 110
f 167 232 110
f 167 233 232
f 147 233 167
f 147 234 233
f 148 234 147
f 148 235 234
f 168 235 148
f 168 236 235
f 169 236 168
f 169 237 236
f 170 237 169
f 170 238 237
f 172 238 170
f 172 239 238
f 144 239 172
f 242 241 240
f 242 243 241
f 244 243 242
f 244 245 243
f 246 245 244
f 246 247 245
f 248 247 246
f 248 249 247
f 250 249 248
f 250 251 249
f 252 251 250
f 252 253 251
f 254 253 252
f 254 255 253
f 256 255 254
f 256 257 255
f 258 257 256
f 258 259 257
f 260 259 258
f 260 261 259
f 262 261 260
f 262 263 261
f 264 263 262
f 264 265 263
f 266 265 264
f 266 267 265
f 268 267 266
f 268 269 267
f 270 269 268
f 270 271 269
f 272 271 270
f 272 273 271
f 274 273 272
f 274 275 273
f 276 275 274
f 276 277 275
f 278 277 276
f 278 279 277
f 280 279 278
f 280 281 279
f 282 281 280
f 282 283 281
f 284 283 282
f 284 285 283
f 286 285 284
f 286 287 285
f 288 287 286
f 288 289 287
f 290 289 288
f 290 291 289
f 292 291 290
f 292 293 291
f 294 293 292
f 294 295 293
f 296 295 294
f 296 297 295
f 240 297 296
f 240 241 297
f 300 299 298
f 300 301 299
f 300 302 301
f 300 303 302
f 304 303 300
f 305 300 298
f 305 306 300
f 307 306 305
f 310 309 308
f 308 311 310
f 308 312 311
f 313 312 308
f 308 314 313
f 308 315 314
f 316 315 308
f 300 317 304
f 300 318 317
f 308 318 300
f 308 319 318
f 309 319 308
f 322 321 320
f 322 323 321
f 309 324 319
f 309 325 324
f 310 325 309
f 310 326 325
f 311 326 310
f 311 327 326
f 312 327 311
f 312 328 327
f 313 328 312
f 313 329 328
f 314 329 313
f 314 330 329
f 315 330 314
f 315 331 330
f 316 331 315
f 316 332 331
f 335 334 333
f 324 334 335
f 330 328 329
f 330 331 328
f 332 328 331
f 332 327 328
f 326 327 332
f 324 336 334
f 324 332 336
f 325 332 324
f 325 326 332
f 339 338 337
f 335 339 337
f 335 340 339
f 341 340 335
f 335 342 341
f 335 343 342
f 333 343 335
f 345 140 344
f 345 139 140
f 346 139 345
f 346 138 139
f 347 138 346
f 347 137 138
f 348 137 347
f 348 136 137
f 349 136 348
f 349 133 136
f 350 133 349
f 350 134 133
f 351 134 350
f 351 135 134
f 352 135 351
f 352 149 135
f 353 149 352
f 353 171 149
f 354 171 353
f 354 146 171
f 355 146 354
f 355 145 146
f 356 145 355
f 356 143 145
f 357 143 356
f 357 166 143
f 358 166 357
f 358 165 166
f 359 165 358
f 359 163 165
f 360 163 359
f 360 161 163
f 361 161 360
f 361 159 161
f 362 159 361
f 362 157 159
f 363 157 362
f 363 155 157
f 364 155 363
f 364 153 155
f 365 153 364
f 365 151 153
f 366 151 365
f 366 150 151
f 367 150 366
f 367 119 150
f 368 119 367
f 368 118 119
f 369 118 368
f 369 117 118
f 370 117 369
f 370 116 117
f 371 116 370
f 371 115 116
f 372 115 371
f 372 141 115
f 344 141 372
f 344 140 141
f 375 374 373
f 307 334 376
f 307 333 334
f 305 333 307
f 334 378 377
f 320 375 322
f 320 334 375
f 379 334 320
f 379 378 334
f 375 380 322
f 375 381 380
f 373 381 375
f 334 382 376
f 334 383 382
f 384 383 334
f 334 385 384
f 334 386 385
f 377 386 334
f 379 320 321
f 387 379 321
f 387 378 379
f 388 378 387
f 388 377 378
f 389 377 388
f 389 386 377
f 390 386 389
f 390 385 386
f 391 385 390
f 391 384 385
f 392 384 391
f 392 383 384
f 393 383 392
f 393 382 383
f 394 382 393
f 397 396 395
f 398 397 395
f 397 400 399
f 397 401 400
f 398 401 397
f 397 403 402
f 397 404 403
f 399 404 397
f 397 406 405
f 397 407 406
f 402 407 397
f 397 409 408
f 397 410 409
f 405 410 397
f 397 412 411
f 397 413 412
f 408 413 397
f 397 415 414
f 397 416 415
f 411 416 397
f 397 418 417
f 397 419 418
f 414 419 397
f 397 421 420
f 397 422 421
f 417 422 397
f 397 423 396
f 397 424 423
f 420 424 397
f 335 319 324
f 335 318 319
f 426 113 425
f 426 112 113
f 374 427 373
f 374 428 427
f 429 275 277
f 429 273 275
f 271 273 429
f 432 431 430
f 432 433 431
f 434 433 432
f 432 435 434
f 432 436 435
f 437 436 432
f 432 438 437
f 432 439 438
f 440 439 432
f 387 285 287
f 321 285 387
f 441 249 251
f 441 247 249
f 245 247 441
f 429 269 271
f 429 267 269
f 432 267 429
f 432 265 267
f 432 263 265
f 432 261 263
f 259 261 432
f 441 243 245
f 441 241 243
f 394 241 441
f 394 297 241
f 393 297 394
f 393 295 297
f 392 295 393
f 392 293 295
f 391 293 392
f 391 291 293
f 390 291 391
f 390 289 291
f 389 289 390
f 389 287 289
f 388 287 389
f 388 387 287
f 253 441 251
f 253 306 441
f 255 306 253
f 300 432 430
f 300 259 432
f 306 259 300
f 306 257 259
f 255 257 306
f 321 283 285
f 321 281 283
f 323 281 321
f 279 429 277
f 279 428 429
f 427 428 279
f 427 443 442
f 427 323 443
f 279 323 427
f 279 281 323
f 445 244 444
f 445 246 244
f 446 246 445
f 446 248 246
f 447 248 446
f 447 250 248
f 448 250 447
f 448 252 250
f 449 252 448
f 449 254 252
f 450 254 449
f 450 256 254
f 451 256 450
f 451 258 256
f 452 258 451
f 452 260 258
f 453 260 452
f 453 262 260
f 454 262 453
f 454 264 262
f 455 264 454
f 455 266 264
f 456 266 455
f 456 268 266
f 457 268 456
f 457 270 268
f 458 270 457
f 458 272 270
f 459 272 458
f 459 274 272
f 460 274 459
f 460 276 274
f 461 276 460
f 461 278 276
f 462 278 461
f 462 280 278
f 463 280 462
f 463 282 280
f 464 282 463
f 464 284 282
f 465 284 464
f 465 286 284
f 466 286 465
f 466 288 286
f 467 288 466
f 467 290 288
f 468 290 467
f 468 292 290
f 469 292 468
f 469 294 292
f 470 294 469
f 470 296 294
f 471 296 470
f 471 240 296
f 472 240 471
f 472 242 240
f 444 242 472
f 444 244 242
f 475 474 473
f 426 425 476
f 476 473 426
f 476 475 473
f 336 475 476
f 336 477 475
f 332 477 336
f 332 478 477
f 479 478 332
f 332 481 480
f 332 482 481
f 316 482 332
f 316 483 482
f 308 483 316
f 308 239 483
f 231 239 308
f 235 236 237
f 239 233 234
f 239 232 233
f 231 232 239
f 332 484 479
f 332 485 484
f 480 485 332
f 235 239 234
f 235 238 239
f 237 238 235
f 298 333 305
f 298 343 333
f 299 343 298
f 299 342 343
f 301 342 299
f 301 341 342
f 302 341 301
f 302 340 341
f 303 340 302
f 303 339 340
f 304 339 303
f 304 338 339
f 317 338 304
f 317 337 338
f 318 337 317
f 318 335 337
f 152 120 477
f 478 152 477
f 478 154 152
f 479 154 478
f 479 156 154
f 484 156 479
f 484 158 156
f 485 158 484
f 485 160 158
f 480 160 485
f 480 162 160
f 481 162 480
f 481 164 162
f 482 164 481
f 482 142 164
f 483 142 482
f 486 175 173
f 229 486 173
f 486 225 223
f 486 227 225
f 229 227 486
f 486 219 217
f 486 221 219
f 223 221 486
f 486 213 211
f 486 215 213
f 217 215 486
f 486 207 205
f 486 209 207
f 211 209 486
f 486 201 199
f 486 203 201
f 205 203 486
f 486 195 193
f 486 197 195
f 199 197 486
f 486 189 187
f 486 191 189
f 193 191 486
f 486 183 181
f 486 185 183
f 187 185 486
f 486 177 175
f 486 179 177
f 181 179 486
f 200 487 198
f 200 488 487
f 202 488 200
f 202 489 488
f 204 489 202
f 204 490 489
f 206 490 204
f 206 491 490
f 208 491 206
f 208 492 491
f 210 492 208
f 210 493 492
f 212 493 210
f 212 494 493
f 214 494 212
f 214 495 494
f 216 495 214
f 216 496 495
f 218 496 216
f 218 497 496
f 220 497 218
f 220 498 497
f 222 498 220
f 222 499 498
f 224 499 222
f 224 500 499
f 226 500 224
f 226 501 500
f 228 501 226
f 228 502 501
f 230 502 228
f 230 503 502
f 174 503 230
f 174 504 503
f 176 504 174
f 176 505 504
f 178 505 176
f 178 506 505
f 180 506 178
f 180 507 506
f 182 507 180
f 182 508 507
f 184 508 182
f 184 509 508
f 186 509 184
f 186 510 509
f 188 510 186
f 188 511 510
f 190 511 188
f 190 512 511
f 192 512 190
f 192 513 512
f 194 513 192
f 194 514 513
f 196 514 194
f 196 515 514
f 198 515 196
f 198 487 515
f 396 516 395
f 396 517 516
f 423 517 396
f 423 518 517
f 424 518 423
f 424 519 518
f 420 519 424
f 420 520 519
f 421 520 420
f 421 521 520
f 422 521 421
f 422 522 521
f 417 522 422
f 417 523 522
f 418 523 417
f 418 524 523
f 419 524 418
f 419 525 524
f 414 525 419
f 414 526 525
f 415 526 414
f 415 527 526
f 416 527 415
f 416 528 527
f 411 528 416
f 411 529 528
f 412 529 411
f 412 530 529
f 413 530 412
f 413 531 530
f 408 531 413
f 408 532 531
f 409 532 408
f 409 533 532
f 410 533 409
f 410 534 533
f 405 534 410
f 405 535 534
f 406 535 405
f 406 536 535
f 407 536 406
f 407 537 536
f 402 537 407
f 402 538 537
f 403 538 402
f 403 539 538
f 404 539 403
f 404 540 539
f 399 540 404
f 399 541 540
f 400 541 399
f 400 542 541
f 401 542 400
f 401 543 542
f 398 543 401
f 398 544 543
f 395 544 398
f 395 516 544
f 111 440 432
f 111 124 440
f 504 472 503
f 504 444 472
f 505 444 504
f 505 445 444
f 506 445 505
f 506 446 445
f 507 446 506
f 507 447 446
f 508 447 507
f 508 448 447
f 509 448 508
f 509 449 448
f 510 449 509
f 510 450 449
f 511 450 510
f 511 451 450
f 512 451 511
f 512 452 451
f 513 452 512
f 513 453 452
f 514 453 513
f 514 454 453
f 515 454 514
f 515 455 454
f 487 455 515
f 487 456 455
f 488 456 487
f 488 457 456
f 489 457 488
f 489 458 457
f 490 458 489
f 490 459 458
f 491 459 490
f 491 460 459
f 492 460 491
f 492 461 460
f 493 461 492
f 493 462 461
f 494 462 493
f 494 463 462
f 495 463 494
f 495 464 463
f 496 464 495
f 496 465 464
f 497 465 496
f 497 466 465
f 498 466 497
f 498 467 466
f 499 467 498
f 499 468 467
f 500 468 499
f 500 469 468
f 501 469 500
f 501 470 469
f 502 470 501
f 502 471 470
f 503 471 502
f 503 472 471
f 381 373 427
f 442 381 427
f 442 380 381
f 443 380 442
f 443 322 380
f 323 322 443
f 122 112 426
f 473 122 426
f 473 123 122
f 474 123 473
f 474 121 123
f 475 121 474
f 132 109 430
f 431 132 430
f 431 131 132
f 433 131 431
f 433 130 131
f 434 130 433
f 434 129 130
f 435 129 434
f 435 128 129
f 436 128 435
f 436 127 128
f 437 127 436
f 437 126 127
f 438 126 437
f 438 125 126
f 439 125 438
f 441 307 376
f 441 306 307
f 336 375 334
f 336 476 375
f 376 394 441
f 376 382 394
f 477 121 475
f 477 120 121
f 375 428 374
f 375 429 428
f 239 142 483
f 239 144 142
f 517 345 516
f 517 346 345
f 518 346 517
f 518 347 346
f 519 347 518
f 519 348 347
f 520 348 519
f 520 349 348
f 521 349 520
f 521 350 349
f 522 350 521
f 522 351 350
f 523 351 522
f 523 352 351
f 524 352 523
f 524 353 352
f 525 353 524
f 525 354 353
f 526 354 525
f 526 355 354
f 527 355 526
f 527 356 355
f 528 356 527
f 528 357 356
f 529 357 528
f 529 358 357
f 530 358 529
f 530 359 358
f 531 359 530
f 531 360 359
f 532 360 531
f 532 361 360
f 533 361 532
f 533 362 361
f 534 362 533
f 534 363 362
f 535 363 534
f 535 364 363
f 536 364 535
f 536 365 364
f 537 365 536
f 537 366 365
f 538 366 537
f 538 367 366
f 539 367 538
f 539 368 367
f 540 368 539
f 540 369 368
f 541 369 540
f 541 370 369
f 542 370 541
f 542 371 370
f 543 371 542
f 543 372 371
f 544 372 543
f 544 344 372
f 516 344 544
f 516 345 344
f 425 114 476
f 425 113 114
f 432 429 375
f 476 432 375
f 476 111 432
f 114 111 476
f 439 124 125
f 439 440 124
f 308 110 231
f 308 109 110
f 300 109 308
f 300 430 109

