# https://github.com/mikedh/trimesh
v -0.01350000 0.00741700 0.04407600
v -0.01350000 0.00696900 0.04444400
v -0.01350000 -0.00980000 0.03970000
v -0.01350000 0.00780000 0.04400000
v -0.01350000 0.00980000 0.03970000
v -0.01350000 0.00980000 0.04400000
v -0.01350000 0.00680000 0.04500000
v -0.01350000 0.00680000 0.05440800
v -0.01350000 -0.00420000 0.06170000
v -0.01350000 0.00513300 0.05813500
v -0.01350000 0.00308500 0.05965500
v -0.01350000 -0.00738500 0.06164200
v -0.01350000 -0.00794800 0.06147200
v -0.01350000 -0.00980000 0.05870000
v -0.01350000 0.00079600 0.06077800
v -0.01350000 -0.00166000 0.06146800
v -0.01350000 -0.00680000 0.06170000
v -0.01350000 0.00583800 0.05735700
v -0.01350000 0.00669000 0.05545200
v -0.01350000 0.00636400 0.05644900
v -0.01350000 -0.00974200 0.05928500
v -0.01350000 -0.00957200 0.05984800
v -0.01350000 -0.00929400 0.06036700
v -0.01350000 -0.00846700 0.06119400
v -0.01350000 -0.00892100 0.06082100
v -0.01110000 -0.00980000 0.04400000
v -0.01110000 -0.00980000 0.03970000
v -0.01150000 -0.00980000 0.04400000
v -0.01150000 -0.00980000 0.05870000
v -0.01110000 0.00980000 0.03970000
v -0.01110000 0.00980000 0.04400000
v -0.01150000 0.00680000 0.05440800
v -0.01150000 0.00680000 0.04500000
v -0.01150000 0.00780000 0.04400000
v -0.01150000 0.00669000 0.05545200
v -0.01150000 0.00636400 0.05644900
v -0.01150000 0.00583800 0.05735700
v -0.01150000 0.00513300 0.05813500
v -0.01150000 0.00741700 0.04407600
v -0.01150000 0.00696900 0.04444400
v -0.01150000 0.00079600 0.06077800
v -0.01150000 0.00308500 0.05965500
v -0.01150000 -0.00738500 0.06164200
v -0.01150000 -0.00680000 0.06170000
v -0.01150000 -0.00420000 0.06170000
v -0.01150000 -0.00166000 0.06146800
v -0.01150000 -0.00974200 0.05928500
v -0.01150000 -0.00957200 0.05984800
v -0.01150000 -0.00929400 0.06036700
v -0.01150000 -0.00892100 0.06082100
v -0.01150000 -0.00846700 0.06119400
v -0.01150000 -0.00794800 0.06147200
v 0.01130000 0.00513300 0.05813500
v 0.01350000 0.00513300 0.05813500
v 0.01350000 0.00308500 0.05965500
v 0.01130000 0.00308500 0.05965500
v 0.01350000 0.00079600 0.06077800
v 0.01130000 0.00079600 0.06077800
v 0.01350000 -0.00166000 0.06146800
v 0.01130000 -0.00166000 0.06146800
v 0.01350000 -0.00420000 0.06170000
v 0.01130000 -0.00420000 0.06170000
v 0.01350000 0.00680000 0.05440800
v 0.01130000 0.00680000 0.05440800
v 0.01350000 0.00680000 0.04500000
v 0.01130000 0.00680000 0.04500000
v 0.01130000 -0.00980000 0.04400000
v 0.00950000 -0.00980000 0.04400000
v 0.01130000 0.00780000 0.04400000
v 0.00950000 0.00980000 0.04400000
v 0.01350000 0.00780000 0.04400000
v 0.01350000 0.00980000 0.04400000
v 0.00950000 0.00980000 0.03970000
v 0.01350000 0.00980000 0.03970000
v 0.00950000 -0.00980000 0.03970000
v 0.01350000 -0.00980000 0.03970000
v 0.01130000 0.00724400 0.04416900
v 0.01350000 0.00724400 0.04416900
v 0.01130000 0.00687600 0.04461700
v 0.01350000 0.00687600 0.04461700
v 0.01350000 -0.00680000 0.06170000
v 0.01350000 -0.00980000 0.05870000
v 0.01350000 -0.00974200 0.05928500
v 0.01350000 -0.00957200 0.05984800
v 0.01350000 -0.00738500 0.06164200
v 0.01350000 -0.00794800 0.06147200
v 0.01350000 -0.00929400 0.06036700
v 0.01350000 -0.00892100 0.06082100
v 0.01350000 -0.00846700 0.06119400
v 0.01350000 0.00583800 0.05735700
v 0.01350000 0.00636400 0.05644900
v 0.01350000 0.00669000 0.05545200
v 0.01130000 -0.00980000 0.05870000
v 0.01130000 0.00669000 0.05545200
v 0.01130000 0.00636400 0.05644900
v 0.01130000 0.00583800 0.05735700
v 0.01130000 -0.00680000 0.06170000
v 0.01130000 -0.00974200 0.05928500
v 0.01130000 -0.00957200 0.05984800
v 0.01130000 -0.00738500 0.06164200
v 0.01130000 -0.00794800 0.06147200
v 0.01130000 -0.00846700 0.06119400
v 0.01130000 -0.00892100 0.06082100
v 0.01130000 -0.00929400 0.06036700
f 3 2 1
f 4 3 1
f 4 5 3
f 6 5 4
f 9 8 7
f 8 11 10
f 14 13 12
f 8 15 11
f 8 16 15
f 9 16 8
f 3 7 2
f 3 9 7
f 14 9 3
f 14 17 9
f 12 17 14
f 18 8 10
f 18 19 8
f 20 19 18
f 22 14 21
f 22 23 14
f 14 24 13
f 14 25 24
f 23 25 14
f 28 27 26
f 28 3 27
f 29 3 28
f 29 14 3
f 3 30 27
f 3 5 30
f 5 31 30
f 5 6 31
f 33 8 32
f 33 7 8
f 34 28 26
f 34 6 4
f 34 31 6
f 26 31 34
f 35 32 8
f 19 35 8
f 19 36 35
f 20 36 19
f 20 37 36
f 18 37 20
f 18 38 37
f 10 38 18
f 39 28 34
f 39 40 28
f 28 32 35
f 28 33 32
f 40 33 28
f 28 42 41
f 28 38 42
f 29 44 43
f 29 45 44
f 28 45 29
f 28 46 45
f 41 46 28
f 29 48 47
f 29 49 48
f 50 49 29
f 29 51 50
f 29 52 51
f 43 52 29
f 28 37 38
f 28 36 37
f 35 36 28
f 40 7 33
f 40 2 7
f 39 2 40
f 39 1 2
f 34 1 39
f 34 4 1
f 44 9 17
f 44 45 9
f 30 26 27
f 30 31 26
f 21 14 29
f 47 21 29
f 47 22 21
f 48 22 47
f 48 23 22
f 49 23 48
f 49 25 23
f 50 25 49
f 50 24 25
f 51 24 50
f 51 13 24
f 52 13 51
f 52 12 13
f 43 12 52
f 43 17 12
f 44 17 43
f 16 9 45
f 46 16 45
f 46 15 16
f 41 15 46
f 41 11 15
f 42 11 41
f 42 10 11
f 38 10 42
f 55 54 53
f 56 55 53
f 56 57 55
f 58 57 56
f 58 59 57
f 60 59 58
f 60 61 59
f 62 61 60
f 65 64 63
f 65 66 64
f 69 68 67
f 69 70 68
f 71 70 69
f 71 72 70
f 70 74 73
f 70 72 74
f 74 75 73
f 74 76 75
f 77 71 69
f 77 78 71
f 79 78 77
f 79 80 78
f 66 80 79
f 66 65 80
f 76 80 65
f 76 78 80
f 74 78 76
f 74 71 78
f 72 71 74
f 82 61 81
f 82 76 61
f 63 76 65
f 63 61 76
f 59 61 63
f 81 83 82
f 81 84 83
f 85 84 81
f 85 86 84
f 63 57 59
f 63 55 57
f 54 55 63
f 84 88 87
f 84 89 88
f 86 89 84
f 63 90 54
f 63 91 90
f 92 91 63
f 67 82 93
f 67 76 82
f 68 76 67
f 68 75 76
f 92 63 64
f 94 92 64
f 94 91 92
f 95 91 94
f 95 90 91
f 96 90 95
f 96 54 90
f 53 54 96
f 75 70 73
f 75 68 70
f 97 67 93
f 67 77 69
f 67 79 77
f 66 79 67
f 67 58 56
f 98 97 93
f 67 60 58
f 67 62 60
f 97 62 67
f 99 97 98
f 99 100 97
f 101 100 99
f 67 64 66
f 67 94 64
f 95 94 67
f 67 96 95
f 67 53 96
f 56 53 67
f 99 102 101
f 99 103 102
f 104 103 99
f 61 97 81
f 61 62 97
f 85 81 97
f 100 85 97
f 100 86 85
f 101 86 100
f 101 89 86
f 102 89 101
f 102 88 89
f 103 88 102
f 103 87 88
f 104 87 103
f 104 84 87
f 99 84 104
f 99 83 84
f 98 83 99
f 98 82 83
f 93 82 98
f 73 68 75
f 73 70 68
f 30 70 73
f 30 31 70
f 27 31 30
f 27 26 31
f 27 73 75
f 27 30 73
f 70 26 68
f 70 31 26
f 75 26 27
f 75 68 26

