# https://github.com/mikedh/trimesh
v 0.00865000 0.00480000 -0.01150000
v 0.00865000 0.00480000 -0.01080000
v 0.00873400 0.00564900 -0.01150000
v 0.00873400 0.00564900 -0.01080000
v 0.00898100 0.00646500 -0.01150000
v 0.00898100 0.00646500 -0.01080000
v 0.00938300 0.00721700 -0.01150000
v 0.00938300 0.00721700 -0.01080000
v 0.00992400 0.00787600 -0.01150000
v 0.00992400 0.00787600 -0.01080000
v 0.01058300 0.00841700 -0.01150000
v 0.01058300 0.00841700 -0.01080000
v 0.01133500 0.00881900 -0.01150000
v 0.01133500 0.00881900 -0.01080000
v 0.01215100 0.00906600 -0.01150000
v 0.01215100 0.00906600 -0.01080000
v 0.01300000 0.00915000 -0.01150000
v 0.01300000 0.00915000 -0.01080000
v 0.02105000 0.00915000 -0.01150000
v 0.02105000 0.00915000 -0.01080000
v 0.01300000 -0.00915000 -0.01150000
v 0.02105000 -0.00915000 -0.01150000
v 0.01300000 -0.00915000 -0.01080000
v 0.02105000 -0.00915000 -0.01080000
v 0.01215100 -0.00906600 -0.01150000
v 0.01215100 -0.00906600 -0.01080000
v 0.01133500 -0.00881900 -0.01150000
v 0.01133500 -0.00881900 -0.01080000
v 0.01058300 -0.00841700 -0.01150000
v 0.01058300 -0.00841700 -0.01080000
v 0.00992400 -0.00787600 -0.01150000
v 0.00992400 -0.00787600 -0.01080000
v 0.00938300 -0.00721700 -0.01150000
v 0.00938300 -0.00721700 -0.01080000
v 0.00898100 -0.00646500 -0.01150000
v 0.00898100 -0.00646500 -0.01080000
v 0.00873400 -0.00564900 -0.01150000
v 0.00873400 -0.00564900 -0.01080000
v 0.00865000 -0.00480000 -0.01150000
v 0.00865000 -0.00480000 -0.01080000
v 0.02205000 0.00815000 -0.01080000
v 0.02205000 0.00815000 -0.01150000
v 0.02188100 0.00870600 -0.01080000
v 0.02188100 0.00870600 -0.01150000
v 0.02143300 0.00907400 -0.01080000
v 0.02143300 0.00907400 -0.01150000
v 0.02160600 -0.00898100 -0.01080000
v 0.02160600 -0.00898100 -0.01150000
v 0.02197400 -0.00853300 -0.01080000
v 0.02197400 -0.00853300 -0.01150000
v 0.02205000 -0.00815000 -0.01080000
v 0.02205000 -0.00815000 -0.01150000
v 0.02700000 0.00680000 -0.01110000
v 0.02700000 0.00680000 -0.00610000
v 0.02694200 0.00738500 -0.00610000
v 0.02694200 0.00738500 -0.01110000
v 0.02677200 0.00794800 -0.00610000
v 0.02677200 0.00794800 -0.01110000
v 0.02649400 0.00846700 -0.00610000
v 0.02649400 0.00846700 -0.01110000
v 0.02612100 0.00892100 -0.00610000
v 0.02612100 0.00892100 -0.01110000
v 0.02566700 0.00929400 -0.00610000
v 0.02566700 0.00929400 -0.01110000
v 0.02514800 0.00957200 -0.00610000
v 0.02514800 0.00957200 -0.01110000
v 0.02458500 0.00974200 -0.00610000
v 0.02458500 0.00974200 -0.01110000
v 0.02400000 0.00980000 -0.00610000
v 0.02400000 0.00980000 -0.01110000
v 0.00809600 0.00577500 -0.01350000
v 0.00800000 0.00480000 -0.01350000
v 0.01300000 0.00980000 -0.01350000
v 0.00809600 -0.00577500 -0.01350000
v 0.01300000 -0.00980000 -0.01350000
v 0.00800000 -0.00480000 -0.01350000
v 0.02270000 -0.00980000 -0.01350000
v 0.02270000 0.00980000 -0.01350000
v 0.01022200 -0.00895700 -0.01350000
v 0.01108700 -0.00941900 -0.01350000
v 0.00946400 -0.00833600 -0.01350000
v 0.00884300 -0.00757800 -0.01350000
v 0.00838100 -0.00671300 -0.01350000
v 0.01202500 -0.00970400 -0.01350000
v 0.01202500 0.00970400 -0.01350000
v 0.01108700 0.00941900 -0.01350000
v 0.00884300 0.00757800 -0.01350000
v 0.01022200 0.00895700 -0.01350000
v 0.00946400 0.00833600 -0.01350000
v 0.00838100 0.00671300 -0.01350000
v 0.02700000 -0.00680000 -0.00610000
v 0.02700000 -0.00680000 -0.01110000
v -0.00380000 -0.00980000 -0.01080000
v 0.01300000 -0.00980000 -0.01080000
v 0.01202500 -0.00970400 -0.01080000
v 0.01108700 -0.00941900 -0.01080000
v 0.01022200 -0.00895700 -0.01080000
v 0.00946400 -0.00833600 -0.01080000
v 0.00884300 0.00757800 -0.01080000
v 0.00946400 0.00833600 -0.01080000
v -0.00380000 0.00980000 -0.01080000
v 0.01022200 0.00895700 -0.01080000
v 0.00884300 -0.00757800 -0.01080000
v 0.00838100 -0.00671300 -0.01080000
v -0.00477500 -0.00970400 -0.01080000
v 0.00809600 -0.00577500 -0.01080000
v -0.00571300 -0.00941900 -0.01080000
v 0.01108700 0.00941900 -0.01080000
v 0.01202500 0.00970400 -0.01080000
v 0.01300000 0.00980000 -0.01080000
v 0.00800000 -0.00480000 -0.01080000
v -0.00870400 -0.00577500 -0.01080000
v -0.00841900 -0.00671300 -0.01080000
v -0.00477500 0.00970400 -0.01080000
v 0.00809600 0.00577500 -0.01080000
v 0.00838100 0.00671300 -0.01080000
v -0.00795700 -0.00757800 -0.01080000
v -0.00733600 -0.00833600 -0.01080000
v -0.00657800 -0.00895700 -0.01080000
v -0.00880000 -0.00480000 -0.01080000
v 0.00800000 0.00480000 -0.01080000
v -0.00880000 0.00480000 -0.01080000
v -0.00795700 0.00757800 -0.01080000
v -0.00841900 0.00671300 -0.01080000
v -0.00870400 0.00577500 -0.01080000
v -0.00571300 0.00941900 -0.01080000
v -0.00657800 0.00895700 -0.01080000
v -0.00733600 0.00833600 -0.01080000
v -0.00380000 -0.00980000 -0.00610000
v 0.02400000 -0.00980000 -0.00610000
v 0.02270000 -0.00980000 -0.01110000
v 0.02400000 -0.00980000 -0.01110000
v 0.02458500 -0.00974200 -0.00610000
v 0.02458500 -0.00974200 -0.01110000
v 0.02514800 -0.00957200 -0.00610000
v 0.02514800 -0.00957200 -0.01110000
v 0.02566700 -0.00929400 -0.00610000
v 0.02566700 -0.00929400 -0.01110000
v 0.02612100 -0.00892100 -0.00610000
v 0.02612100 -0.00892100 -0.01110000
v 0.02649400 -0.00846700 -0.00610000
v 0.02649400 -0.00846700 -0.01110000
v 0.02677200 -0.00794800 -0.00610000
v 0.02677200 -0.00794800 -0.01110000
v 0.02694200 -0.00738500 -0.00610000
v 0.02694200 -0.00738500 -0.01110000
v -0.00880000 -0.00480000 -0.00610000
v -0.00870400 -0.00577500 -0.00610000
v -0.00841900 -0.00671300 -0.00610000
v -0.00795700 -0.00757800 -0.00610000
v -0.00733600 -0.00833600 -0.00610000
v -0.00657800 -0.00895700 -0.00610000
v -0.00571300 -0.00941900 -0.00610000
v -0.00477500 -0.00970400 -0.00610000
v 0.02270000 0.00980000 -0.01110000
v -0.00380000 0.00980000 -0.00610000
v -0.00477500 0.00970400 -0.00610000
v -0.00880000 0.00480000 -0.00610000
v -0.00571300 0.00941900 -0.00610000
v -0.00870400 0.00577500 -0.00610000
v -0.00841900 0.00671300 -0.00610000
v -0.00795700 0.00757800 -0.00610000
v -0.00733600 0.00833600 -0.00610000
v -0.00657800 0.00895700 -0.00610000
v 0.00800000 0.00480000 0.01100000
v 0.00800000 0.00480000 0.01350000
v 0.00800000 -0.00480000 0.01100000
v 0.00800000 -0.00480000 0.01350000
v -0.00380000 -0.00980000 0.00630000
v -0.00380000 -0.00980000 0.01100000
v 0.02400000 -0.00980000 0.00630000
v 0.01300000 -0.00980000 0.01100000
v 0.02400000 -0.00980000 0.00950000
v 0.02270000 -0.00980000 0.00950000
v 0.02270000 -0.00980000 0.01350000
v 0.01300000 -0.00980000 0.01350000
v 0.02270000 0.00980000 0.01350000
v 0.02270000 0.00980000 0.00950000
v -0.00380000 0.00980000 0.01100000
v 0.01300000 0.00980000 0.01100000
v 0.01202500 0.00970400 0.01100000
v 0.01108700 0.00941900 0.01100000
v 0.01022200 0.00895700 0.01100000
v 0.00946400 0.00833600 0.01100000
v 0.00884300 -0.00757800 0.01100000
v 0.00946400 -0.00833600 0.01100000
v 0.01022200 -0.00895700 0.01100000
v 0.00884300 0.00757800 0.01100000
v 0.00838100 0.00671300 0.01100000
v -0.00477500 0.00970400 0.01100000
v 0.00809600 0.00577500 0.01100000
v -0.00571300 0.00941900 0.01100000
v 0.01108700 -0.00941900 0.01100000
v 0.01202500 -0.00970400 0.01100000
v -0.00870400 0.00577500 0.01100000
v -0.00841900 0.00671300 0.01100000
v -0.00477500 -0.00970400 0.01100000
v 0.00809600 -0.00577500 0.01100000
v 0.00838100 -0.00671300 0.01100000
v -0.00795700 0.00757800 0.01100000
v -0.00733600 0.00833600 0.01100000
v -0.00657800 0.00895700 0.01100000
v -0.00880000 0.00480000 0.01100000
v -0.00880000 -0.00480000 0.01100000
v -0.00795700 -0.00757800 0.01100000
v -0.00841900 -0.00671300 0.01100000
v -0.00870400 -0.00577500 0.01100000
v -0.00571300 -0.00941900 0.01100000
v -0.00657800 -0.00895700 0.01100000
v -0.00733600 -0.00833600 0.01100000
v -0.00477500 -0.00970400 0.00630000
v -0.00571300 -0.00941900 0.00630000
v -0.00657800 -0.00895700 0.00630000
v -0.00733600 -0.00833600 0.00630000
v -0.00795700 -0.00757800 0.00630000
v -0.00841900 -0.00671300 0.00630000
v -0.00870400 -0.00577500 0.00630000
v -0.00880000 -0.00480000 0.00630000
v 0.00809600 0.00577500 0.01350000
v 0.00838100 0.00671300 0.01350000
v 0.00884300 0.00757800 0.01350000
v 0.00946400 0.00833600 0.01350000
v 0.01022200 0.00895700 0.01350000
v 0.01108700 0.00941900 0.01350000
v 0.01202500 0.00970400 0.01350000
v 0.01300000 0.00980000 0.01350000
v 0.02700000 -0.00680000 0.00630000
v -0.00880000 0.00480000 0.00630000
v 0.02700000 0.00680000 0.00630000
v 0.02458500 -0.00974200 0.00630000
v 0.02514800 -0.00957200 0.00630000
v 0.02694200 -0.00738500 0.00630000
v 0.02677200 -0.00794800 0.00630000
v 0.02566700 -0.00929400 0.00630000
v 0.02612100 -0.00892100 0.00630000
v 0.02649400 -0.00846700 0.00630000
v 0.02400000 0.00980000 0.00630000
v -0.00380000 0.00980000 0.00630000
v -0.00870400 0.00577500 0.00630000
v -0.00477500 0.00970400 0.00630000
v -0.00571300 0.00941900 0.00630000
v 0.02694200 0.00738500 0.00630000
v 0.02677200 0.00794800 0.00630000
v 0.02458500 0.00974200 0.00630000
v 0.02649400 0.00846700 0.00630000
v 0.02612100 0.00892100 0.00630000
v 0.02566700 0.00929400 0.00630000
v 0.02514800 0.00957200 0.00630000
v -0.00657800 0.00895700 0.00630000
v -0.00733600 0.00833600 0.00630000
v -0.00841900 0.00671300 0.00630000
v -0.00795700 0.00757800 0.00630000
v 0.00809600 -0.00577500 0.01350000
v 0.01202500 -0.00970400 0.01350000
v 0.01108700 -0.00941900 0.01350000
v 0.00884300 -0.00757800 0.01350000
v 0.01022200 -0.00895700 0.01350000
v 0.00946400 -0.00833600 0.01350000
v 0.00838100 -0.00671300 0.01350000
v 0.02700000 -0.00680000 0.00950000
v 0.02700000 0.00680000 0.00950000
v 0.02400000 0.00980000 0.00950000
v 0.02458500 0.00974200 0.00950000
v 0.02514800 0.00957200 0.00950000
v 0.02566700 0.00929400 0.00950000
v 0.02612100 0.00892100 0.00950000
v 0.02649400 0.00846700 0.00950000
v 0.02677200 0.00794800 0.00950000
v 0.02694200 0.00738500 0.00950000
v 0.02694200 -0.00738500 0.00950000
v 0.02677200 -0.00794800 0.00950000
v 0.02649400 -0.00846700 0.00950000
v 0.02612100 -0.00892100 0.00950000
v 0.02566700 -0.00929400 0.00950000
v 0.02514800 -0.00957200 0.00950000
v 0.02458500 -0.00974200 0.00950000
v -0.00300000 0.01190000 0.01425000
v -0.00300000 0.01190000 0.01375000
v -0.00300000 0.01420000 0.01425000
v -0.00300000 0.01420000 0.01375000
v -0.00300000 0.01439100 0.01421200
v -0.00300000 0.01190000 -0.01375000
v -0.00300000 0.01190000 -0.01425000
v -0.00300000 0.01420000 -0.01375000
v -0.00300000 0.01420000 -0.01425000
v -0.00300000 0.01466200 -0.01394100
v -0.00300000 0.01470000 -0.01375000
v -0.00300000 0.01470000 0.01375000
v 0.02080000 0.01420000 0.01425000
v 0.02080000 0.01439100 0.01421200
v 0.02080000 0.01470000 0.01375000
v -0.00000000 0.01090000 -0.01425000
v 0.02193900 0.00322700 -0.01425000
v 0.02250800 0.00135100 -0.01425000
v 0.02710000 0.00780000 -0.01425000
v 0.00422500 0.01022100 -0.01425000
v 0.00566400 0.00940000 -0.01425000
v 0.01270000 0.00940000 -0.01425000
v 0.02510000 0.00980000 -0.01425000
v 0.02280000 0.00980000 -0.01425000
v 0.02101500 0.00495600 -0.01425000
v 0.02241000 0.00983800 -0.01425000
v 0.01977100 0.00647100 -0.01425000
v 0.02710000 -0.00550000 -0.01425000
v 0.02270000 -0.00060000 -0.01425000
v 0.02270000 -0.00550000 -0.01425000
v 0.02203500 0.00995200 -0.01425000
v 0.02168900 0.01013700 -0.01425000
v 0.01825600 0.00771500 -0.01425000
v 0.02313900 -0.00656100 -0.01425000
v 0.02362600 -0.00688600 -0.01425000
v 0.02420000 -0.00700000 -0.01425000
v 0.00100000 0.01090000 -0.01425000
v 0.00264800 0.01072800 -0.01425000
v 0.02080000 0.01420000 -0.01425000
v 0.02080000 0.01180000 -0.01425000
v 0.02083800 0.01141000 -0.01425000
v 0.01465100 0.00920800 -0.01425000
v 0.02095200 0.01103500 -0.01425000
v 0.01652700 0.00863900 -0.01425000
v 0.02113700 0.01068900 -0.01425000
v 0.02138600 0.01038600 -0.01425000
v 0.02706200 0.00819000 -0.01425000
v 0.02694800 0.00856500 -0.01425000
v 0.02676300 0.00891100 -0.01425000
v 0.02651400 0.00921400 -0.01425000
v 0.02621100 0.00946300 -0.01425000
v 0.02281400 -0.00607400 -0.01425000
v 0.02560000 -0.00700000 -0.01425000
v 0.02586500 0.00964800 -0.01425000
v 0.02549000 0.00976200 -0.01425000
v 0.02617400 -0.00688600 -0.01425000
v 0.02666100 -0.00656100 -0.01425000
v 0.02698600 -0.00607400 -0.01425000
v 0.02270000 -0.00550000 -0.01375000
v 0.02270000 -0.00060000 -0.01375000
v 0.02710000 -0.00550000 -0.01375000
v 0.02080000 0.01420000 -0.01375000
v 0.01465100 0.00920800 -0.01375000
v 0.01270000 0.00940000 -0.01375000
v 0.02710000 0.00780000 -0.01375000
v 0.02080000 0.01180000 -0.01375000
v 0.02083800 0.01141000 -0.01375000
v 0.01652700 0.00863900 -0.01375000
v -0.00000000 0.01090000 -0.01375000
v 0.00100000 0.01090000 -0.01375000
v 0.00264800 0.01072800 -0.01375000
v 0.00422500 0.01022100 -0.01375000
v 0.00566400 0.00940000 -0.01375000
v 0.02666100 -0.00656100 -0.01375000
v 0.02617400 -0.00688600 -0.01375000
v 0.02560000 -0.00700000 -0.01375000
v 0.01977100 0.00647100 -0.01375000
v 0.02203500 0.00995200 -0.01375000
v 0.02101500 0.00495600 -0.01375000
v 0.02241000 0.00983800 -0.01375000
v 0.02193900 0.00322700 -0.01375000
v 0.02280000 0.00980000 -0.01375000
v 0.02510000 0.00980000 -0.01375000
v 0.02095200 0.01103500 -0.01375000
v 0.02113700 0.01068900 -0.01375000
v 0.01825600 0.00771500 -0.01375000
v 0.02138600 0.01038600 -0.01375000
v 0.02168900 0.01013700 -0.01375000
v 0.02698600 -0.00607400 -0.01375000
v 0.02420000 -0.00700000 -0.01375000
v 0.02362600 -0.00688600 -0.01375000
v 0.02313900 -0.00656100 -0.01375000
v 0.02281400 -0.00607400 -0.01375000
v 0.02549000 0.00976200 -0.01375000
v 0.02586500 0.00964800 -0.01375000
v 0.02621100 0.00946300 -0.01375000
v 0.02250800 0.00135100 -0.01375000
v 0.02706200 0.00819000 -0.01375000
v 0.02694800 0.00856500 -0.01375000
v 0.02651400 0.00921400 -0.01375000
v 0.02676300 0.00891100 -0.01375000
v 0.02080000 0.01420000 0.01375000
v 0.00100000 0.01090000 0.01375000
v 0.00100000 0.01090000 0.01425000
v 0.00264800 0.01072800 0.01375000
v 0.00264800 0.01072800 0.01425000
v 0.00422500 0.01022100 0.01375000
v 0.00422500 0.01022100 0.01425000
v 0.00566400 0.00940000 0.01375000
v 0.00566400 0.00940000 0.01425000
v 0.01270000 0.00940000 0.01375000
v 0.01270000 0.00940000 0.01425000
v 0.01465100 0.00920800 0.01375000
v 0.01465100 0.00920800 0.01425000
v 0.01652700 0.00863900 0.01375000
v 0.01652700 0.00863900 0.01425000
v 0.01825600 0.00771500 0.01375000
v 0.01825600 0.00771500 0.01425000
v 0.01977100 0.00647100 0.01375000
v 0.01977100 0.00647100 0.01425000
v 0.02101500 0.00495600 0.01375000
v 0.02101500 0.00495600 0.01425000
v 0.02193900 0.00322700 0.01375000
v 0.02193900 0.00322700 0.01425000
v 0.02250800 0.00135100 0.01375000
v 0.02250800 0.00135100 0.01425000
v 0.02270000 -0.00060000 0.01375000
v 0.02270000 -0.00060000 0.01425000
v 0.02270000 -0.00550000 0.01425000
v 0.02270000 -0.00550000 0.01375000
v 0.02281400 -0.00607400 0.01425000
v 0.02281400 -0.00607400 0.01375000
v 0.02313900 -0.00656100 0.01425000
v 0.02313900 -0.00656100 0.01375000
v 0.02362600 -0.00688600 0.01425000
v 0.02362600 -0.00688600 0.01375000
v 0.02420000 -0.00700000 0.01425000
v 0.02420000 -0.00700000 0.01375000
v 0.02560000 -0.00700000 0.01375000
v 0.02560000 -0.00700000 0.01425000
v 0.02710000 -0.00550000 0.01425000
v 0.02710000 -0.00550000 0.01375000
v 0.02698600 -0.00607400 0.01375000
v 0.02698600 -0.00607400 0.01425000
v 0.02666100 -0.00656100 0.01375000
v 0.02666100 -0.00656100 0.01425000
v 0.02617400 -0.00688600 0.01375000
v 0.02617400 -0.00688600 0.01425000
v 0.02710000 0.00780000 0.01375000
v 0.02710000 0.00780000 0.01425000
v 0.02706200 0.00819000 0.01425000
v 0.02706200 0.00819000 0.01375000
v 0.02694800 0.00856500 0.01425000
v 0.02694800 0.00856500 0.01375000
v 0.02676300 0.00891100 0.01425000
v 0.02676300 0.00891100 0.01375000
v 0.02651400 0.00921400 0.01425000
v 0.02651400 0.00921400 0.01375000
v 0.02621100 0.00946300 0.01425000
v 0.02621100 0.00946300 0.01375000
v 0.02586500 0.00964800 0.01425000
v 0.02586500 0.00964800 0.01375000
v 0.02549000 0.00976200 0.01425000
v 0.02549000 0.00976200 0.01375000
v 0.02510000 0.00980000 0.01425000
v 0.02510000 0.00980000 0.01375000
v 0.02280000 0.00980000 0.01375000
v 0.02280000 0.00980000 0.01425000
v 0.02080000 0.01470000 -0.01375000
v 0.02080000 0.01466200 -0.01394100
v 0.02080000 0.01180000 0.01425000
v 0.02083800 0.01141000 0.01425000
v -0.00000000 0.01090000 0.01425000
v 0.02203500 0.00995200 0.01425000
v 0.02241000 0.00983800 0.01425000
v 0.02095200 0.01103500 0.01425000
v 0.02113700 0.01068900 0.01425000
v 0.02138600 0.01038600 0.01425000
v 0.02168900 0.01013700 0.01425000
v 0.02080000 0.01180000 0.01375000
v 0.02083800 0.01141000 0.01375000
v 0.02095200 0.01103500 0.01375000
v 0.02113700 0.01068900 0.01375000
v 0.02138600 0.01038600 0.01375000
v 0.02168900 0.01013700 0.01375000
v 0.02203500 0.00995200 0.01375000
v 0.02241000 0.00983800 0.01375000
v -0.00000000 0.01090000 0.01375000
v 0.02800000 -0.00680000 0.01350000
v 0.02761700 -0.00687600 0.01350000
v 0.02716900 -0.00724400 0.01350000
v 0.02700000 -0.00780000 0.01350000
v 0.02700000 -0.00980000 0.01350000
v 0.05770000 0.00680000 0.01350000
v 0.05770000 0.00420000 0.01350000
v 0.05470000 0.00980000 0.01350000
v 0.05040800 -0.00680000 0.01350000
v 0.05746800 0.00166000 0.01350000
v 0.05528500 0.00974200 0.01350000
v 0.05584800 0.00957200 0.01350000
v 0.05764200 0.00738500 0.01350000
v 0.05747200 0.00794800 0.01350000
v 0.05677800 -0.00079600 0.01350000
v 0.05565500 -0.00308500 0.01350000
v 0.05413500 -0.00513300 0.01350000
v 0.05636700 0.00929400 0.01350000
v 0.05682100 0.00892100 0.01350000
v 0.05719400 0.00846700 0.01350000
v 0.05335700 -0.00583800 0.01350000
v 0.05244900 -0.00636400 0.01350000
v 0.05145200 -0.00669000 0.01350000
v 0.05413500 -0.00513300 0.01130000
v 0.05565500 -0.00308500 0.01130000
v 0.05677800 -0.00079600 0.01130000
v 0.05746800 0.00166000 0.01130000
v 0.05770000 0.00420000 0.01130000
v 0.02700000 0.00980000 0.01130000
v 0.02700000 0.00980000 0.00950000
v 0.02700000 -0.00780000 0.01130000
v 0.02700000 -0.00980000 0.00950000
v 0.05040800 -0.00680000 0.01130000
v 0.05145200 -0.00669000 0.01130000
v 0.05244900 -0.00636400 0.01130000
v 0.05335700 -0.00583800 0.01130000
v 0.02800000 -0.00680000 0.01130000
v 0.02716900 -0.00724400 0.01130000
v 0.02761700 -0.00687600 0.01130000
v 0.05770000 0.00680000 0.01130000
v 0.05764200 0.00738500 0.01130000
v 0.05747200 0.00794800 0.01130000
v 0.05719400 0.00846700 0.01130000
v 0.05682100 0.00892100 0.01130000
v 0.05636700 0.00929400 0.01130000
v 0.05584800 0.00957200 0.01130000
v 0.05528500 0.00974200 0.01130000
v 0.05470000 0.00980000 0.01130000
v 0.02700000 -0.00980000 -0.01110000
v 0.02700000 -0.00980000 -0.01350000
v 0.02700000 0.00980000 -0.01110000
v 0.02700000 0.00980000 -0.01150000
v 0.05470000 0.00980000 -0.01150000
v 0.05470000 0.00980000 -0.01350000
v 0.05040800 -0.00680000 -0.01150000
v 0.05040800 -0.00680000 -0.01350000
v 0.02800000 -0.00680000 -0.01150000
v 0.02800000 -0.00680000 -0.01350000
v 0.05145200 -0.00669000 -0.01150000
v 0.05145200 -0.00669000 -0.01350000
v 0.05244900 -0.00636400 -0.01150000
v 0.05244900 -0.00636400 -0.01350000
v 0.05335700 -0.00583800 -0.01150000
v 0.05335700 -0.00583800 -0.01350000
v 0.05413500 -0.00513300 -0.01150000
v 0.05413500 -0.00513300 -0.01350000
v 0.02744400 -0.00696900 -0.01150000
v 0.02707600 -0.00741700 -0.01150000
v 0.02700000 -0.00780000 -0.01150000
v 0.05764200 0.00738500 -0.01150000
v 0.05770000 0.00680000 -0.01150000
v 0.05770000 0.00420000 -0.01150000
v 0.05677800 -0.00079600 -0.01150000
v 0.05565500 -0.00308500 -0.01150000
v 0.05746800 0.00166000 -0.01150000
v 0.05528500 0.00974200 -0.01150000
v 0.05584800 0.00957200 -0.01150000
v 0.05636700 0.00929400 -0.01150000
v 0.05682100 0.00892100 -0.01150000
v 0.05719400 0.00846700 -0.01150000
v 0.05747200 0.00794800 -0.01150000
v 0.02744400 -0.00696900 -0.01350000
v 0.02707600 -0.00741700 -0.01350000
v 0.02700000 -0.00780000 -0.01350000
v 0.05770000 0.00420000 -0.01350000
v 0.05565500 -0.00308500 -0.01350000
v 0.05764200 0.00738500 -0.01350000
v 0.05747200 0.00794800 -0.01350000
v 0.05677800 -0.00079600 -0.01350000
v 0.05746800 0.00166000 -0.01350000
v 0.05770000 0.00680000 -0.01350000
v 0.05528500 0.00974200 -0.01350000
v 0.05584800 0.00957200 -0.01350000
v 0.05636700 0.00929400 -0.01350000
v 0.05719400 0.00846700 -0.01350000
v 0.05682100 0.00892100 -0.01350000
f 3 2 1
f 3 4 2
f 5 4 3
f 5 6 4
f 7 6 5
f 7 8 6
f 9 8 7
f 9 10 8
f 11 10 9
f 11 12 10
f 13 12 11
f 13 14 12
f 15 14 13
f 15 16 14
f 17 16 15
f 17 18 16
f 20 17 19
f 20 18 17
f 23 22 21
f 23 24 22
f 25 23 21
f 25 26 23
f 27 26 25
f 27 28 26
f 29 28 27
f 29 30 28
f 31 30 29
f 31 32 30
f 33 32 31
f 33 34 32
f 35 34 33
f 35 36 34
f 37 36 35
f 37 38 36
f 39 38 37
f 39 40 38
f 2 39 1
f 2 40 39
f 43 42 41
f 43 44 42
f 45 44 43
f 45 46 44
f 20 46 45
f 20 19 46
f 47 22 24
f 47 48 22
f 49 48 47
f 49 50 48
f 51 50 49
f 51 52 50
f 51 42 52
f 51 41 42
f 23 18 20
f 16 18 2
f 24 49 47
f 24 51 49
f 8 12 6
f 8 10 12
f 2 14 16
f 2 12 14
f 4 12 2
f 4 6 12
f 41 45 43
f 41 20 45
f 51 20 41
f 51 23 20
f 24 23 51
f 23 2 18
f 23 40 2
f 38 40 23
f 23 30 32
f 23 28 30
f 26 28 23
f 23 36 38
f 23 34 36
f 32 34 23
f 55 54 53
f 56 55 53
f 56 57 55
f 58 57 56
f 58 59 57
f 60 59 58
f 60 61 59
f 62 61 60
f 62 63 61
f 64 63 62
f 64 65 63
f 66 65 64
f 66 67 65
f 68 67 66
f 68 69 67
f 70 69 68
f 73 72 71
f 76 75 74
f 76 77 75
f 72 77 76
f 72 78 77
f 73 78 72
f 81 80 79
f 81 82 80
f 75 83 74
f 75 82 83
f 84 82 75
f 84 80 82
f 87 86 85
f 87 88 86
f 89 88 87
f 73 87 85
f 73 90 87
f 71 90 73
f 92 54 91
f 92 53 54
f 95 94 93
f 93 96 95
f 93 97 96
f 98 97 93
f 101 100 99
f 101 102 100
f 93 103 98
f 93 104 103
f 105 104 93
f 105 106 104
f 107 106 105
f 101 108 102
f 101 109 108
f 110 109 101
f 113 112 111
f 101 115 114
f 101 116 115
f 99 116 101
f 111 117 113
f 111 118 117
f 106 118 111
f 106 119 118
f 107 119 106
f 120 111 112
f 120 121 111
f 122 121 120
f 121 124 123
f 121 125 124
f 122 125 121
f 115 126 114
f 115 127 126
f 121 127 115
f 121 128 127
f 123 128 121
f 131 130 129
f 131 132 130
f 94 129 93
f 94 131 129
f 75 131 94
f 75 77 131
f 133 130 132
f 134 133 132
f 134 135 133
f 136 135 134
f 136 137 135
f 138 137 136
f 138 139 137
f 140 139 138
f 140 141 139
f 142 141 140
f 142 143 141
f 144 143 142
f 144 145 143
f 146 145 144
f 146 91 145
f 92 91 146
f 71 72 121
f 115 71 121
f 115 90 71
f 116 90 115
f 116 87 90
f 99 87 116
f 99 89 87
f 100 89 99
f 100 88 89
f 102 88 100
f 102 86 88
f 108 86 102
f 108 85 86
f 109 85 108
f 109 73 85
f 110 73 109
f 121 76 111
f 121 72 76
f 106 111 76
f 74 106 76
f 74 104 106
f 83 104 74
f 83 103 104
f 82 103 83
f 82 98 103
f 81 98 82
f 81 97 98
f 79 97 81
f 79 96 97
f 80 96 79
f 80 95 96
f 84 95 80
f 84 94 95
f 75 94 84
f 148 147 120
f 112 148 120
f 112 149 148
f 113 149 112
f 113 150 149
f 117 150 113
f 117 151 150
f 118 151 117
f 118 152 151
f 119 152 118
f 119 153 152
f 107 153 119
f 107 154 153
f 105 154 107
f 105 129 154
f 93 129 105
f 155 77 78
f 155 131 77
f 69 101 156
f 69 110 101
f 155 69 70
f 155 110 69
f 78 110 155
f 78 73 110
f 54 69 156
f 158 156 157
f 158 54 156
f 147 54 158
f 147 91 54
f 54 67 69
f 54 65 67
f 55 65 54
f 55 57 65
f 65 61 63
f 65 59 61
f 57 59 65
f 147 130 91
f 147 129 130
f 148 129 147
f 148 154 129
f 153 154 148
f 159 158 157
f 159 160 158
f 161 160 159
f 159 162 161
f 159 163 162
f 164 163 159
f 130 145 91
f 130 143 145
f 133 143 130
f 133 141 143
f 133 139 141
f 133 137 139
f 135 137 133
f 148 152 153
f 148 151 152
f 149 151 148
f 149 150 151
f 1 17 15
f 31 29 27
f 25 31 27
f 39 17 1
f 44 46 19
f 52 48 50
f 52 22 48
f 21 22 52
f 21 37 35
f 21 39 37
f 21 17 39
f 52 17 21
f 52 19 17
f 42 19 52
f 42 44 19
f 21 31 25
f 21 33 31
f 35 33 21
f 11 5 3
f 11 7 5
f 9 7 11
f 1 11 3
f 1 13 11
f 15 13 1
f 122 147 158
f 122 120 147
f 157 156 101
f 114 157 101
f 114 159 157
f 126 159 114
f 126 164 159
f 127 164 126
f 127 163 164
f 128 163 127
f 128 162 163
f 123 162 128
f 123 161 162
f 124 161 123
f 124 160 161
f 125 160 124
f 125 158 160
f 122 158 125
f 132 92 146
f 53 70 68
f 53 155 70
f 92 155 53
f 92 131 155
f 132 131 92
f 66 53 68
f 66 56 53
f 58 56 66
f 66 60 58
f 66 62 60
f 64 62 66
f 144 132 146
f 144 134 132
f 136 134 144
f 144 138 136
f 144 140 138
f 142 140 144
f 167 166 165
f 167 168 166
f 171 170 169
f 171 172 170
f 174 171 173
f 174 172 171
f 175 172 174
f 175 176 172
f 174 177 175
f 174 178 177
f 181 180 179
f 179 182 181
f 179 183 182
f 184 183 179
f 170 186 185
f 170 187 186
f 179 188 184
f 179 189 188
f 190 189 179
f 190 191 189
f 192 191 190
f 170 193 187
f 170 194 193
f 172 194 170
f 196 195 165
f 170 198 197
f 170 199 198
f 185 199 170
f 165 200 196
f 165 201 200
f 191 201 165
f 191 202 201
f 192 202 191
f 203 165 195
f 203 167 165
f 204 167 203
f 167 206 205
f 167 207 206
f 204 207 167
f 198 208 197
f 198 209 208
f 167 209 198
f 167 210 209
f 205 210 167
f 211 169 170
f 197 211 170
f 197 212 211
f 208 212 197
f 208 213 212
f 209 213 208
f 209 214 213
f 210 214 209
f 210 215 214
f 205 215 210
f 205 216 215
f 206 216 205
f 206 217 216
f 207 217 206
f 207 218 217
f 204 218 207
f 191 165 166
f 219 191 166
f 219 189 191
f 220 189 219
f 220 188 189
f 221 188 220
f 221 184 188
f 222 184 221
f 222 183 184
f 223 183 222
f 223 182 183
f 224 182 223
f 224 181 182
f 225 181 224
f 225 180 181
f 226 180 225
f 227 171 169
f 218 169 211
f 218 227 169
f 228 227 218
f 228 229 227
f 227 230 171
f 227 231 230
f 232 231 227
f 232 233 231
f 231 235 234
f 231 236 235
f 233 236 231
f 228 237 229
f 228 238 237
f 239 238 228
f 239 240 238
f 241 240 239
f 212 218 211
f 212 217 218
f 216 217 212
f 212 215 216
f 212 214 215
f 213 214 212
f 237 242 229
f 237 243 242
f 244 243 237
f 244 245 243
f 244 246 245
f 244 247 246
f 248 247 244
f 239 249 241
f 239 250 249
f 251 250 239
f 251 252 250
f 176 168 253
f 166 226 219
f 166 177 226
f 168 177 166
f 168 175 177
f 176 175 168
f 222 224 223
f 222 221 224
f 226 220 219
f 226 221 220
f 225 221 226
f 225 224 221
f 256 255 254
f 256 257 255
f 258 257 256
f 176 256 254
f 176 259 256
f 253 259 176
f 203 218 204
f 203 228 218
f 253 168 167
f 198 253 167
f 198 259 253
f 199 259 198
f 199 256 259
f 185 256 199
f 185 258 256
f 186 258 185
f 186 257 258
f 187 257 186
f 187 255 257
f 193 255 187
f 193 254 255
f 194 254 193
f 194 176 254
f 172 176 194
f 227 261 260
f 227 229 261
f 239 228 203
f 195 239 203
f 195 251 239
f 196 251 195
f 196 252 251
f 200 252 196
f 200 250 252
f 201 250 200
f 201 249 250
f 202 249 201
f 202 241 249
f 192 241 202
f 192 240 241
f 190 240 192
f 190 238 240
f 179 238 190
f 238 179 180
f 178 262 237
f 178 226 177
f 178 180 226
f 237 180 178
f 237 238 180
f 244 237 262
f 263 244 262
f 263 248 244
f 264 248 263
f 264 247 248
f 265 247 264
f 265 246 247
f 266 246 265
f 266 245 246
f 267 245 266
f 267 243 245
f 268 243 267
f 268 242 243
f 269 242 268
f 269 229 242
f 261 229 269
f 232 227 260
f 270 232 260
f 270 233 232
f 271 233 270
f 271 236 233
f 272 236 271
f 272 235 236
f 273 235 272
f 273 234 235
f 274 234 273
f 274 231 234
f 275 231 274
f 275 230 231
f 276 230 275
f 276 171 230
f 173 171 276
f 262 261 269
f 260 173 276
f 260 174 173
f 261 174 260
f 261 178 174
f 262 178 261
f 275 260 276
f 275 270 260
f 271 270 275
f 275 272 271
f 275 273 272
f 274 273 275
f 268 262 269
f 268 263 262
f 264 263 268
f 268 265 264
f 268 266 265
f 267 266 268
f 91 130 129
f 147 129 154
f 147 91 129
f 158 91 147
f 158 54 91
f 91 133 130
f 91 135 133
f 145 135 91
f 145 143 135
f 135 139 137
f 135 141 139
f 143 141 135
f 158 69 54
f 158 156 69
f 160 156 158
f 160 157 156
f 159 157 160
f 153 147 154
f 153 148 147
f 149 148 153
f 153 150 149
f 153 151 150
f 152 151 153
f 69 55 54
f 69 57 55
f 67 57 69
f 67 59 57
f 67 61 59
f 67 63 61
f 65 63 67
f 160 164 159
f 160 163 164
f 161 163 160
f 161 162 163
f 145 91 227
f 232 145 227
f 232 143 145
f 233 143 232
f 233 141 143
f 236 141 233
f 236 139 141
f 235 139 236
f 235 137 139
f 234 137 235
f 234 135 137
f 231 135 234
f 231 133 135
f 230 133 231
f 230 130 133
f 171 130 230
f 212 218 217
f 229 218 227
f 229 228 218
f 211 218 212
f 239 240 241
f 239 238 240
f 228 238 239
f 229 238 228
f 229 237 238
f 242 237 229
f 232 231 233
f 232 227 231
f 227 230 231
f 227 171 230
f 218 171 227
f 218 169 171
f 211 169 218
f 250 252 251
f 231 236 233
f 231 235 236
f 234 235 231
f 215 214 213
f 212 215 213
f 212 216 215
f 217 216 212
f 239 250 251
f 239 249 250
f 241 249 239
f 243 237 242
f 243 244 237
f 248 244 243
f 243 247 248
f 243 246 247
f 245 246 243
f 91 229 227
f 91 54 229
f 154 129 169
f 211 154 169
f 211 153 154
f 212 153 211
f 212 152 153
f 213 152 212
f 213 151 152
f 214 151 213
f 214 150 151
f 215 150 214
f 215 149 150
f 216 149 215
f 216 148 149
f 217 148 216
f 217 147 148
f 218 147 217
f 129 171 169
f 129 130 171
f 218 158 147
f 218 228 158
f 160 158 228
f 239 160 228
f 239 161 160
f 251 161 239
f 251 162 161
f 252 162 251
f 252 163 162
f 250 163 252
f 250 164 163
f 249 164 250
f 249 159 164
f 241 159 249
f 241 157 159
f 240 157 241
f 240 156 157
f 238 156 240
f 238 69 156
f 238 237 69
f 67 69 237
f 244 67 237
f 244 65 67
f 248 65 244
f 248 63 65
f 247 63 248
f 247 61 63
f 246 61 247
f 246 59 61
f 245 59 246
f 245 57 59
f 243 57 245
f 243 55 57
f 242 55 243
f 242 54 55
f 229 54 242
f 279 278 277
f 279 280 278
f 281 280 279
f 284 283 282
f 284 285 283
f 284 286 285
f 284 287 286
f 280 287 284
f 280 288 287
f 281 288 280
f 281 279 289
f 290 281 289
f 290 288 281
f 291 288 290
f 292 283 285
f 295 294 293
f 298 297 296
f 301 300 299
f 301 302 300
f 303 302 301
f 304 294 295
f 304 305 294
f 306 305 304
f 303 307 302
f 303 308 307
f 309 308 303
f 312 311 310
f 285 313 292
f 285 314 313
f 315 314 285
f 315 296 314
f 316 296 315
f 316 298 296
f 317 298 316
f 317 318 298
f 319 318 317
f 319 320 318
f 321 320 319
f 321 309 320
f 322 309 321
f 322 308 309
f 301 295 293
f 301 323 295
f 324 323 301
f 301 325 324
f 301 326 325
f 327 326 301
f 306 310 328
f 306 312 310
f 304 312 306
f 304 329 312
f 301 330 327
f 301 331 330
f 299 331 301
f 304 332 329
f 304 333 332
f 334 333 304
f 337 336 335
f 340 339 338
f 341 336 337
f 339 342 338
f 339 343 342
f 344 343 339
f 346 282 345
f 346 284 282
f 347 284 346
f 347 338 284
f 348 338 347
f 348 340 338
f 349 340 348
f 352 351 350
f 355 354 353
f 355 356 354
f 357 356 355
f 357 358 356
f 359 358 357
f 344 360 343
f 344 361 360
f 362 361 344
f 362 363 361
f 353 363 362
f 353 364 363
f 354 364 353
f 337 350 365
f 337 352 350
f 335 352 337
f 335 366 352
f 335 367 366
f 335 368 367
f 369 368 335
f 357 370 359
f 357 371 370
f 372 371 357
f 341 373 336
f 341 357 373
f 374 357 341
f 374 375 357
f 357 376 372
f 357 377 376
f 375 377 357
f 378 284 338
f 378 280 284
f 381 380 379
f 381 382 380
f 383 382 381
f 383 384 382
f 385 384 383
f 385 386 384
f 387 386 385
f 387 388 386
f 389 388 387
f 389 390 388
f 391 390 389
f 391 392 390
f 393 392 391
f 393 394 392
f 395 394 393
f 395 396 394
f 397 396 395
f 397 398 396
f 399 398 397
f 399 400 398
f 401 400 399
f 401 402 400
f 403 402 401
f 403 404 402
f 404 406 405
f 404 403 406
f 407 405 406
f 408 407 406
f 408 409 407
f 410 409 408
f 410 411 409
f 412 411 410
f 412 413 411
f 414 413 412
f 416 414 415
f 416 413 414
f 419 418 417
f 420 419 417
f 420 421 419
f 422 421 420
f 422 423 421
f 424 423 422
f 424 415 423
f 416 415 424
f 425 417 418
f 425 426 417
f 427 426 425
f 428 427 425
f 428 429 427
f 430 429 428
f 430 431 429
f 432 431 430
f 432 433 431
f 434 433 432
f 434 435 433
f 436 435 434
f 436 437 435
f 438 437 436
f 438 439 437
f 440 439 438
f 440 441 439
f 442 441 440
f 443 441 442
f 443 444 441
f 334 304 337
f 365 334 337
f 365 333 334
f 350 333 365
f 350 332 333
f 351 332 350
f 351 329 332
f 352 329 351
f 352 312 329
f 352 366 312
f 369 335 306
f 328 369 306
f 328 368 369
f 310 368 328
f 310 367 368
f 311 367 310
f 311 366 367
f 312 366 311
f 445 288 291
f 445 287 288
f 336 306 335
f 336 305 306
f 286 287 445
f 446 286 445
f 446 285 286
f 315 285 446
f 298 349 297
f 298 340 349
f 417 404 405
f 388 390 289
f 426 404 417
f 390 447 289
f 390 448 447
f 392 448 390
f 380 277 449
f 380 279 277
f 382 279 380
f 382 289 279
f 384 289 382
f 384 388 289
f 386 388 384
f 416 424 422
f 398 450 396
f 398 451 450
f 400 451 398
f 400 444 451
f 441 444 400
f 392 452 448
f 392 453 452
f 394 453 392
f 394 454 453
f 396 454 394
f 396 455 454
f 450 455 396
f 417 422 420
f 417 416 422
f 405 416 417
f 405 413 416
f 405 411 413
f 405 409 411
f 407 409 405
f 400 439 441
f 400 437 439
f 435 437 400
f 426 402 404
f 426 400 402
f 427 400 426
f 427 429 400
f 400 433 435
f 400 431 433
f 429 431 400
f 448 456 447
f 448 457 456
f 452 457 448
f 452 458 457
f 453 458 452
f 453 459 458
f 454 459 453
f 454 460 459
f 455 460 454
f 455 461 460
f 450 461 455
f 450 462 461
f 451 462 450
f 451 463 462
f 444 463 451
f 444 443 463
f 316 338 342
f 316 315 338
f 289 378 290
f 289 456 378
f 447 456 289
f 378 291 290
f 378 445 291
f 338 445 378
f 338 446 445
f 315 446 338
f 318 340 298
f 318 339 340
f 320 339 318
f 320 344 339
f 309 344 320
f 309 362 344
f 303 362 309
f 303 353 362
f 301 353 303
f 301 355 353
f 293 355 301
f 293 357 355
f 294 357 293
f 294 373 357
f 305 373 294
f 305 336 373
f 295 337 304
f 295 341 337
f 374 341 295
f 323 374 295
f 323 375 374
f 324 375 323
f 324 377 375
f 325 377 324
f 325 376 377
f 326 376 325
f 326 372 376
f 327 372 326
f 327 371 372
f 330 371 327
f 330 370 371
f 331 370 330
f 331 359 370
f 299 359 331
f 300 359 299
f 300 358 359
f 343 316 342
f 343 317 316
f 360 317 343
f 360 319 317
f 361 319 360
f 361 321 319
f 363 321 361
f 363 322 321
f 364 322 363
f 364 308 322
f 354 308 364
f 354 307 308
f 356 307 354
f 356 302 307
f 358 302 356
f 358 300 302
f 292 282 283
f 292 345 282
f 346 292 313
f 346 345 292
f 314 346 313
f 314 347 346
f 296 347 314
f 296 348 347
f 297 348 296
f 297 349 348
f 464 380 449
f 464 379 380
f 464 278 280
f 397 463 443
f 425 401 399
f 387 385 383
f 395 463 397
f 397 432 430
f 280 379 464
f 280 381 379
f 378 381 280
f 378 383 381
f 456 383 378
f 456 387 383
f 457 387 456
f 457 389 387
f 458 389 457
f 458 391 389
f 459 391 458
f 459 393 391
f 395 462 463
f 395 461 462
f 393 461 395
f 393 460 461
f 459 460 393
f 418 401 425
f 418 403 401
f 406 403 418
f 414 412 410
f 397 434 432
f 397 436 434
f 438 436 397
f 397 425 399
f 397 428 425
f 430 428 397
f 397 440 438
f 397 442 440
f 443 442 397
f 406 410 408
f 406 414 410
f 418 414 406
f 418 415 414
f 418 423 415
f 418 421 423
f 419 421 418
f 464 277 278
f 464 449 277
f 177 466 465
f 177 467 466
f 175 467 177
f 175 468 467
f 469 468 175
f 472 471 470
f 472 177 471
f 473 177 465
f 473 471 177
f 474 471 473
f 470 475 472
f 470 476 475
f 477 476 470
f 477 478 476
f 473 479 474
f 473 480 479
f 481 480 473
f 476 483 482
f 476 484 483
f 478 484 476
f 473 485 481
f 473 486 485
f 487 486 473
f 480 481 488
f 489 480 488
f 489 479 480
f 490 479 489
f 490 474 479
f 491 474 490
f 491 471 474
f 492 471 491
f 495 494 493
f 495 496 494
f 468 496 495
f 468 469 496
f 487 473 497
f 498 487 497
f 498 486 487
f 499 486 498
f 499 485 486
f 500 485 499
f 500 481 485
f 488 481 500
f 496 175 174
f 496 469 175
f 465 497 473
f 465 501 497
f 175 178 174
f 175 177 178
f 502 468 495
f 502 467 468
f 503 467 502
f 503 466 467
f 501 466 503
f 501 465 466
f 477 470 504
f 505 477 504
f 505 478 477
f 506 478 505
f 506 484 478
f 507 484 506
f 507 483 484
f 508 483 507
f 508 482 483
f 509 482 508
f 509 476 482
f 510 476 509
f 510 475 476
f 511 475 510
f 511 472 475
f 512 472 511
f 178 496 174
f 178 494 496
f 502 495 493
f 497 490 489
f 504 512 511
f 504 493 512
f 492 493 504
f 493 503 502
f 493 501 503
f 492 501 493
f 492 497 501
f 491 497 492
f 491 490 497
f 499 498 497
f 510 504 511
f 510 505 504
f 506 505 510
f 497 500 499
f 497 488 500
f 489 488 497
f 510 507 506
f 510 508 507
f 509 508 510
f 493 472 512
f 493 177 472
f 494 177 493
f 494 178 177
f 471 504 470
f 471 492 504
f 77 513 131
f 77 514 513
f 516 155 515
f 516 78 155
f 517 78 516
f 517 518 78
f 521 520 519
f 521 522 520
f 78 131 155
f 78 77 131
f 523 519 520
f 524 523 520
f 524 525 523
f 526 525 524
f 526 527 525
f 528 527 526
f 528 529 527
f 530 529 528
f 516 521 519
f 516 531 521
f 516 532 531
f 533 532 516
f 517 535 534
f 517 536 535
f 516 536 517
f 519 538 537
f 519 529 538
f 519 536 516
f 519 539 536
f 537 539 519
f 517 541 540
f 517 542 541
f 543 542 517
f 529 525 527
f 529 523 525
f 519 523 529
f 517 544 543
f 517 545 544
f 534 545 517
f 531 522 521
f 531 546 522
f 532 546 531
f 532 547 546
f 533 547 532
f 533 548 547
f 78 546 547
f 548 78 547
f 548 77 78
f 514 77 548
f 549 520 522
f 520 550 530
f 518 552 551
f 520 553 550
f 520 554 553
f 549 554 520
f 78 522 546
f 78 549 522
f 518 549 78
f 518 555 549
f 551 555 518
f 528 520 530
f 528 524 520
f 526 524 528
f 557 518 556
f 557 558 518
f 518 559 552
f 518 560 559
f 558 560 518
f 533 516 515
f 533 514 548
f 533 513 514
f 515 513 533
f 535 549 555
f 535 536 549
f 131 515 155
f 131 513 515
f 556 518 517
f 540 556 517
f 540 557 556
f 541 557 540
f 541 558 557
f 542 558 541
f 542 560 558
f 543 560 542
f 543 559 560
f 544 559 543
f 544 552 559
f 545 552 544
f 545 551 552
f 534 551 545
f 534 555 551
f 535 555 534
f 554 549 536
f 539 554 536
f 539 553 554
f 537 553 539
f 537 550 553
f 538 550 537
f 538 530 550
f 529 530 538

