# https://github.com/mikedh/trimesh
v 0.03537000 -0.00345300 0.00000000
v 0.03785400 -0.00331900 0.00000000
v 0.03800000 0.00000000 0.00000000
v 0.03800000 -0.00000000 0.00366500
v 0.03537000 -0.00000000 0.00000000
v 0.03785400 0.00331900 0.00000000
v 0.03782800 0.00361200 0.00366500
v 0.03742300 -0.00659700 0.00000000
v 0.03782800 -0.00361200 0.00366500
v 0.03537000 -0.00690700 0.00000000
v 0.03670400 -0.00983700 0.00000000
v 0.03731300 -0.00719200 0.00366500
v 0.03537000 -0.01036000 0.00000000
v 0.03570900 -0.01299500 0.00000000
v 0.03646100 -0.01070600 0.00366500
v 0.03539600 -0.01382500 0.00000000
v 0.03170100 -0.01044800 0.00000000
v 0.03170100 -0.01393100 0.00000000
v 0.03443900 -0.01606100 0.00000000
v 0.03527800 -0.01412300 0.00366500
v 0.03170100 -0.00696500 0.00000000
v 0.03170100 -0.00348300 0.00000000
v 0.03537000 0.00345300 0.00000000
v 0.03170100 0.00000000 0.00000000
v 0.03742300 0.00659700 0.00000000
v 0.03537000 0.00690700 0.00000000
v 0.03170100 0.00348300 0.00000000
v 0.03670400 0.00983700 0.00000000
v 0.03537000 0.01036000 0.00000000
v 0.03170100 0.00696500 0.00000000
v 0.03570900 0.01299500 0.00000000
v 0.03539600 0.01382500 0.00000000
v 0.03170100 0.01044800 0.00000000
v 0.03527800 0.01412300 0.00366500
v 0.03170100 0.01393100 0.00000000
v 0.03443900 0.01606100 0.00000000
v 0.03646100 0.01070600 0.00366500
v 0.03731300 0.00719200 0.00366500
v 0.03170100 -0.01741300 0.00000000
v 0.03290900 -0.01900000 0.00000000
v 0.03377600 -0.01741300 0.00366500
v 0.03172600 -0.02091500 0.00000000
v 0.03196800 -0.02054400 0.00366500
v 0.02803200 -0.01828700 0.00000000
v 0.02803200 -0.02194400 0.00000000
v 0.03112900 -0.02179500 0.00000000
v 0.02803200 -0.01462900 0.00000000
v 0.02803200 -0.01097200 0.00000000
v 0.02803200 -0.00731500 0.00000000
v 0.02803200 -0.00365700 0.00000000
v 0.02803200 -0.00000000 0.00000000
v 0.02803200 0.00365700 0.00000000
v 0.02803200 0.00731500 0.00000000
v 0.02803200 0.01097200 0.00000000
v 0.03170100 0.01741300 0.00000000
v 0.02803200 0.01462900 0.00000000
v 0.03290900 0.01900000 0.00000000
v 0.03172600 0.02091500 0.00000000
v 0.02803200 0.01828700 0.00000000
v 0.03196800 0.02054400 0.00366500
v 0.03112900 0.02179500 0.00000000
v 0.02987000 0.02349000 0.00366500
v 0.03377600 0.01741300 0.00366500
v 0.02910800 -0.02442700 0.00000000
v 0.02987000 -0.02349000 0.00366500
v 0.02805800 -0.02562700 0.00000000
v 0.02436400 -0.02543400 0.00000000
v 0.02440800 -0.02912500 0.00000000
v 0.02687100 -0.02686800 0.00000000
v 0.02750200 -0.02622300 0.00366500
v 0.02436400 -0.02180100 0.00000000
v 0.02436400 -0.01816700 0.00000000
v 0.02436400 -0.01453400 0.00000000
v 0.02436400 -0.01090000 0.00000000
v 0.02436400 -0.00726700 0.00000000
v 0.02436400 -0.00363300 0.00000000
v 0.02436400 -0.00000000 0.00000000
v 0.02436400 0.00726700 0.00000000
v 0.02436400 0.00363300 0.00000000
v 0.02436400 0.01090000 0.00000000
v 0.02436400 0.01453400 0.00000000
v 0.02436400 0.01816700 0.00000000
v 0.02803200 0.02194400 0.00000000
v 0.02436400 0.02180100 0.00000000
v 0.02910800 0.02442700 0.00000000
v 0.02805800 0.02562700 0.00000000
v 0.02436400 0.02543400 0.00000000
v 0.02750200 0.02622300 0.00366500
v 0.02687100 0.02686800 0.00000000
v 0.02488500 -0.02871800 0.00366500
v 0.02069500 -0.02824600 0.00000000
v 0.02073700 -0.03184300 0.00000000
v 0.02313400 -0.03014600 0.00000000
v 0.02069500 -0.02471500 0.00000000
v 0.02069500 -0.02118400 0.00000000
v 0.02069500 -0.01765400 0.00000000
v 0.02069500 -0.01412300 0.00000000
v 0.02069500 -0.01059200 0.00000000
v 0.02069500 -0.00706100 0.00000000
v 0.02069500 -0.00353100 0.00000000
v 0.02069500 -0.00000000 0.00000000
v 0.02069500 0.00706100 0.00000000
v 0.02069500 0.00353100 0.00000000
v 0.02069500 0.01059200 0.00000000
v 0.02069500 0.01412300 0.00000000
v 0.02069500 0.01765400 0.00000000
v 0.02069500 0.02118400 0.00000000
v 0.02069500 0.02471500 0.00000000
v 0.02440800 0.02912500 0.00000000
v 0.02069500 0.02824600 0.00000000
v 0.02488500 0.02871800 0.00366500
v 0.02313400 0.03014600 0.00000000
v 0.02204200 0.03095400 0.00366500
v 0.02204200 -0.03095400 0.00366500
v 0.01702600 -0.03031600 0.00000000
v 0.01706400 -0.03395300 0.00000000
v 0.01900000 -0.03290900 0.00000000
v 0.01702600 -0.02674900 0.00000000
v 0.01702600 -0.02318300 0.00000000
v 0.01702600 -0.01961600 0.00000000
v 0.01702600 -0.01604900 0.00000000
v 0.01702600 -0.01248300 0.00000000
v 0.01702600 -0.00891600 0.00000000
v 0.01702600 -0.00535000 0.00000000
v 0.01702600 -0.00178300 0.00000000
v 0.01702600 0.00178300 0.00000000
v 0.01702600 0.00535000 0.00000000
v 0.01702600 0.00891600 0.00000000
v 0.01702600 0.01248300 0.00000000
v 0.01702600 0.01604900 0.00000000
v 0.01702600 0.01961600 0.00000000
v 0.01702600 0.02318300 0.00000000
v 0.01702600 0.02674900 0.00000000
v 0.02073700 0.03184300 0.00000000
v 0.01702600 0.03031600 0.00000000
v 0.01900000 0.03290900 0.00000000
v 0.01900000 0.03290900 0.00366500
v 0.01900000 -0.03290900 0.00366500
v 0.01335800 -0.03195800 0.00000000
v 0.01338100 -0.03556600 0.00000000
v 0.01454000 -0.03510800 0.00000000
v 0.01578600 -0.03456600 0.00366500
v 0.01335800 -0.02840700 0.00000000
v 0.01335800 -0.02485700 0.00000000
v 0.01335800 -0.02130600 0.00000000
v 0.01335800 -0.01775500 0.00000000
v 0.01335800 -0.01420400 0.00000000
v 0.01335800 -0.01065300 0.00000000
v 0.01335800 -0.00710200 0.00000000
v 0.01335800 -0.00355100 0.00000000
v 0.01335800 -0.00000000 0.00000000
v 0.01335800 0.00355100 0.00000000
v 0.01335800 0.00710200 0.00000000
v 0.01335800 0.01065300 0.00000000
v 0.01335800 0.01420400 0.00000000
v 0.01335800 0.01775500 0.00000000
v 0.01335800 0.02130600 0.00000000
v 0.01335800 0.02485700 0.00000000
v 0.01335800 0.02840700 0.00000000
v 0.01706400 0.03395300 0.00000000
v 0.01335800 0.03195800 0.00000000
v 0.01578600 0.03456600 0.00366500
v 0.01454000 0.03510800 0.00000000
v 0.00968900 -0.03322700 0.00000000
v 0.00969200 -0.03674300 0.00000000
v 0.01162200 -0.03617900 0.00000000
v 0.01242900 -0.03591000 0.00366500
v 0.00968900 -0.02972900 0.00000000
v 0.00968900 -0.02623200 0.00000000
v 0.00968900 -0.02273400 0.00000000
v 0.00968900 -0.01923700 0.00000000
v 0.00968900 -0.01573900 0.00000000
v 0.00968900 -0.01224100 0.00000000
v 0.00968900 -0.00874400 0.00000000
v 0.00968900 -0.00524600 0.00000000
v 0.00968900 -0.00174900 0.00000000
v 0.00968900 0.00174900 0.00000000
v 0.00968900 0.00524600 0.00000000
v 0.00968900 0.00874400 0.00000000
v 0.00968900 0.01224100 0.00000000
v 0.00968900 0.01573900 0.00000000
v 0.00968900 0.01923700 0.00000000
v 0.00968900 0.02273400 0.00000000
v 0.00968900 0.02623200 0.00000000
v 0.00968900 0.02972900 0.00000000
v 0.01338100 0.03556600 0.00000000
v 0.00968900 0.03322700 0.00000000
v 0.01242900 0.03591000 0.00366500
v 0.01162200 0.03617900 0.00000000
v 0.00983300 -0.03670500 0.00000000
v 0.00602000 -0.03366400 0.00000000
v 0.00606500 -0.03751200 0.00000000
v 0.00789000 -0.03717200 0.00000000
v 0.00895900 -0.03692900 0.00366500
v 0.00602000 -0.03012000 0.00000000
v 0.00602000 -0.02657700 0.00000000
v 0.00602000 -0.02303300 0.00000000
v 0.00602000 -0.01949000 0.00000000
v 0.00602000 -0.01594600 0.00000000
v 0.00602000 -0.01240200 0.00000000
v 0.00602000 -0.00885900 0.00000000
v 0.00602000 -0.00531500 0.00000000
v 0.00602000 -0.00177200 0.00000000
v 0.00602000 0.00177200 0.00000000
v 0.00602000 0.00531500 0.00000000
v 0.00602000 0.00885900 0.00000000
v 0.00602000 0.01240200 0.00000000
v 0.00602000 0.01594600 0.00000000
v 0.00602000 0.01949000 0.00000000
v 0.00602000 0.02303300 0.00000000
v 0.00602000 0.02657700 0.00000000
v 0.00602000 0.03012000 0.00000000
v 0.00983300 0.03670500 0.00000000
v 0.00969200 0.03674300 0.00000000
v 0.00602000 0.03366400 0.00000000
v 0.00895900 0.03692900 0.00366500
v 0.00789000 0.03717200 0.00000000
v 0.00235200 -0.03410100 0.00000000
v 0.00237900 -0.03792500 0.00000000
v 0.00422400 -0.03776400 0.00000000
v 0.00540800 -0.03761300 0.00366500
v 0.00235200 -0.03051100 0.00000000
v 0.00235200 -0.02692100 0.00000000
v 0.00235200 -0.02333200 0.00000000
v 0.00235200 -0.01974200 0.00000000
v 0.00235200 -0.01615300 0.00000000
v 0.00235200 -0.01256300 0.00000000
v 0.00235200 -0.00897400 0.00000000
v 0.00235200 -0.00538400 0.00000000
v 0.00235200 -0.00179500 0.00000000
v 0.00235200 0.00179500 0.00000000
v 0.00235200 0.00538400 0.00000000
v 0.00235200 0.00897400 0.00000000
v 0.00235200 0.01256300 0.00000000
v 0.00235200 0.01615300 0.00000000
v 0.00235200 0.01974200 0.00000000
v 0.00235200 0.02333200 0.00000000
v 0.00235200 0.02692100 0.00000000
v 0.00235200 0.03051100 0.00000000
v 0.00606500 0.03751200 0.00000000
v 0.00235200 0.03410100 0.00000000
v 0.00540800 0.03761300 0.00366500
v 0.00237900 0.03792500 0.00000000
v 0.00422400 0.03776400 0.00000000
v -0.00131700 -0.03422400 0.00000000
v -0.00133400 -0.03797600 0.00000000
v 0.00000000 -0.03800000 0.00000000
v 0.00180800 -0.03795700 0.00366500
v -0.00131700 -0.03062100 0.00000000
v -0.00131700 -0.02701900 0.00000000
v -0.00131700 -0.02341600 0.00000000
v -0.00131700 -0.01981400 0.00000000
v -0.00131700 -0.01621100 0.00000000
v -0.00131700 -0.01260900 0.00000000
v -0.00131700 -0.00900600 0.00000000
v -0.00131700 -0.00540400 0.00000000
v -0.00131700 -0.00180100 0.00000000
v -0.00131700 0.00180100 0.00000000
v -0.00131700 0.00540400 0.00000000
v -0.00131700 0.00900600 0.00000000
v -0.00131700 0.01260900 0.00000000
v -0.00131700 0.01621100 0.00000000
v -0.00131700 0.01981400 0.00000000
v -0.00131700 0.02341600 0.00000000
v -0.00131700 0.02701900 0.00000000
v -0.00131700 0.03062100 0.00000000
v -0.00131700 0.03422400 0.00000000
v 0.00180800 0.03795700 0.00366500
v -0.00133400 0.03797600 0.00000000
v -0.00000000 0.03800000 0.00000000
v -0.00502800 -0.03766500 0.00000000
v -0.00318300 -0.03786600 0.00000000
v -0.00180800 -0.03795700 0.00366500
v -0.00498600 -0.03378700 0.00000000
v -0.00498600 -0.03023000 0.00000000
v -0.00498600 -0.02667400 0.00000000
v -0.00498600 -0.02311700 0.00000000
v -0.00498600 -0.01956100 0.00000000
v -0.00498600 -0.01600400 0.00000000
v -0.00498600 -0.01244800 0.00000000
v -0.00498600 -0.00889100 0.00000000
v -0.00498600 -0.00533500 0.00000000
v -0.00498600 -0.00177800 0.00000000
v -0.00498600 0.00533500 0.00000000
v -0.00498600 0.00177800 0.00000000
v -0.00498600 0.00889100 0.00000000
v -0.00498600 0.01244800 0.00000000
v -0.00498600 0.01600400 0.00000000
v -0.00498600 0.01956100 0.00000000
v -0.00498600 0.02311700 0.00000000
v -0.00498600 0.02667400 0.00000000
v -0.00498600 0.03023000 0.00000000
v -0.00498600 0.03378700 0.00000000
v -0.00502800 0.03766500 0.00000000
v -0.00180800 0.03795700 0.00366500
v -0.00318300 0.03786600 0.00000000
v -0.00867800 -0.03699600 0.00000000
v -0.00686400 -0.03737500 0.00000000
v -0.00540800 -0.03761300 0.00366500
v -0.00865400 -0.03335000 0.00000000
v -0.00865400 -0.02984000 0.00000000
v -0.00865400 -0.02632900 0.00000000
v -0.00865400 -0.02281800 0.00000000
v -0.00865400 -0.01930800 0.00000000
v -0.00865400 -0.01579700 0.00000000
v -0.00865400 -0.01228700 0.00000000
v -0.00865400 -0.00877600 0.00000000
v -0.00865400 -0.00526600 0.00000000
v -0.00865400 -0.00175500 0.00000000
v -0.00865400 0.00526600 0.00000000
v -0.00865400 0.00175500 0.00000000
v -0.00865400 0.00877600 0.00000000
v -0.00865400 0.01228700 0.00000000
v -0.00865400 0.01579700 0.00000000
v -0.00865400 0.01930800 0.00000000
v -0.00865400 0.02281800 0.00000000
v -0.00865400 0.02632900 0.00000000
v -0.00865400 0.02984000 0.00000000
v -0.00865400 0.03335000 0.00000000
v -0.00867800 0.03699600 0.00000000
v -0.00540800 0.03761300 0.00366500
v -0.00686400 0.03737500 0.00000000
v -0.00983300 -0.03670500 0.00000000
v -0.00895900 -0.03692900 0.00366500
v -0.01232300 -0.03227400 0.00000000
v -0.01235300 -0.03593600 0.00000000
v -0.01232300 -0.02868800 0.00000000
v -0.01232300 -0.02510200 0.00000000
v -0.01232300 -0.02151600 0.00000000
v -0.01232300 -0.01793000 0.00000000
v -0.01232300 -0.01434400 0.00000000
v -0.01232300 -0.01075800 0.00000000
v -0.01232300 -0.00717200 0.00000000
v -0.01232300 -0.00358600 0.00000000
v -0.01232300 -0.00000000 0.00000000
v -0.01232300 0.00358600 0.00000000
v -0.01232300 0.00717200 0.00000000
v -0.01232300 0.01075800 0.00000000
v -0.01232300 0.01434400 0.00000000
v -0.01232300 0.01793000 0.00000000
v -0.01232300 0.02151600 0.00000000
v -0.01232300 0.02510200 0.00000000
v -0.01232300 0.02868800 0.00000000
v -0.01232300 0.03227400 0.00000000
v -0.01235300 0.03593600 0.00000000
v -0.00895900 0.03692900 0.00366500
v -0.00983300 0.03670500 0.00000000
v -0.01454000 -0.03510800 0.00000000
v -0.01242900 -0.03591000 0.00366500
v -0.01599200 -0.03077200 0.00000000
v -0.01602300 -0.03445600 0.00000000
v -0.01599200 -0.02715200 0.00000000
v -0.01599200 -0.02353200 0.00000000
v -0.01599200 -0.01991100 0.00000000
v -0.01599200 -0.01629100 0.00000000
v -0.01599200 -0.01267100 0.00000000
v -0.01599200 -0.00905100 0.00000000
v -0.01599200 -0.00543000 0.00000000
v -0.01599200 -0.00181000 0.00000000
v -0.01599200 0.00181000 0.00000000
v -0.01599200 0.00543000 0.00000000
v -0.01599200 0.00905100 0.00000000
v -0.01599200 0.01267100 0.00000000
v -0.01599200 0.01629100 0.00000000
v -0.01599200 0.01991100 0.00000000
v -0.01599200 0.02353200 0.00000000
v -0.01599200 0.02715200 0.00000000
v -0.01599200 0.03077200 0.00000000
v -0.01602300 0.03445600 0.00000000
v -0.01242900 0.03591000 0.00366500
v -0.01454000 0.03510800 0.00000000
v -0.01578600 -0.03456600 0.00366500
v -0.01900000 -0.03290900 0.00000000
v -0.01966000 -0.02886000 0.00000000
v -0.01968200 -0.03250500 0.00000000
v -0.01966000 -0.02525300 0.00000000
v -0.01966000 -0.02164500 0.00000000
v -0.01966000 -0.01803800 0.00000000
v -0.01966000 -0.01443000 0.00000000
v -0.01966000 -0.01082300 0.00000000
v -0.01966000 -0.00721500 0.00000000
v -0.01966000 -0.00360800 0.00000000
v -0.01966000 -0.00000000 0.00000000
v -0.01966000 0.00360800 0.00000000
v -0.01966000 0.00721500 0.00000000
v -0.01966000 0.01082300 0.00000000
v -0.01966000 0.01443000 0.00000000
v -0.01966000 0.01803800 0.00000000
v -0.01966000 0.02164500 0.00000000
v -0.01966000 0.02525300 0.00000000
v -0.01966000 0.02886000 0.00000000
v -0.01968200 0.03250500 0.00000000
v -0.01578600 0.03456600 0.00366500
v -0.01900000 0.03290900 0.00000000
v -0.01900000 0.03290900 0.00366500
v -0.01900000 -0.03290900 0.00366500
v -0.02144100 -0.03137300 0.00000000
v -0.02332900 -0.02644900 0.00000000
v -0.02313400 -0.03014600 0.00000000
v -0.02333900 -0.02998800 0.00000000
v -0.02332900 -0.02292200 0.00000000
v -0.02332900 -0.01939600 0.00000000
v -0.02332900 -0.01586900 0.00000000
v -0.02332900 -0.01234300 0.00000000
v -0.02332900 -0.00881600 0.00000000
v -0.02332900 -0.00529000 0.00000000
v -0.02332900 -0.00176300 0.00000000
v -0.02332900 0.00176300 0.00000000
v -0.02332900 0.00529000 0.00000000
v -0.02332900 0.00881600 0.00000000
v -0.02332900 0.01234300 0.00000000
v -0.02332900 0.01586900 0.00000000
v -0.02332900 0.01939600 0.00000000
v -0.02332900 0.02292200 0.00000000
v -0.02332900 0.02644900 0.00000000
v -0.02333900 0.02998800 0.00000000
v -0.02204200 0.03095400 0.00366500
v -0.02313400 0.03014600 0.00000000
v -0.02144100 0.03137300 0.00000000
v -0.02204200 -0.03095400 0.00366500
v -0.02515100 -0.02848500 0.00000000
v -0.02488500 -0.02871800 0.00366500
v -0.02699800 -0.02316600 0.00000000
v -0.02687100 -0.02686800 0.00000000
v -0.02700300 -0.02673600 0.00000000
v -0.02699800 -0.01960200 0.00000000
v -0.02699800 -0.01603800 0.00000000
v -0.02699800 -0.01247400 0.00000000
v -0.02699800 -0.00891000 0.00000000
v -0.02699800 -0.00534600 0.00000000
v -0.02699800 -0.00178200 0.00000000
v -0.02699800 0.00178200 0.00000000
v -0.02699800 0.00534600 0.00000000
v -0.02699800 0.00891000 0.00000000
v -0.02699800 0.01247400 0.00000000
v -0.02699800 0.01603800 0.00000000
v -0.02699800 0.01960200 0.00000000
v -0.02699800 0.02316600 0.00000000
v -0.02700300 0.02673600 0.00000000
v -0.02488500 0.02871800 0.00366500
v -0.02687100 0.02686800 0.00000000
v -0.02515100 0.02848500 0.00000000
v -0.02910800 -0.02442700 0.00000000
v -0.02750200 -0.02622300 0.00366500
v -0.03068700 -0.02241100 0.00000000
v -0.03066600 -0.01895100 0.00000000
v -0.03066600 -0.01550600 0.00000000
v -0.03066600 -0.01206000 0.00000000
v -0.03066600 -0.00861400 0.00000000
v -0.03066600 -0.00516900 0.00000000
v -0.03066600 -0.00172300 0.00000000
v -0.03066600 0.00516900 0.00000000
v -0.03066600 0.00172300 0.00000000
v -0.03066600 0.00861400 0.00000000
v -0.03066600 0.01206000 0.00000000
v -0.03066600 0.01550600 0.00000000
v -0.03066600 0.01895100 0.00000000
v -0.03068700 0.02241100 0.00000000
v -0.02910800 0.02442700 0.00000000
v -0.02750200 0.02622300 0.00366500
v -0.02987000 -0.02349000 0.00366500
v -0.03112900 -0.02179500 0.00000000
v -0.03434300 -0.01626400 0.00000000
v -0.03290900 -0.01900000 0.00000000
v -0.03433500 -0.01264700 0.00000000
v -0.03433500 -0.00903400 0.00000000
v -0.03433500 -0.00542000 0.00000000
v -0.03433500 -0.00180700 0.00000000
v -0.03433500 0.00180700 0.00000000
v -0.03433500 0.00542000 0.00000000
v -0.03433500 0.00903400 0.00000000
v -0.03433500 0.01264700 0.00000000
v -0.03434300 0.01626400 0.00000000
v -0.03290900 0.01900000 0.00000000
v -0.02987000 0.02349000 0.00366500
v -0.03112900 0.02179500 0.00000000
v -0.03196800 0.02054400 0.00366500
v -0.03196800 -0.02054400 0.00366500
v -0.03377600 -0.01741300 0.00366500
v -0.03443900 -0.01606100 0.00000000
v -0.03670400 -0.00983700 0.00000000
v -0.03570900 -0.01299500 0.00000000
v -0.03742300 -0.00659700 0.00000000
v -0.03785400 -0.00331900 0.00000000
v -0.03800000 -0.00000000 0.00000000
v -0.03785400 0.00331900 0.00000000
v -0.03742300 0.00659700 0.00000000
v -0.03670400 0.00983700 0.00000000
v -0.03570900 0.01299500 0.00000000
v -0.03377600 0.01741300 0.00366500
v -0.03443900 0.01606100 0.00000000
v -0.03527800 0.01412300 0.00366500
v -0.03527800 -0.01412300 0.00366500
v -0.03646100 -0.01070600 0.00366500
v -0.03731300 -0.00719200 0.00366500
v -0.03782800 -0.00361200 0.00366500
v -0.03800000 -0.00000000 0.00366500
v -0.03782800 0.00361200 0.00366500
v -0.03731300 0.00719200 0.00366500
v -0.03646100 0.01070600 0.00366500
v 0.03537000 0.00345300 0.02300000
v 0.03785400 0.00331900 0.02300000
v 0.03800000 0.00000000 0.02300000
v 0.03800000 -0.00000000 0.02200800
v 0.03537000 -0.00000000 0.02300000
v 0.03785400 -0.00331900 0.02300000
v 0.03782800 -0.00361200 0.02200800
v 0.03742300 0.00659700 0.02300000
v 0.03782800 0.00361200 0.02200800
v 0.03537000 0.00690700 0.02300000
v 0.03670400 0.00983700 0.02300000
v 0.03731300 0.00719200 0.02200800
v 0.03537000 0.01036000 0.02300000
v 0.03570900 0.01299500 0.02300000
v 0.03646100 0.01070600 0.02200800
v 0.03539600 0.01382500 0.02300000
v 0.03170100 0.01044800 0.02300000
v 0.03170100 0.01393100 0.02300000
v 0.03443900 0.01606100 0.02300000
v 0.03527800 0.01412300 0.02200800
v 0.03170100 0.00696500 0.02300000
v 0.03170100 0.00348300 0.02300000
v 0.03537000 -0.00345300 0.02300000
v 0.03170100 -0.00000000 0.02300000
v 0.03742300 -0.00659700 0.02300000
v 0.03537000 -0.00690700 0.02300000
v 0.03170100 -0.00348300 0.02300000
v 0.03670400 -0.00983700 0.02300000
v 0.03537000 -0.01036000 0.02300000
v 0.03170100 -0.00696500 0.02300000
v 0.03570900 -0.01299500 0.02300000
v 0.03539600 -0.01382500 0.02300000
v 0.03170100 -0.01044800 0.02300000
v 0.03527800 -0.01412300 0.02200800
v 0.03170100 -0.01393100 0.02300000
v 0.03443900 -0.01606100 0.02300000
v 0.03646100 -0.01070600 0.02200800
v 0.03731300 -0.00719200 0.02200800
v 0.03170100 -0.01741300 0.02300000
v 0.03290900 -0.01900000 0.02300000
v 0.03377600 -0.01741300 0.02200800
v 0.03170100 0.01741300 0.02300000
v 0.03290900 0.01900000 0.02300000
v 0.03377600 0.01741300 0.02200800
v 0.03172600 0.02091500 0.02300000
v 0.03196800 0.02054400 0.02200800
v 0.02803200 0.01828700 0.02300000
v 0.02803200 0.02194400 0.02300000
v 0.03112900 0.02179500 0.02300000
v 0.02803200 0.01462900 0.02300000
v 0.02803200 0.01097200 0.02300000
v 0.02803200 0.00731500 0.02300000
v 0.02803200 0.00365700 0.02300000
v 0.02803200 0.00000000 0.02300000
v 0.02803200 -0.00365700 0.02300000
v 0.02803200 -0.00731500 0.02300000
v 0.02803200 -0.01097200 0.02300000
v 0.02803200 -0.01462900 0.02300000
v 0.03172600 -0.02091500 0.02300000
v 0.02803200 -0.01828700 0.02300000
v 0.03196800 -0.02054400 0.02200800
v 0.03112900 -0.02179500 0.02300000
v 0.02987000 -0.02349000 0.02200800
v 0.02803200 -0.02194400 0.02300000
v 0.02910800 -0.02442700 0.02300000
v 0.02910800 0.02442700 0.02300000
v 0.02987000 0.02349000 0.02200800
v 0.02805800 0.02562700 0.02300000
v 0.02436400 0.02543400 0.02300000
v 0.02440800 0.02912500 0.02300000
v 0.02687100 0.02686800 0.02300000
v 0.02750200 0.02622300 0.02200800
v 0.02436400 0.02180100 0.02300000
v 0.02436400 0.01816700 0.02300000
v 0.02436400 0.01453400 0.02300000
v 0.02436400 0.01090000 0.02300000
v 0.02436400 0.00726700 0.02300000
v 0.02436400 0.00363300 0.02300000
v 0.02436400 -0.00000000 0.02300000
v 0.02436400 -0.00726700 0.02300000
v 0.02436400 -0.00363300 0.02300000
v 0.02436400 -0.01090000 0.02300000
v 0.02436400 -0.01453400 0.02300000
v 0.02436400 -0.01816700 0.02300000
v 0.02436400 -0.02180100 0.02300000
v 0.02805800 -0.02562700 0.02300000
v 0.02436400 -0.02543400 0.02300000
v 0.02750200 -0.02622300 0.02200800
v 0.02687100 -0.02686800 0.02300000
v 0.02440800 -0.02912500 0.02300000
v 0.02488500 -0.02871800 0.02200800
v 0.02488500 0.02871800 0.02200800
v 0.02069500 0.02824600 0.02300000
v 0.02073700 0.03184300 0.02300000
v 0.02313400 0.03014600 0.02300000
v 0.02069500 0.02471500 0.02300000
v 0.02069500 0.02118400 0.02300000
v 0.02069500 0.01765400 0.02300000
v 0.02069500 0.01412300 0.02300000
v 0.02069500 0.01059200 0.02300000
v 0.02069500 0.00706100 0.02300000
v 0.02069500 0.00353100 0.02300000
v 0.02069500 -0.00000000 0.02300000
v 0.02069500 -0.00706100 0.02300000
v 0.02069500 -0.00353100 0.02300000
v 0.02069500 -0.01059200 0.02300000
v 0.02069500 -0.01412300 0.02300000
v 0.02069500 -0.01765400 0.02300000
v 0.02069500 -0.02118400 0.02300000
v 0.02069500 -0.02471500 0.02300000
v 0.02069500 -0.02824600 0.02300000
v 0.02313400 -0.03014600 0.02300000
v 0.02204200 -0.03095400 0.02200800
v 0.02073700 -0.03184300 0.02300000
v 0.02204200 0.03095400 0.02200800
v 0.01702600 0.03031600 0.02300000
v 0.01706400 0.03395300 0.02300000
v 0.01900000 0.03290900 0.02300000
v 0.01702600 0.02674900 0.02300000
v 0.01702600 0.02318300 0.02300000
v 0.01702600 0.01961600 0.02300000
v 0.01702600 0.01604900 0.02300000
v 0.01702600 0.01248300 0.02300000
v 0.01702600 0.00891600 0.02300000
v 0.01702600 0.00535000 0.02300000
v 0.01702600 0.00178300 0.02300000
v 0.01702600 -0.00178300 0.02300000
v 0.01702600 -0.00535000 0.02300000
v 0.01702600 -0.00891600 0.02300000
v 0.01702600 -0.01248300 0.02300000
v 0.01702600 -0.01604900 0.02300000
v 0.01702600 -0.01961600 0.02300000
v 0.01702600 -0.02318300 0.02300000
v 0.01702600 -0.02674900 0.02300000
v 0.01702600 -0.03031600 0.02300000
v 0.01900000 -0.03290900 0.02300000
v 0.01900000 -0.03290900 0.02200800
v 0.01706400 -0.03395300 0.02300000
v 0.01578600 -0.03456600 0.02200800
v 0.01900000 0.03290900 0.02200800
v 0.01335800 0.03195800 0.02300000
v 0.01338100 0.03556600 0.02300000
v 0.01454000 0.03510800 0.02300000
v 0.01578600 0.03456600 0.02200800
v 0.01335800 0.02840700 0.02300000
v 0.01335800 0.02485700 0.02300000
v 0.01335800 0.02130600 0.02300000
v 0.01335800 0.01775500 0.02300000
v 0.01335800 0.01420400 0.02300000
v 0.01335800 0.01065300 0.02300000
v 0.01335800 0.00710200 0.02300000
v 0.01335800 0.00355100 0.02300000
v 0.01335800 -0.00000000 0.02300000
v 0.01335800 -0.00355100 0.02300000
v 0.01335800 -0.00710200 0.02300000
v 0.01335800 -0.01065300 0.02300000
v 0.01335800 -0.01420400 0.02300000
v 0.01335800 -0.01775500 0.02300000
v 0.01335800 -0.02130600 0.02300000
v 0.01335800 -0.02485700 0.02300000
v 0.01335800 -0.02840700 0.02300000
v 0.01335800 -0.03195800 0.02300000
v 0.01454000 -0.03510800 0.02300000
v 0.01338100 -0.03556600 0.02300000
v 0.01242900 -0.03591000 0.02200800
v 0.00968900 0.03322700 0.02300000
v 0.00969200 0.03674300 0.02300000
v 0.01162200 0.03617900 0.02300000
v 0.01242900 0.03591000 0.02200800
v 0.00968900 0.02972900 0.02300000
v 0.00968900 0.02623200 0.02300000
v 0.00968900 0.02273400 0.02300000
v 0.00968900 0.01923700 0.02300000
v 0.00968900 0.01573900 0.02300000
v 0.00968900 0.01224100 0.02300000
v 0.00968900 0.00874400 0.02300000
v 0.00968900 0.00524600 0.02300000
v 0.00968900 0.00174900 0.02300000
v 0.00968900 -0.00174900 0.02300000
v 0.00968900 -0.00524600 0.02300000
v 0.00968900 -0.00874400 0.02300000
v 0.00968900 -0.01224100 0.02300000
v 0.00968900 -0.01573900 0.02300000
v 0.00968900 -0.01923700 0.02300000
v 0.00968900 -0.02273400 0.02300000
v 0.00968900 -0.02623200 0.02300000
v 0.00968900 -0.02972900 0.02300000
v 0.00968900 -0.03322700 0.02300000
v 0.01162200 -0.03617900 0.02300000
v 0.00983300 -0.03670500 0.02300000
v 0.00895900 -0.03692900 0.02200800
v 0.00983300 0.03670500 0.02300000
v 0.00602000 0.03366400 0.02300000
v 0.00606500 0.03751200 0.02300000
v 0.00789000 0.03717200 0.02300000
v 0.00895900 0.03692900 0.02200800
v 0.00602000 0.03012000 0.02300000
v 0.00602000 0.02657700 0.02300000
v 0.00602000 0.02303300 0.02300000
v 0.00602000 0.01949000 0.02300000
v 0.00602000 0.01594600 0.02300000
v 0.00602000 0.01240200 0.02300000
v 0.00602000 0.00885900 0.02300000
v 0.00602000 0.00531500 0.02300000
v 0.00602000 0.00177200 0.02300000
v 0.00602000 -0.00177200 0.02300000
v 0.00602000 -0.00531500 0.02300000
v 0.00602000 -0.00885900 0.02300000
v 0.00602000 -0.01240200 0.02300000
v 0.00602000 -0.01594600 0.02300000
v 0.00602000 -0.01949000 0.02300000
v 0.00602000 -0.02303300 0.02300000
v 0.00602000 -0.02657700 0.02300000
v 0.00602000 -0.03012000 0.02300000
v 0.00969200 -0.03674300 0.02300000
v 0.00602000 -0.03366400 0.02300000
v 0.00789000 -0.03717200 0.02300000
v 0.00606500 -0.03751200 0.02300000
v 0.00540800 -0.03761300 0.02200800
v 0.00235200 0.03410100 0.02300000
v 0.00237900 0.03792500 0.02300000
v 0.00422400 0.03776400 0.02300000
v 0.00540800 0.03761300 0.02200800
v 0.00235200 0.03051100 0.02300000
v 0.00235200 0.02692100 0.02300000
v 0.00235200 0.02333200 0.02300000
v 0.00235200 0.01974200 0.02300000
v 0.00235200 0.01615300 0.02300000
v 0.00235200 0.01256300 0.02300000
v 0.00235200 0.00897400 0.02300000
v 0.00235200 0.00538400 0.02300000
v 0.00235200 0.00179500 0.02300000
v 0.00235200 -0.00179500 0.02300000
v 0.00235200 -0.00538400 0.02300000
v 0.00235200 -0.00897400 0.02300000
v 0.00235200 -0.01256300 0.02300000
v 0.00235200 -0.01615300 0.02300000
v 0.00235200 -0.01974200 0.02300000
v 0.00235200 -0.02333200 0.02300000
v 0.00235200 -0.02692100 0.02300000
v 0.00235200 -0.03051100 0.02300000
v 0.00235200 -0.03410100 0.02300000
v 0.00237900 -0.03792500 0.02300000
v 0.00422400 -0.03776400 0.02300000
v 0.00180800 -0.03795700 0.02200800
v -0.00131700 0.03422400 0.02300000
v -0.00133400 0.03797600 0.02300000
v -0.00000000 0.03800000 0.02300000
v 0.00180800 0.03795700 0.02200800
v -0.00131700 0.03062100 0.02300000
v -0.00131700 0.02701900 0.02300000
v -0.00131700 0.02341600 0.02300000
v -0.00131700 0.01981400 0.02300000
v -0.00131700 0.01621100 0.02300000
v -0.00131700 0.01260900 0.02300000
v -0.00131700 0.00900600 0.02300000
v -0.00131700 0.00540400 0.02300000
v -0.00131700 0.00180100 0.02300000
v -0.00131700 -0.00180100 0.02300000
v -0.00131700 -0.00540400 0.02300000
v -0.00131700 -0.00900600 0.02300000
v -0.00131700 -0.01260900 0.02300000
v -0.00131700 -0.01621100 0.02300000
v -0.00131700 -0.01981400 0.02300000
v -0.00131700 -0.02341600 0.02300000
v -0.00131700 -0.02701900 0.02300000
v -0.00131700 -0.03062100 0.02300000
v -0.00131700 -0.03422400 0.02300000
v -0.00133400 -0.03797600 0.02300000
v 0.00000000 -0.03800000 0.02300000
v -0.00180800 -0.03795700 0.02200800
v -0.00502800 0.03766500 0.02300000
v -0.00318300 0.03786600 0.02300000
v -0.00180800 0.03795700 0.02200800
v -0.00498600 0.03378700 0.02300000
v -0.00498600 0.03023000 0.02300000
v -0.00498600 0.02667400 0.02300000
v -0.00498600 0.02311700 0.02300000
v -0.00498600 0.01956100 0.02300000
v -0.00498600 0.01600400 0.02300000
v -0.00498600 0.01244800 0.02300000
v -0.00498600 0.00889100 0.02300000
v -0.00498600 0.00533500 0.02300000
v -0.00498600 0.00177800 0.02300000
v -0.00498600 -0.00533500 0.02300000
v -0.00498600 -0.00177800 0.02300000
v -0.00498600 -0.00889100 0.02300000
v -0.00498600 -0.01244800 0.02300000
v -0.00498600 -0.01600400 0.02300000
v -0.00498600 -0.01956100 0.02300000
v -0.00498600 -0.02311700 0.02300000
v -0.00498600 -0.02667400 0.02300000
v -0.00498600 -0.03023000 0.02300000
v -0.00498600 -0.03378700 0.02300000
v -0.00502800 -0.03766500 0.02300000
v -0.00318300 -0.03786600 0.02300000
v -0.00540800 -0.03761300 0.02200800
v -0.00867800 0.03699600 0.02300000
v -0.00686400 0.03737500 0.02300000
v -0.00540800 0.03761300 0.02200800
v -0.00865400 0.03335000 0.02300000
v -0.00865400 0.02984000 0.02300000
v -0.00865400 0.02632900 0.02300000
v -0.00865400 0.02281800 0.02300000
v -0.00865400 0.01930800 0.02300000
v -0.00865400 0.01579700 0.02300000
v -0.00865400 0.01228700 0.02300000
v -0.00865400 0.00877600 0.02300000
v -0.00865400 0.00526600 0.02300000
v -0.00865400 0.00175500 0.02300000
v -0.00865400 -0.00526600 0.02300000
v -0.00865400 -0.00175500 0.02300000
v -0.00865400 -0.00877600 0.02300000
v -0.00865400 -0.01228700 0.02300000
v -0.00865400 -0.01579700 0.02300000
v -0.00865400 -0.01930800 0.02300000
v -0.00865400 -0.02281800 0.02300000
v -0.00865400 -0.02632900 0.02300000
v -0.00865400 -0.02984000 0.02300000
v -0.00865400 -0.03335000 0.02300000
v -0.00867800 -0.03699600 0.02300000
v -0.00686400 -0.03737500 0.02300000
v -0.00895900 -0.03692900 0.02200800
v -0.00983300 0.03670500 0.02300000
v -0.00895900 0.03692900 0.02200800
v -0.01232300 0.03227400 0.02300000
v -0.01235300 0.03593600 0.02300000
v -0.01232300 0.02868800 0.02300000
v -0.01232300 0.02510200 0.02300000
v -0.01232300 0.02151600 0.02300000
v -0.01232300 0.01793000 0.02300000
v -0.01232300 0.01434400 0.02300000
v -0.01232300 0.01075800 0.02300000
v -0.01232300 0.00717200 0.02300000
v -0.01232300 0.00358600 0.02300000
v -0.01232300 0.00000000 0.02300000
v -0.01232300 -0.00358600 0.02300000
v -0.01232300 -0.00717200 0.02300000
v -0.01232300 -0.01075800 0.02300000
v -0.01232300 -0.01434400 0.02300000
v -0.01232300 -0.01793000 0.02300000
v -0.01232300 -0.02151600 0.02300000
v -0.01232300 -0.02510200 0.02300000
v -0.01232300 -0.02868800 0.02300000
v -0.01232300 -0.03227400 0.02300000
v -0.01235300 -0.03593600 0.02300000
v -0.00983300 -0.03670500 0.02300000
v -0.01242900 -0.03591000 0.02200800
v -0.01454000 0.03510800 0.02300000
v -0.01242900 0.03591000 0.02200800
v -0.01599200 0.03077200 0.02300000
v -0.01602300 0.03445600 0.02300000
v -0.01599200 0.02715200 0.02300000
v -0.01599200 0.02353200 0.02300000
v -0.01599200 0.01991100 0.02300000
v -0.01599200 0.01629100 0.02300000
v -0.01599200 0.01267100 0.02300000
v -0.01599200 0.00905100 0.02300000
v -0.01599200 0.00543000 0.02300000
v -0.01599200 0.00181000 0.02300000
v -0.01599200 -0.00181000 0.02300000
v -0.01599200 -0.00543000 0.02300000
v -0.01599200 -0.00905100 0.02300000
v -0.01599200 -0.01267100 0.02300000
v -0.01599200 -0.01629100 0.02300000
v -0.01599200 -0.01991100 0.02300000
v -0.01599200 -0.02353200 0.02300000
v -0.01599200 -0.02715200 0.02300000
v -0.01599200 -0.03077200 0.02300000
v -0.01602300 -0.03445600 0.02300000
v -0.01454000 -0.03510800 0.02300000
v -0.01578600 -0.03456600 0.02200800
v -0.01578600 0.03456600 0.02200800
v -0.01900000 0.03290900 0.02300000
v -0.01966000 0.02886000 0.02300000
v -0.01968200 0.03250500 0.02300000
v -0.01966000 0.02525300 0.02300000
v -0.01966000 0.02164500 0.02300000
v -0.01966000 0.01803800 0.02300000
v -0.01966000 0.01443000 0.02300000
v -0.01966000 0.01082300 0.02300000
v -0.01966000 0.00721500 0.02300000
v -0.01966000 0.00360800 0.02300000
v -0.01966000 0.00000000 0.02300000
v -0.01966000 -0.00360800 0.02300000
v -0.01966000 -0.00721500 0.02300000
v -0.01966000 -0.01082300 0.02300000
v -0.01966000 -0.01443000 0.02300000
v -0.01966000 -0.01803800 0.02300000
v -0.01966000 -0.02164500 0.02300000
v -0.01966000 -0.02525300 0.02300000
v -0.01966000 -0.02886000 0.02300000
v -0.01968200 -0.03250500 0.02300000
v -0.01900000 -0.03290900 0.02300000
v -0.01900000 -0.03290900 0.02200800
v -0.02204200 -0.03095400 0.02200800
v -0.01900000 0.03290900 0.02200800
v -0.02144100 0.03137300 0.02300000
v -0.02332900 0.02644900 0.02300000
v -0.02313400 0.03014600 0.02300000
v -0.02333900 0.02998800 0.02300000
v -0.02332900 0.02292200 0.02300000
v -0.02332900 0.01939600 0.02300000
v -0.02332900 0.01586900 0.02300000
v -0.02332900 0.01234300 0.02300000
v -0.02332900 0.00881600 0.02300000
v -0.02332900 0.00529000 0.02300000
v -0.02332900 0.00176300 0.02300000
v -0.02332900 -0.00176300 0.02300000
v -0.02332900 -0.00529000 0.02300000
v -0.02332900 -0.00881600 0.02300000
v -0.02332900 -0.01234300 0.02300000
v -0.02332900 -0.01586900 0.02300000
v -0.02332900 -0.01939600 0.02300000
v -0.02332900 -0.02292200 0.02300000
v -0.02332900 -0.02644900 0.02300000
v -0.02333900 -0.02998800 0.02300000
v -0.02313400 -0.03014600 0.02300000
v -0.02144100 -0.03137300 0.02300000
v -0.02204200 0.03095400 0.02200800
v -0.02515100 0.02848500 0.02300000
v -0.02488500 0.02871800 0.02200800
v -0.02699800 0.02316600 0.02300000
v -0.02687100 0.02686800 0.02300000
v -0.02700300 0.02673600 0.02300000
v -0.02699800 0.01960200 0.02300000
v -0.02699800 0.01603800 0.02300000
v -0.02699800 0.01247400 0.02300000
v -0.02699800 0.00891000 0.02300000
v -0.02699800 0.00534600 0.02300000
v -0.02699800 0.00178200 0.02300000
v -0.02699800 -0.00178200 0.02300000
v -0.02699800 -0.00534600 0.02300000
v -0.02699800 -0.00891000 0.02300000
v -0.02699800 -0.01247400 0.02300000
v -0.02699800 -0.01603800 0.02300000
v -0.02699800 -0.01960200 0.02300000
v -0.02699800 -0.02316600 0.02300000
v -0.02700300 -0.02673600 0.02300000
v -0.02488500 -0.02871800 0.02200800
v -0.02687100 -0.02686800 0.02300000
v -0.02515100 -0.02848500 0.02300000
v -0.02750200 -0.02622300 0.02200800
v -0.02910800 0.02442700 0.02300000
v -0.02750200 0.02622300 0.02200800
v -0.03068700 0.02241100 0.02300000
v -0.03066600 0.01895100 0.02300000
v -0.03066600 0.01550600 0.02300000
v -0.03066600 0.01206000 0.02300000
v -0.03066600 0.00861400 0.02300000
v -0.03066600 0.00516900 0.02300000
v -0.03066600 0.00172300 0.02300000
v -0.03066600 -0.00516900 0.02300000
v -0.03066600 -0.00172300 0.02300000
v -0.03066600 -0.00861400 0.02300000
v -0.03066600 -0.01206000 0.02300000
v -0.03066600 -0.01550600 0.02300000
v -0.03066600 -0.01895100 0.02300000
v -0.03068700 -0.02241100 0.02300000
v -0.02910800 -0.02442700 0.02300000
v -0.02987000 -0.02349000 0.02200800
v -0.02987000 0.02349000 0.02200800
v -0.03112900 0.02179500 0.02300000
v -0.03434300 0.01626400 0.02300000
v -0.03290900 0.01900000 0.02300000
v -0.03433500 0.01264700 0.02300000
v -0.03433500 0.00903400 0.02300000
v -0.03433500 0.00542000 0.02300000
v -0.03433500 0.00180700 0.02300000
v -0.03433500 -0.00180700 0.02300000
v -0.03433500 -0.00542000 0.02300000
v -0.03433500 -0.00903400 0.02300000
v -0.03433500 -0.01264700 0.02300000
v -0.03434300 -0.01626400 0.02300000
v -0.03290900 -0.01900000 0.02300000
v -0.03112900 -0.02179500 0.02300000
v -0.03196800 -0.02054400 0.02200800
v -0.03196800 0.02054400 0.02200800
v -0.03377600 0.01741300 0.02200800
v -0.03443900 0.01606100 0.02300000
v -0.03670400 0.00983700 0.02300000
v -0.03570900 0.01299500 0.02300000
v -0.03742300 0.00659700 0.02300000
v -0.03785400 0.00331900 0.02300000
v -0.03800000 -0.00000000 0.02300000
v -0.03785400 -0.00331900 0.02300000
v -0.03742300 -0.00659700 0.02300000
v -0.03670400 -0.00983700 0.02300000
v -0.03570900 -0.01299500 0.02300000
v -0.03377600 -0.01741300 0.02200800
v -0.03443900 -0.01606100 0.02300000
v -0.03527800 -0.01412300 0.02200800
v -0.03527800 0.01412300 0.02200800
v -0.03646100 0.01070600 0.02200800
v -0.03731300 0.00719200 0.02200800
v -0.03782800 0.00361200 0.02200800
v -0.03800000 -0.00000000 0.02200800
v -0.03782800 -0.00361200 0.02200800
v -0.03731300 -0.00719200 0.02200800
v -0.03646100 -0.01070600 0.02200800
v 0.03800000 -0.00000000 0.00733400
v 0.03782800 0.00361200 0.00733400
v 0.03782800 -0.00361200 0.00733400
v 0.03731300 -0.00719200 0.00733400
v 0.03646100 -0.01070600 0.00733400
v 0.03527800 -0.01412300 0.00733400
v 0.03377600 -0.01741300 0.00733400
v 0.03196800 -0.02054400 0.00733400
v 0.02987000 -0.02349000 0.00733400
v 0.02750200 -0.02622300 0.00733400
v 0.02488500 -0.02871800 0.00733400
v 0.02204200 -0.03095400 0.00733400
v 0.01900000 -0.03290900 0.00733400
v 0.01578600 -0.03456600 0.00733400
v 0.01242900 -0.03591000 0.00733400
v 0.00895900 -0.03692900 0.00733400
v 0.00540800 -0.03761300 0.00733400
v 0.00180800 -0.03795700 0.00733400
v -0.00180800 -0.03795700 0.00733400
v -0.00540800 -0.03761300 0.00733400
v -0.00895900 -0.03692900 0.00733400
v -0.01242900 -0.03591000 0.00733400
v -0.01578600 -0.03456600 0.00733400
v -0.01900000 -0.03290900 0.00733400
v -0.02204200 -0.03095400 0.00733400
v -0.02488500 -0.02871800 0.00733400
v -0.02750200 -0.02622300 0.00733400
v -0.02987000 -0.02349000 0.00733400
v -0.03196800 -0.02054400 0.00733400
v -0.03377600 -0.01741300 0.00733400
v -0.03527800 -0.01412300 0.00733400
v -0.03646100 -0.01070600 0.00733400
v -0.03731300 -0.00719200 0.00733400
v -0.03782800 -0.00361200 0.00733400
v -0.03800000 -0.00000000 0.00733400
v 0.03800000 -0.00000000 0.01100200
v 0.03782800 0.00361200 0.01100200
v 0.03782800 -0.00361200 0.01100200
v 0.03731300 -0.00719200 0.01100200
v 0.03646100 -0.01070600 0.01100200
v 0.03527800 -0.01412300 0.01100200
v 0.03377600 -0.01741300 0.01100200
v 0.03196800 -0.02054400 0.01100200
v 0.02987000 -0.02349000 0.01100200
v 0.02750200 -0.02622300 0.01100200
v 0.02488500 -0.02871800 0.01100200
v 0.02204200 -0.03095400 0.01100200
v 0.01900000 -0.03290900 0.01100200
v 0.01578600 -0.03456600 0.01100200
v 0.01242900 -0.03591000 0.01100200
v 0.00895900 -0.03692900 0.01100200
v 0.00540800 -0.03761300 0.01100200
v 0.00180800 -0.03795700 0.01100200
v -0.00180800 -0.03795700 0.01100200
v -0.00540800 -0.03761300 0.01100200
v -0.00895900 -0.03692900 0.01100200
v -0.01242900 -0.03591000 0.01100200
v -0.01578600 -0.03456600 0.01100200
v -0.01900000 -0.03290900 0.01100200
v -0.02204200 -0.03095400 0.01100200
v -0.02488500 -0.02871800 0.01100200
v -0.02750200 -0.02622300 0.01100200
v -0.02987000 -0.02349000 0.01100200
v -0.03196800 -0.02054400 0.01100200
v -0.03377600 -0.01741300 0.01100200
v -0.03527800 -0.01412300 0.01100200
v -0.03646100 -0.01070600 0.01100200
v -0.03731300 -0.00719200 0.01100200
v -0.03782800 -0.00361200 0.01100200
v -0.03800000 -0.00000000 0.01100200
v -0.03782800 0.00361200 0.00733400
v 0.03800000 -0.00000000 0.01467100
v 0.03782800 0.00361200 0.01467100
v 0.03782800 -0.00361200 0.01467100
v 0.03731300 -0.00719200 0.01467100
v 0.03646100 -0.01070600 0.01467100
v 0.03527800 -0.01412300 0.01467100
v 0.03377600 -0.01741300 0.01467100
v 0.03196800 -0.02054400 0.01467100
v 0.02987000 -0.02349000 0.01467100
v 0.02750200 -0.02622300 0.01467100
v 0.02488500 -0.02871800 0.01467100
v 0.02204200 -0.03095400 0.01467100
v 0.01900000 -0.03290900 0.01467100
v 0.01578600 -0.03456600 0.01467100
v 0.01242900 -0.03591000 0.01467100
v 0.00895900 -0.03692900 0.01467100
v 0.00540800 -0.03761300 0.01467100
v 0.00180800 -0.03795700 0.01467100
v -0.00180800 -0.03795700 0.01467100
v -0.00540800 -0.03761300 0.01467100
v -0.00895900 -0.03692900 0.01467100
v -0.01242900 -0.03591000 0.01467100
v -0.01578600 -0.03456600 0.01467100
v -0.01900000 -0.03290900 0.01467100
v -0.02204200 -0.03095400 0.01467100
v -0.02488500 -0.02871800 0.01467100
v -0.02750200 -0.02622300 0.01467100
v -0.02987000 -0.02349000 0.01467100
v -0.03196800 -0.02054400 0.01467100
v -0.03377600 -0.01741300 0.01467100
v -0.03527800 -0.01412300 0.01467100
v -0.03646100 -0.01070600 0.01467100
v -0.03731300 -0.00719200 0.01467100
v -0.03782800 -0.00361200 0.01467100
v -0.03800000 -0.00000000 0.01467100
v -0.03782800 0.00361200 0.01100200
v 0.03800000 -0.00000000 0.01834000
v 0.03782800 0.00361200 0.01834000
v 0.03782800 -0.00361200 0.01834000
v 0.03731300 -0.00719200 0.01834000
v 0.03646100 -0.01070600 0.01834000
v 0.03527800 -0.01412300 0.01834000
v 0.03377600 -0.01741300 0.01834000
v 0.03196800 -0.02054400 0.01834000
v 0.02987000 -0.02349000 0.01834000
v 0.02750200 -0.02622300 0.01834000
v 0.02488500 -0.02871800 0.01834000
v 0.02204200 -0.03095400 0.01834000
v 0.01900000 -0.03290900 0.01834000
v 0.01578600 -0.03456600 0.01834000
v 0.01242900 -0.03591000 0.01834000
v 0.00895900 -0.03692900 0.01834000
v 0.00540800 -0.03761300 0.01834000
v 0.00180800 -0.03795700 0.01834000
v -0.00180800 -0.03795700 0.01834000
v -0.00540800 -0.03761300 0.01834000
v -0.00895900 -0.03692900 0.01834000
v -0.01242900 -0.03591000 0.01834000
v -0.01578600 -0.03456600 0.01834000
v -0.01900000 -0.03290900 0.01834000
v -0.02204200 -0.03095400 0.01834000
v -0.02488500 -0.02871800 0.01834000
v -0.02750200 -0.02622300 0.01834000
v -0.02987000 -0.02349000 0.01834000
v -0.03196800 -0.02054400 0.01834000
v -0.03377600 -0.01741300 0.01834000
v -0.03527800 -0.01412300 0.01834000
v -0.03646100 -0.01070600 0.01834000
v -0.03731300 -0.00719200 0.01834000
v -0.03782800 -0.00361200 0.01834000
v -0.03800000 -0.00000000 0.01834000
v -0.03782800 0.00361200 0.01467100
v -0.03782800 0.00361200 0.01834000
v -0.03731300 0.00719200 0.00733400
v -0.03646100 0.01070600 0.00733400
v -0.03527800 0.01412300 0.00733400
v -0.03377600 0.01741300 0.00733400
v -0.03196800 0.02054400 0.00733400
v -0.02987000 0.02349000 0.00733400
v -0.02750200 0.02622300 0.00733400
v -0.02488500 0.02871800 0.00733400
v -0.02204200 0.03095400 0.00733400
v -0.01900000 0.03290900 0.00733400
v -0.01578600 0.03456600 0.00733400
v -0.01242900 0.03591000 0.00733400
v -0.00895900 0.03692900 0.00733400
v -0.00540800 0.03761300 0.00733400
v -0.00180800 0.03795700 0.00733400
v 0.00180800 0.03795700 0.00733400
v 0.00540800 0.03761300 0.00733400
v 0.00895900 0.03692900 0.00733400
v 0.01242900 0.03591000 0.00733400
v 0.01578600 0.03456600 0.00733400
v 0.01900000 0.03290900 0.00733400
v 0.02204200 0.03095400 0.00733400
v 0.02488500 0.02871800 0.00733400
v 0.02750200 0.02622300 0.00733400
v 0.02987000 0.02349000 0.00733400
v 0.03196800 0.02054400 0.00733400
v 0.03377600 0.01741300 0.00733400
v 0.03527800 0.01412300 0.00733400
v 0.03646100 0.01070600 0.00733400
v 0.03731300 0.00719200 0.00733400
v -0.03731300 0.00719200 0.01100200
v -0.03646100 0.01070600 0.01100200
v -0.03527800 0.01412300 0.01100200
v -0.03377600 0.01741300 0.01100200
v -0.03196800 0.02054400 0.01100200
v -0.02987000 0.02349000 0.01100200
v -0.02750200 0.02622300 0.01100200
v -0.02488500 0.02871800 0.01100200
v -0.02204200 0.03095400 0.01100200
v -0.01900000 0.03290900 0.01100200
v -0.01578600 0.03456600 0.01100200
v -0.01242900 0.03591000 0.01100200
v -0.00895900 0.03692900 0.01100200
v -0.00540800 0.03761300 0.01100200
v -0.00180800 0.03795700 0.01100200
v 0.00180800 0.03795700 0.01100200
v 0.00540800 0.03761300 0.01100200
v 0.00895900 0.03692900 0.01100200
v 0.01242900 0.03591000 0.01100200
v 0.01578600 0.03456600 0.01100200
v 0.01900000 0.03290900 0.01100200
v 0.02204200 0.03095400 0.01100200
v 0.02488500 0.02871800 0.01100200
v 0.02750200 0.02622300 0.01100200
v 0.02987000 0.02349000 0.01100200
v 0.03196800 0.02054400 0.01100200
v 0.03377600 0.01741300 0.01100200
v 0.03527800 0.01412300 0.01100200
v 0.03646100 0.01070600 0.01100200
v 0.03731300 0.00719200 0.01100200
v -0.03731300 0.00719200 0.01467100
v -0.03646100 0.01070600 0.01467100
v -0.03527800 0.01412300 0.01467100
v -0.03377600 0.01741300 0.01467100
v -0.03196800 0.02054400 0.01467100
v -0.02987000 0.02349000 0.01467100
v -0.02750200 0.02622300 0.01467100
v -0.02488500 0.02871800 0.01467100
v -0.02204200 0.03095400 0.01467100
v -0.01900000 0.03290900 0.01467100
v -0.01578600 0.03456600 0.01467100
v -0.01242900 0.03591000 0.01467100
v -0.00895900 0.03692900 0.01467100
v -0.00540800 0.03761300 0.01467100
v -0.00180800 0.03795700 0.01467100
v 0.00180800 0.03795700 0.01467100
v 0.00540800 0.03761300 0.01467100
v 0.00895900 0.03692900 0.01467100
v 0.01242900 0.03591000 0.01467100
v 0.01578600 0.03456600 0.01467100
v 0.01900000 0.03290900 0.01467100
v 0.02204200 0.03095400 0.01467100
v 0.02488500 0.02871800 0.01467100
v 0.02750200 0.02622300 0.01467100
v 0.02987000 0.02349000 0.01467100
v 0.03196800 0.02054400 0.01467100
v 0.03377600 0.01741300 0.01467100
v 0.03527800 0.01412300 0.01467100
v 0.03646100 0.01070600 0.01467100
v 0.03731300 0.00719200 0.01467100
v -0.03731300 0.00719200 0.01834000
v -0.03646100 0.01070600 0.01834000
v -0.03527800 0.01412300 0.01834000
v -0.03377600 0.01741300 0.01834000
v -0.03196800 0.02054400 0.01834000
v -0.02987000 0.02349000 0.01834000
v -0.02750200 0.02622300 0.01834000
v -0.02488500 0.02871800 0.01834000
v -0.02204200 0.03095400 0.01834000
v -0.01900000 0.03290900 0.01834000
v -0.01578600 0.03456600 0.01834000
v -0.01242900 0.03591000 0.01834000
v -0.00895900 0.03692900 0.01834000
v -0.00540800 0.03761300 0.01834000
v -0.00180800 0.03795700 0.01834000
v 0.00180800 0.03795700 0.01834000
v 0.00540800 0.03761300 0.01834000
v 0.00895900 0.03692900 0.01834000
v 0.01242900 0.03591000 0.01834000
v 0.01578600 0.03456600 0.01834000
v 0.01900000 0.03290900 0.01834000
v 0.02204200 0.03095400 0.01834000
v 0.02488500 0.02871800 0.01834000
v 0.02750200 0.02622300 0.01834000
v 0.02987000 0.02349000 0.01834000
v 0.03196800 0.02054400 0.01834000
v 0.03377600 0.01741300 0.01834000
v 0.03527800 0.01412300 0.01834000
v 0.03646100 0.01070600 0.01834000
v 0.03731300 0.00719200 0.01834000
f 3 2 1
f 2 3 4
f 3 1 5
f 3 5 6
f 3 6 7
f 4 3 7
f 2 8 1
f 8 2 9
f 2 4 9
f 8 11 10
f 11 8 12
f 8 10 1
f 8 9 12
f 11 14 13
f 14 11 15
f 11 13 10
f 11 12 15
f 14 16 13
f 16 14 15
f 13 16 17
f 16 19 18
f 19 16 20
f 16 18 17
f 16 15 20
f 10 13 21
f 13 17 21
f 1 10 22
f 10 21 22
f 5 1 22
f 5 23 6
f 23 5 24
f 5 22 24
f 23 26 25
f 26 23 27
f 23 25 6
f 23 24 27
f 26 29 28
f 29 26 30
f 26 28 25
f 26 27 30
f 29 32 31
f 32 29 33
f 29 31 28
f 29 30 33
f 31 32 34
f 32 33 35
f 32 35 36
f 32 36 34
f 28 31 37
f 31 34 37
f 25 28 38
f 28 37 38
f 6 25 7
f 25 38 7
f 19 40 39
f 40 19 41
f 19 39 18
f 19 20 41
f 40 42 39
f 42 40 43
f 40 41 43
f 39 42 44
f 42 46 45
f 46 42 43
f 42 45 44
f 18 39 47
f 39 44 47
f 17 18 48
f 18 47 48
f 21 17 49
f 17 48 49
f 22 21 50
f 21 49 50
f 24 22 50
f 27 24 51
f 24 50 51
f 30 27 52
f 27 51 52
f 33 30 53
f 30 52 53
f 35 33 54
f 33 53 54
f 35 55 36
f 55 35 56
f 35 54 56
f 55 58 57
f 58 55 59
f 55 57 36
f 55 56 59
f 57 58 60
f 58 59 61
f 58 61 62
f 58 62 60
f 36 57 63
f 57 60 63
f 36 63 34
f 46 64 45
f 64 46 65
f 46 43 65
f 64 66 45
f 66 64 65
f 45 66 67
f 66 69 68
f 69 66 70
f 66 68 67
f 66 65 70
f 44 45 71
f 45 67 71
f 47 44 72
f 44 71 72
f 48 47 73
f 47 72 73
f 49 48 74
f 48 73 74
f 50 49 75
f 49 74 75
f 51 50 76
f 50 75 76
f 52 51 77
f 51 76 77
f 53 52 78
f 52 77 79
f 52 79 78
f 54 53 80
f 53 78 80
f 56 54 81
f 54 80 81
f 59 56 82
f 56 81 82
f 59 83 61
f 83 59 84
f 59 82 84
f 83 86 85
f 86 83 87
f 83 85 61
f 83 84 87
f 85 86 88
f 86 87 89
f 86 89 88
f 61 85 62
f 85 88 62
f 68 69 90
f 69 70 90
f 67 68 91
f 68 93 92
f 93 68 90
f 68 92 91
f 71 67 94
f 67 91 94
f 72 71 95
f 71 94 95
f 73 72 96
f 72 95 96
f 74 73 97
f 73 96 97
f 75 74 98
f 74 97 98
f 76 75 99
f 75 98 99
f 77 76 100
f 76 99 100
f 79 77 101
f 77 100 101
f 78 79 102
f 79 101 103
f 79 103 102
f 80 78 104
f 78 102 104
f 81 80 105
f 80 104 105
f 82 81 106
f 81 105 106
f 84 82 107
f 82 106 107
f 87 84 108
f 84 107 108
f 87 109 89
f 109 87 110
f 87 108 110
f 89 109 111
f 109 110 112
f 109 112 113
f 109 113 111
f 89 111 88
f 92 93 114
f 93 90 114
f 91 92 115
f 92 117 116
f 117 92 114
f 92 116 115
f 94 91 118
f 91 115 118
f 95 94 119
f 94 118 119
f 96 95 120
f 95 119 120
f 97 96 121
f 96 120 121
f 98 97 122
f 97 121 122
f 99 98 123
f 98 122 123
f 100 99 124
f 99 123 124
f 101 100 125
f 100 124 125
f 103 101 126
f 101 125 126
f 102 103 127
f 103 126 127
f 104 102 128
f 102 127 128
f 105 104 129
f 104 128 129
f 106 105 130
f 105 129 130
f 107 106 131
f 106 130 131
f 108 107 132
f 107 131 132
f 110 108 133
f 108 132 133
f 110 134 112
f 134 110 135
f 110 133 135
f 112 134 113
f 134 135 136
f 134 136 137
f 134 137 113
f 116 117 138
f 117 114 138
f 115 116 139
f 116 141 140
f 141 116 142
f 116 140 139
f 116 138 142
f 118 115 143
f 115 139 143
f 119 118 144
f 118 143 144
f 120 119 145
f 119 144 145
f 121 120 146
f 120 145 146
f 122 121 147
f 121 146 147
f 123 122 148
f 122 147 148
f 124 123 149
f 123 148 149
f 125 124 150
f 124 149 150
f 126 125 151
f 125 150 151
f 127 126 152
f 126 151 152
f 128 127 153
f 127 152 153
f 129 128 154
f 128 153 154
f 130 129 155
f 129 154 155
f 131 130 156
f 130 155 156
f 132 131 157
f 131 156 157
f 133 132 158
f 132 157 158
f 135 133 159
f 133 158 159
f 135 160 136
f 160 135 161
f 135 159 161
f 136 160 162
f 160 161 163
f 160 163 162
f 136 162 137
f 140 141 142
f 139 140 164
f 140 166 165
f 166 140 167
f 140 165 164
f 140 142 167
f 143 139 168
f 139 164 168
f 144 143 169
f 143 168 169
f 145 144 170
f 144 169 170
f 146 145 171
f 145 170 171
f 147 146 172
f 146 171 172
f 148 147 173
f 147 172 173
f 149 148 174
f 148 173 174
f 150 149 175
f 149 174 175
f 151 150 176
f 150 175 176
f 152 151 177
f 151 176 177
f 153 152 178
f 152 177 178
f 154 153 179
f 153 178 179
f 155 154 180
f 154 179 180
f 156 155 181
f 155 180 181
f 157 156 182
f 156 181 182
f 158 157 183
f 157 182 183
f 159 158 184
f 158 183 184
f 161 159 185
f 159 184 185
f 161 186 163
f 186 161 187
f 161 185 187
f 163 186 188
f 186 187 189
f 186 189 188
f 163 188 162
f 166 190 165
f 190 166 167
f 165 190 167
f 164 165 191
f 165 193 192
f 193 165 194
f 165 192 191
f 165 167 194
f 168 164 195
f 164 191 195
f 169 168 196
f 168 195 196
f 170 169 197
f 169 196 197
f 171 170 198
f 170 197 198
f 172 171 199
f 171 198 199
f 173 172 200
f 172 199 200
f 174 173 201
f 173 200 201
f 175 174 202
f 174 201 202
f 176 175 203
f 175 202 203
f 177 176 203
f 178 177 204
f 177 203 204
f 179 178 205
f 178 204 205
f 180 179 206
f 179 205 206
f 181 180 207
f 180 206 207
f 182 181 208
f 181 207 208
f 183 182 209
f 182 208 209
f 184 183 210
f 183 209 210
f 185 184 211
f 184 210 211
f 187 185 212
f 185 211 212
f 187 214 213
f 214 187 215
f 187 213 189
f 187 212 215
f 213 214 216
f 214 215 217
f 214 217 216
f 189 213 216
f 189 216 188
f 192 193 194
f 191 192 218
f 192 220 219
f 220 192 221
f 192 219 218
f 192 194 221
f 195 191 222
f 191 218 222
f 196 195 223
f 195 222 223
f 197 196 224
f 196 223 224
f 198 197 225
f 197 224 225
f 199 198 226
f 198 225 226
f 200 199 227
f 199 226 227
f 201 200 228
f 200 227 228
f 202 201 229
f 201 228 229
f 203 202 230
f 202 229 230
f 204 203 230
f 205 204 231
f 204 230 231
f 206 205 232
f 205 231 232
f 207 206 233
f 206 232 233
f 208 207 234
f 207 233 234
f 209 208 235
f 208 234 235
f 210 209 236
f 209 235 236
f 211 210 237
f 210 236 237
f 212 211 238
f 211 237 238
f 215 212 239
f 212 238 239
f 215 240 217
f 240 215 241
f 215 239 241
f 217 240 242
f 240 241 243
f 240 243 244
f 240 244 242
f 217 242 216
f 219 220 221
f 218 219 245
f 219 247 246
f 247 219 248
f 219 246 245
f 219 221 248
f 222 218 249
f 218 245 249
f 223 222 250
f 222 249 250
f 224 223 251
f 223 250 251
f 225 224 252
f 224 251 252
f 226 225 253
f 225 252 253
f 227 226 254
f 226 253 254
f 228 227 255
f 227 254 255
f 229 228 256
f 228 255 256
f 230 229 257
f 229 256 257
f 231 230 257
f 232 231 258
f 231 257 258
f 233 232 259
f 232 258 259
f 234 233 260
f 233 259 260
f 235 234 261
f 234 260 261
f 236 235 262
f 235 261 262
f 237 236 263
f 236 262 263
f 238 237 264
f 237 263 264
f 239 238 265
f 238 264 265
f 241 239 266
f 239 265 266
f 243 241 267
f 241 266 267
f 244 243 268
f 243 267 269
f 243 269 270
f 243 270 268
f 244 268 242
f 246 247 248
f 245 246 271
f 246 272 271
f 272 246 273
f 246 248 273
f 249 245 274
f 245 271 274
f 250 249 275
f 249 274 275
f 251 250 276
f 250 275 276
f 252 251 277
f 251 276 277
f 253 252 278
f 252 277 278
f 254 253 279
f 253 278 279
f 255 254 280
f 254 279 280
f 256 255 281
f 255 280 281
f 257 256 282
f 256 281 282
f 258 257 283
f 257 282 283
f 259 258 284
f 258 283 285
f 258 285 284
f 260 259 286
f 259 284 286
f 261 260 287
f 260 286 287
f 262 261 288
f 261 287 288
f 263 262 289
f 262 288 289
f 264 263 290
f 263 289 290
f 265 264 291
f 264 290 291
f 266 265 292
f 265 291 292
f 267 266 293
f 266 292 293
f 269 267 294
f 267 293 294
f 270 269 295
f 269 294 296
f 269 296 295
f 270 295 268
f 271 272 273
f 274 271 297
f 271 298 297
f 298 271 299
f 271 273 299
f 275 274 300
f 274 297 300
f 276 275 301
f 275 300 301
f 277 276 302
f 276 301 302
f 278 277 303
f 277 302 303
f 279 278 304
f 278 303 304
f 280 279 305
f 279 304 305
f 281 280 306
f 280 305 306
f 282 281 307
f 281 306 307
f 283 282 308
f 282 307 308
f 285 283 309
f 283 308 309
f 284 285 310
f 285 309 311
f 285 311 310
f 286 284 312
f 284 310 312
f 287 286 313
f 286 312 313
f 288 287 314
f 287 313 314
f 289 288 315
f 288 314 315
f 290 289 316
f 289 315 316
f 291 290 317
f 290 316 317
f 292 291 318
f 291 317 318
f 293 292 319
f 292 318 319
f 294 293 320
f 293 319 320
f 296 294 321
f 294 320 322
f 294 322 321
f 296 321 295
f 297 298 299
f 300 297 323
f 323 297 324
f 297 299 324
f 301 300 325
f 300 323 326
f 300 326 325
f 302 301 327
f 301 325 327
f 303 302 328
f 302 327 328
f 304 303 329
f 303 328 329
f 305 304 330
f 304 329 330
f 306 305 331
f 305 330 331
f 307 306 332
f 306 331 332
f 308 307 333
f 307 332 333
f 309 308 334
f 308 333 334
f 311 309 335
f 309 334 335
f 310 311 336
f 311 335 336
f 312 310 337
f 310 336 337
f 313 312 338
f 312 337 338
f 314 313 339
f 313 338 339
f 315 314 340
f 314 339 340
f 316 315 341
f 315 340 341
f 317 316 342
f 316 341 342
f 318 317 343
f 317 342 343
f 319 318 344
f 318 343 344
f 320 319 345
f 319 344 345
f 322 320 346
f 320 345 347
f 320 347 346
f 322 346 321
f 326 323 324
f 325 326 348
f 348 326 349
f 326 324 349
f 327 325 350
f 325 348 351
f 325 351 350
f 328 327 352
f 327 350 352
f 329 328 353
f 328 352 353
f 330 329 354
f 329 353 354
f 331 330 355
f 330 354 355
f 332 331 356
f 331 355 356
f 333 332 357
f 332 356 357
f 334 333 358
f 333 357 358
f 335 334 359
f 334 358 359
f 336 335 360
f 335 359 360
f 337 336 361
f 336 360 361
f 338 337 362
f 337 361 362
f 339 338 363
f 338 362 363
f 340 339 364
f 339 363 364
f 341 340 365
f 340 364 365
f 342 341 366
f 341 365 366
f 343 342 367
f 342 366 367
f 344 343 368
f 343 367 368
f 345 344 369
f 344 368 369
f 347 345 370
f 345 369 371
f 345 371 370
f 347 370 346
f 351 348 372
f 348 349 372
f 350 351 373
f 373 351 372
f 352 350 374
f 350 373 375
f 350 375 374
f 353 352 376
f 352 374 376
f 354 353 377
f 353 376 377
f 355 354 378
f 354 377 378
f 356 355 379
f 355 378 379
f 357 356 380
f 356 379 380
f 358 357 381
f 357 380 381
f 359 358 382
f 358 381 382
f 360 359 383
f 359 382 383
f 361 360 384
f 360 383 384
f 362 361 385
f 361 384 385
f 363 362 386
f 362 385 386
f 364 363 387
f 363 386 387
f 365 364 388
f 364 387 388
f 366 365 389
f 365 388 389
f 367 366 390
f 366 389 390
f 368 367 391
f 367 390 391
f 369 368 392
f 368 391 392
f 371 369 393
f 369 392 394
f 369 394 395
f 369 395 393
f 371 393 370
f 375 373 396
f 373 372 396
f 374 375 397
f 397 375 396
f 376 374 398
f 374 397 399
f 374 399 400
f 374 400 398
f 377 376 401
f 376 398 401
f 378 377 402
f 377 401 402
f 379 378 403
f 378 402 403
f 380 379 404
f 379 403 404
f 381 380 405
f 380 404 405
f 382 381 406
f 381 405 406
f 383 382 407
f 382 406 407
f 384 383 408
f 383 407 408
f 385 384 409
f 384 408 409
f 386 385 410
f 385 409 410
f 387 386 411
f 386 410 411
f 388 387 412
f 387 411 412
f 389 388 413
f 388 412 413
f 390 389 414
f 389 413 414
f 391 390 415
f 390 414 415
f 392 391 416
f 391 415 416
f 394 392 417
f 392 416 418
f 392 418 419
f 392 419 417
f 394 417 395
f 399 397 420
f 397 396 420
f 400 399 420
f 398 400 421
f 421 400 422
f 400 420 422
f 401 398 423
f 398 421 424
f 398 424 425
f 398 425 423
f 402 401 426
f 401 423 426
f 403 402 427
f 402 426 427
f 404 403 428
f 403 427 428
f 405 404 429
f 404 428 429
f 406 405 430
f 405 429 430
f 407 406 431
f 406 430 431
f 408 407 431
f 409 408 432
f 408 431 432
f 410 409 433
f 409 432 433
f 411 410 434
f 410 433 434
f 412 411 435
f 411 434 435
f 413 412 436
f 412 435 436
f 414 413 437
f 413 436 437
f 415 414 438
f 414 437 438
f 416 415 439
f 415 438 439
f 418 416 440
f 416 439 441
f 416 441 442
f 416 442 440
f 419 418 417
f 418 440 417
f 424 421 422
f 425 424 422
f 423 425 443
f 443 425 444
f 425 422 444
f 426 423 445
f 423 443 445
f 427 426 446
f 426 445 446
f 428 427 447
f 427 446 447
f 429 428 448
f 428 447 448
f 430 429 449
f 429 448 449
f 431 430 450
f 430 449 450
f 432 431 451
f 431 450 451
f 433 432 452
f 432 451 453
f 432 453 452
f 434 433 454
f 433 452 454
f 435 434 455
f 434 454 455
f 436 435 456
f 435 455 456
f 437 436 457
f 436 456 457
f 438 437 458
f 437 457 458
f 439 438 459
f 438 458 459
f 441 439 460
f 439 459 460
f 442 441 460
f 442 460 440
f 445 443 461
f 443 444 461
f 446 445 462
f 462 445 461
f 447 446 463
f 446 462 464
f 446 464 463
f 448 447 465
f 447 463 465
f 449 448 466
f 448 465 466
f 450 449 467
f 449 466 467
f 451 450 468
f 450 467 468
f 453 451 468
f 452 453 469
f 453 468 469
f 454 452 470
f 452 469 470
f 455 454 471
f 454 470 471
f 456 455 472
f 455 471 472
f 457 456 473
f 456 472 473
f 458 457 474
f 457 473 474
f 459 458 475
f 458 474 476
f 458 476 477
f 458 477 475
f 459 475 460
f 464 462 478
f 462 461 478
f 463 464 479
f 464 478 479
f 465 463 480
f 480 463 479
f 466 465 481
f 465 480 482
f 465 482 481
f 467 466 483
f 466 481 483
f 468 467 484
f 467 483 484
f 469 468 485
f 468 484 485
f 470 469 486
f 469 485 486
f 471 470 487
f 470 486 487
f 472 471 488
f 471 487 488
f 473 472 489
f 472 488 489
f 474 473 490
f 473 489 491
f 473 491 492
f 473 492 490
f 476 474 477
f 474 490 477
f 482 480 493
f 480 479 493
f 481 482 494
f 482 493 494
f 483 481 495
f 481 494 495
f 484 483 496
f 483 495 496
f 485 484 496
f 486 485 497
f 485 496 497
f 487 486 498
f 486 497 498
f 488 487 499
f 487 498 499
f 489 488 500
f 488 499 500
f 491 489 492
f 489 500 492
f 503 502 501
f 502 503 504
f 503 501 505
f 503 505 506
f 503 506 507
f 504 503 507
f 502 508 501
f 508 502 509
f 502 504 509
f 508 511 510
f 511 508 512
f 508 510 501
f 512 508 509
f 511 514 513
f 514 511 515
f 511 513 510
f 515 511 512
f 514 516 513
f 516 514 515
f 513 516 517
f 516 519 518
f 519 516 520
f 516 518 517
f 520 516 515
f 510 513 521
f 513 517 521
f 501 510 522
f 510 521 522
f 505 501 522
f 505 523 506
f 523 505 524
f 505 522 524
f 523 526 525
f 526 523 527
f 523 525 506
f 523 524 527
f 526 529 528
f 529 526 530
f 526 528 525
f 526 527 530
f 529 532 531
f 532 529 533
f 529 531 528
f 529 530 533
f 531 532 534
f 536 532 535
f 532 536 534
f 532 533 535
f 528 531 537
f 537 531 534
f 525 528 538
f 538 528 537
f 506 525 507
f 507 525 538
f 536 535 539
f 536 539 540
f 536 540 541
f 534 536 541
f 519 543 542
f 543 519 544
f 519 542 518
f 544 519 520
f 543 545 542
f 545 543 546
f 546 543 544
f 542 545 547
f 545 549 548
f 549 545 546
f 545 548 547
f 518 542 550
f 542 547 550
f 517 518 551
f 518 550 551
f 521 517 552
f 517 551 552
f 522 521 553
f 521 552 553
f 524 522 553
f 527 524 554
f 524 553 554
f 530 527 555
f 527 554 555
f 533 530 556
f 530 555 556
f 535 533 557
f 533 556 557
f 539 535 558
f 535 557 558
f 539 559 540
f 559 539 560
f 539 558 560
f 540 559 561
f 562 559 560
f 559 562 563
f 561 559 563
f 541 540 561
f 562 560 564
f 562 564 565
f 562 565 563
f 549 566 548
f 566 549 567
f 567 549 546
f 566 568 548
f 568 566 567
f 548 568 569
f 568 571 570
f 571 568 572
f 568 570 569
f 572 568 567
f 547 548 573
f 548 569 573
f 550 547 574
f 547 573 574
f 551 550 575
f 550 574 575
f 552 551 576
f 551 575 576
f 553 552 577
f 552 576 577
f 554 553 578
f 553 577 578
f 555 554 579
f 554 578 579
f 556 555 580
f 555 579 581
f 555 581 580
f 557 556 582
f 556 580 582
f 558 557 583
f 557 582 583
f 560 558 584
f 558 583 584
f 564 560 585
f 560 584 585
f 564 586 565
f 586 564 587
f 564 585 587
f 565 586 588
f 589 586 587
f 586 589 588
f 563 565 588
f 589 587 590
f 589 590 591
f 588 589 591
f 570 571 592
f 592 571 572
f 569 570 593
f 570 595 594
f 595 570 592
f 570 594 593
f 573 569 596
f 569 593 596
f 574 573 597
f 573 596 597
f 575 574 598
f 574 597 598
f 576 575 599
f 575 598 599
f 577 576 600
f 576 599 600
f 578 577 601
f 577 600 601
f 579 578 602
f 578 601 602
f 581 579 603
f 579 602 603
f 580 581 604
f 581 603 605
f 581 605 604
f 582 580 606
f 580 604 606
f 583 582 607
f 582 606 607
f 584 583 608
f 583 607 608
f 585 584 609
f 584 608 609
f 587 585 610
f 585 609 610
f 590 587 611
f 587 610 611
f 612 590 611
f 590 612 613
f 591 590 613
f 612 611 614
f 612 614 613
f 594 595 615
f 615 595 592
f 593 594 616
f 594 618 617
f 618 594 615
f 594 617 616
f 596 593 619
f 593 616 619
f 597 596 620
f 596 619 620
f 598 597 621
f 597 620 621
f 599 598 622
f 598 621 622
f 600 599 623
f 599 622 623
f 601 600 624
f 600 623 624
f 602 601 625
f 601 624 625
f 603 602 626
f 602 625 626
f 605 603 627
f 603 626 627
f 604 605 628
f 605 627 628
f 606 604 629
f 604 628 629
f 607 606 630
f 606 629 630
f 608 607 631
f 607 630 631
f 609 608 632
f 608 631 632
f 610 609 633
f 609 632 633
f 611 610 634
f 610 633 634
f 614 611 635
f 611 634 635
f 636 614 635
f 614 636 637
f 613 614 637
f 636 635 638
f 636 638 639
f 637 636 639
f 617 618 640
f 640 618 615
f 616 617 641
f 617 643 642
f 643 617 644
f 617 642 641
f 644 617 640
f 619 616 645
f 616 641 645
f 620 619 646
f 619 645 646
f 621 620 647
f 620 646 647
f 622 621 648
f 621 647 648
f 623 622 649
f 622 648 649
f 624 623 650
f 623 649 650
f 625 624 651
f 624 650 651
f 626 625 652
f 625 651 652
f 627 626 653
f 626 652 653
f 628 627 654
f 627 653 654
f 629 628 655
f 628 654 655
f 630 629 656
f 629 655 656
f 631 630 657
f 630 656 657
f 632 631 658
f 631 657 658
f 633 632 659
f 632 658 659
f 634 633 660
f 633 659 660
f 635 634 661
f 634 660 661
f 638 635 662
f 635 661 662
f 663 638 662
f 638 663 639
f 663 662 664
f 663 664 665
f 639 663 665
f 642 643 644
f 641 642 666
f 642 668 667
f 668 642 669
f 642 667 666
f 669 642 644
f 645 641 670
f 641 666 670
f 646 645 671
f 645 670 671
f 647 646 672
f 646 671 672
f 648 647 673
f 647 672 673
f 649 648 674
f 648 673 674
f 650 649 675
f 649 674 675
f 651 650 676
f 650 675 676
f 652 651 677
f 651 676 677
f 653 652 678
f 652 677 678
f 654 653 679
f 653 678 679
f 655 654 680
f 654 679 680
f 656 655 681
f 655 680 681
f 657 656 682
f 656 681 682
f 658 657 683
f 657 682 683
f 659 658 684
f 658 683 684
f 660 659 685
f 659 684 685
f 661 660 686
f 660 685 686
f 662 661 687
f 661 686 687
f 664 662 688
f 662 687 688
f 689 664 688
f 664 689 665
f 689 688 690
f 689 690 691
f 665 689 691
f 668 692 667
f 692 668 669
f 667 692 669
f 666 667 693
f 667 695 694
f 695 667 696
f 667 694 693
f 696 667 669
f 670 666 697
f 666 693 697
f 671 670 698
f 670 697 698
f 672 671 699
f 671 698 699
f 673 672 700
f 672 699 700
f 674 673 701
f 673 700 701
f 675 674 702
f 674 701 702
f 676 675 703
f 675 702 703
f 677 676 704
f 676 703 704
f 678 677 705
f 677 704 705
f 679 678 705
f 680 679 706
f 679 705 706
f 681 680 707
f 680 706 707
f 682 681 708
f 681 707 708
f 683 682 709
f 682 708 709
f 684 683 710
f 683 709 710
f 685 684 711
f 684 710 711
f 686 685 712
f 685 711 712
f 687 686 713
f 686 712 713
f 688 687 714
f 687 713 714
f 688 715 690
f 715 688 716
f 688 714 716
f 690 715 691
f 717 715 716
f 715 717 691
f 717 716 718
f 717 718 719
f 691 717 719
f 694 695 696
f 693 694 720
f 694 722 721
f 722 694 723
f 694 721 720
f 723 694 696
f 697 693 724
f 693 720 724
f 698 697 725
f 697 724 725
f 699 698 726
f 698 725 726
f 700 699 727
f 699 726 727
f 701 700 728
f 700 727 728
f 702 701 729
f 701 728 729
f 703 702 730
f 702 729 730
f 704 703 731
f 703 730 731
f 705 704 732
f 704 731 732
f 706 705 732
f 707 706 733
f 706 732 733
f 708 707 734
f 707 733 734
f 709 708 735
f 708 734 735
f 710 709 736
f 709 735 736
f 711 710 737
f 710 736 737
f 712 711 738
f 711 737 738
f 713 712 739
f 712 738 739
f 714 713 740
f 713 739 740
f 716 714 741
f 714 740 741
f 718 716 742
f 716 741 742
f 744 718 743
f 718 744 719
f 718 742 743
f 744 743 745
f 719 744 745
f 721 722 723
f 720 721 746
f 721 748 747
f 748 721 749
f 721 747 746
f 749 721 723
f 724 720 750
f 720 746 750
f 725 724 751
f 724 750 751
f 726 725 752
f 725 751 752
f 727 726 753
f 726 752 753
f 728 727 754
f 727 753 754
f 729 728 755
f 728 754 755
f 730 729 756
f 729 755 756
f 731 730 757
f 730 756 757
f 732 731 758
f 731 757 758
f 733 732 758
f 734 733 759
f 733 758 759
f 735 734 760
f 734 759 760
f 736 735 761
f 735 760 761
f 737 736 762
f 736 761 762
f 738 737 763
f 737 762 763
f 739 738 764
f 738 763 764
f 740 739 765
f 739 764 765
f 741 740 766
f 740 765 766
f 742 741 767
f 741 766 767
f 743 742 768
f 742 767 768
f 770 743 769
f 743 770 745
f 743 768 769
f 770 769 771
f 745 770 771
f 747 748 749
f 746 747 772
f 747 773 772
f 773 747 774
f 774 747 749
f 750 746 775
f 746 772 775
f 751 750 776
f 750 775 776
f 752 751 777
f 751 776 777
f 753 752 778
f 752 777 778
f 754 753 779
f 753 778 779
f 755 754 780
f 754 779 780
f 756 755 781
f 755 780 781
f 757 756 782
f 756 781 782
f 758 757 783
f 757 782 783
f 759 758 784
f 758 783 784
f 760 759 785
f 759 784 786
f 759 786 785
f 761 760 787
f 760 785 787
f 762 761 788
f 761 787 788
f 763 762 789
f 762 788 789
f 764 763 790
f 763 789 790
f 765 764 791
f 764 790 791
f 766 765 792
f 765 791 792
f 767 766 793
f 766 792 793
f 768 767 794
f 767 793 794
f 769 768 795
f 768 794 795
f 796 769 795
f 769 796 771
f 796 795 797
f 771 796 797
f 772 773 774
f 775 772 798
f 772 799 798
f 799 772 800
f 800 772 774
f 776 775 801
f 775 798 801
f 777 776 802
f 776 801 802
f 778 777 803
f 777 802 803
f 779 778 804
f 778 803 804
f 780 779 805
f 779 804 805
f 781 780 806
f 780 805 806
f 782 781 807
f 781 806 807
f 783 782 808
f 782 807 808
f 784 783 809
f 783 808 809
f 786 784 810
f 784 809 810
f 785 786 811
f 786 810 812
f 786 812 811
f 787 785 813
f 785 811 813
f 788 787 814
f 787 813 814
f 789 788 815
f 788 814 815
f 790 789 816
f 789 815 816
f 791 790 817
f 790 816 817
f 792 791 818
f 791 817 818
f 793 792 819
f 792 818 819
f 794 793 820
f 793 819 820
f 795 794 821
f 794 820 821
f 822 795 821
f 795 822 797
f 822 821 823
f 797 822 823
f 798 799 800
f 801 798 824
f 824 798 825
f 825 798 800
f 802 801 826
f 801 824 827
f 801 827 826
f 803 802 828
f 802 826 828
f 804 803 829
f 803 828 829
f 805 804 830
f 804 829 830
f 806 805 831
f 805 830 831
f 807 806 832
f 806 831 832
f 808 807 833
f 807 832 833
f 809 808 834
f 808 833 834
f 810 809 835
f 809 834 835
f 812 810 836
f 810 835 836
f 811 812 837
f 812 836 837
f 813 811 838
f 811 837 838
f 814 813 839
f 813 838 839
f 815 814 840
f 814 839 840
f 816 815 841
f 815 840 841
f 817 816 842
f 816 841 842
f 818 817 843
f 817 842 843
f 819 818 844
f 818 843 844
f 820 819 845
f 819 844 845
f 821 820 846
f 820 845 846
f 847 821 846
f 821 847 823
f 847 846 848
f 823 847 848
f 827 824 825
f 826 827 849
f 849 827 850
f 850 827 825
f 828 826 851
f 826 849 852
f 826 852 851
f 829 828 853
f 828 851 853
f 830 829 854
f 829 853 854
f 831 830 855
f 830 854 855
f 832 831 856
f 831 855 856
f 833 832 857
f 832 856 857
f 834 833 858
f 833 857 858
f 835 834 859
f 834 858 859
f 836 835 860
f 835 859 860
f 837 836 861
f 836 860 861
f 838 837 862
f 837 861 862
f 839 838 863
f 838 862 863
f 840 839 864
f 839 863 864
f 841 840 865
f 840 864 865
f 842 841 866
f 841 865 866
f 843 842 867
f 842 866 867
f 844 843 868
f 843 867 868
f 845 844 869
f 844 868 869
f 846 845 870
f 845 869 870
f 871 846 870
f 846 871 848
f 871 870 872
f 848 871 872
f 852 849 873
f 873 849 850
f 851 852 874
f 874 852 873
f 853 851 875
f 851 874 876
f 851 876 875
f 854 853 877
f 853 875 877
f 855 854 878
f 854 877 878
f 856 855 879
f 855 878 879
f 857 856 880
f 856 879 880
f 858 857 881
f 857 880 881
f 859 858 882
f 858 881 882
f 860 859 883
f 859 882 883
f 861 860 884
f 860 883 884
f 862 861 885
f 861 884 885
f 863 862 886
f 862 885 886
f 864 863 887
f 863 886 887
f 865 864 888
f 864 887 888
f 866 865 889
f 865 888 889
f 867 866 890
f 866 889 890
f 868 867 891
f 867 890 891
f 869 868 892
f 868 891 892
f 870 869 893
f 869 892 893
f 894 870 893
f 870 894 895
f 872 870 895
f 894 893 896
f 895 894 896
f 876 874 897
f 897 874 873
f 875 876 898
f 898 876 897
f 877 875 899
f 875 898 900
f 875 900 901
f 875 901 899
f 878 877 902
f 877 899 902
f 879 878 903
f 878 902 903
f 880 879 904
f 879 903 904
f 881 880 905
f 880 904 905
f 882 881 906
f 881 905 906
f 883 882 907
f 882 906 907
f 884 883 908
f 883 907 908
f 885 884 909
f 884 908 909
f 886 885 910
f 885 909 910
f 887 886 911
f 886 910 911
f 888 887 912
f 887 911 912
f 889 888 913
f 888 912 913
f 890 889 914
f 889 913 914
f 891 890 915
f 890 914 915
f 892 891 916
f 891 915 916
f 893 892 917
f 892 916 917
f 919 893 918
f 893 919 896
f 893 917 918
f 919 918 896
f 900 898 920
f 920 898 897
f 901 900 920
f 899 901 921
f 921 901 922
f 922 901 920
f 902 899 923
f 899 921 924
f 899 924 925
f 899 925 923
f 903 902 926
f 902 923 926
f 904 903 927
f 903 926 927
f 905 904 928
f 904 927 928
f 906 905 929
f 905 928 929
f 907 906 930
f 906 929 930
f 908 907 931
f 907 930 931
f 909 908 931
f 910 909 932
f 909 931 932
f 911 910 933
f 910 932 933
f 912 911 934
f 911 933 934
f 913 912 935
f 912 934 935
f 914 913 936
f 913 935 936
f 915 914 937
f 914 936 937
f 916 915 938
f 915 937 938
f 917 916 939
f 916 938 939
f 918 917 940
f 942 917 941
f 917 942 940
f 917 939 941
f 896 918 940
f 942 941 943
f 940 942 943
f 924 921 922
f 925 924 922
f 923 925 944
f 944 925 945
f 945 925 922
f 926 923 946
f 923 944 946
f 927 926 947
f 926 946 947
f 928 927 948
f 927 947 948
f 929 928 949
f 928 948 949
f 930 929 950
f 929 949 950
f 931 930 951
f 930 950 951
f 932 931 952
f 931 951 952
f 933 932 953
f 932 952 954
f 932 954 953
f 934 933 955
f 933 953 955
f 935 934 956
f 934 955 956
f 936 935 957
f 935 956 957
f 937 936 958
f 936 957 958
f 938 937 959
f 937 958 959
f 939 938 960
f 960 938 959
f 941 939 943
f 939 960 943
f 960 959 961
f 943 960 961
f 946 944 962
f 962 944 945
f 947 946 963
f 963 946 962
f 948 947 964
f 947 963 965
f 947 965 964
f 949 948 966
f 948 964 966
f 950 949 967
f 949 966 967
f 951 950 968
f 950 967 968
f 952 951 969
f 951 968 969
f 954 952 969
f 953 954 970
f 954 969 970
f 955 953 971
f 953 970 971
f 956 955 972
f 955 971 972
f 957 956 973
f 956 972 973
f 958 957 974
f 957 973 974
f 959 958 975
f 958 974 975
f 976 959 975
f 959 976 977
f 961 959 977
f 976 975 977
f 965 963 978
f 978 963 962
f 964 965 979
f 979 965 978
f 966 964 980
f 980 964 979
f 967 966 981
f 966 980 982
f 966 982 981
f 968 967 983
f 967 981 983
f 969 968 984
f 968 983 984
f 970 969 985
f 969 984 985
f 971 970 986
f 970 985 986
f 972 971 987
f 971 986 987
f 973 972 988
f 972 987 988
f 974 973 989
f 973 988 989
f 975 974 990
f 991 974 989
f 974 991 992
f 990 974 992
f 977 975 990
f 991 989 992
f 982 980 993
f 993 980 979
f 981 982 994
f 994 982 993
f 983 981 995
f 995 981 994
f 984 983 996
f 996 983 995
f 985 984 996
f 986 985 997
f 997 985 996
f 987 986 998
f 998 986 997
f 988 987 999
f 999 987 998
f 989 988 1000
f 1000 988 999
f 992 989 1000
f 9 4 1001
f 1001 4 1002
f 4 7 1002
f 12 9 1003
f 9 1001 1003
f 15 12 1004
f 12 1003 1004
f 20 15 1005
f 15 1004 1005
f 41 20 1006
f 20 1005 1006
f 43 41 1007
f 41 1006 1007
f 65 43 1008
f 43 1007 1008
f 70 65 1009
f 65 1008 1009
f 90 70 1010
f 70 1009 1010
f 114 90 1011
f 90 1010 1011
f 138 114 1012
f 114 1011 1012
f 142 138 1013
f 138 1012 1013
f 167 142 1014
f 142 1013 1014
f 194 167 1015
f 167 1014 1015
f 221 194 1016
f 194 1015 1016
f 248 221 1017
f 221 1016 1017
f 273 248 1018
f 248 1017 1018
f 299 273 1019
f 273 1018 1019
f 324 299 1020
f 299 1019 1020
f 349 324 1021
f 324 1020 1021
f 372 349 1022
f 349 1021 1022
f 396 372 1023
f 372 1022 1023
f 420 396 1024
f 396 1023 1024
f 422 420 1025
f 420 1024 1025
f 444 422 1026
f 422 1025 1026
f 461 444 1027
f 444 1026 1027
f 478 461 1028
f 461 1027 1028
f 479 478 1029
f 478 1028 1029
f 493 479 1030
f 479 1029 1030
f 494 493 1031
f 493 1030 1031
f 495 494 1032
f 494 1031 1032
f 496 495 1033
f 495 1032 1033
f 497 496 1034
f 496 1033 1034
f 497 1034 1035
f 497 1035 498
f 1003 1001 1036
f 1036 1001 1037
f 1001 1002 1037
f 1004 1003 1038
f 1003 1036 1038
f 1005 1004 1039
f 1004 1038 1039
f 1006 1005 1040
f 1005 1039 1040
f 1007 1006 1041
f 1006 1040 1041
f 1008 1007 1042
f 1007 1041 1042
f 1009 1008 1043
f 1008 1042 1043
f 1010 1009 1044
f 1009 1043 1044
f 1011 1010 1045
f 1010 1044 1045
f 1012 1011 1046
f 1011 1045 1046
f 1013 1012 1047
f 1012 1046 1047
f 1014 1013 1048
f 1013 1047 1048
f 1015 1014 1049
f 1014 1048 1049
f 1016 1015 1050
f 1015 1049 1050
f 1017 1016 1051
f 1016 1050 1051
f 1018 1017 1052
f 1017 1051 1052
f 1019 1018 1053
f 1018 1052 1053
f 1020 1019 1054
f 1019 1053 1054
f 1021 1020 1055
f 1020 1054 1055
f 1022 1021 1056
f 1021 1055 1056
f 1023 1022 1057
f 1022 1056 1057
f 1024 1023 1058
f 1023 1057 1058
f 1025 1024 1059
f 1024 1058 1059
f 1026 1025 1060
f 1025 1059 1060
f 1027 1026 1061
f 1026 1060 1061
f 1028 1027 1062
f 1027 1061 1062
f 1029 1028 1063
f 1028 1062 1063
f 1030 1029 1064
f 1029 1063 1064
f 1031 1030 1065
f 1030 1064 1065
f 1032 1031 1066
f 1031 1065 1066
f 1033 1032 1067
f 1032 1066 1067
f 1034 1033 1068
f 1033 1067 1068
f 1035 1034 1069
f 1034 1068 1069
f 1035 1069 1070
f 1035 1070 1071
f 498 1035 1071
f 1038 1036 1072
f 1072 1036 1073
f 1036 1037 1073
f 1039 1038 1074
f 1038 1072 1074
f 1040 1039 1075
f 1039 1074 1075
f 1041 1040 1076
f 1040 1075 1076
f 1042 1041 1077
f 1041 1076 1077
f 1043 1042 1078
f 1042 1077 1078
f 1044 1043 1079
f 1043 1078 1079
f 1045 1044 1080
f 1044 1079 1080
f 1046 1045 1081
f 1045 1080 1081
f 1047 1046 1082
f 1046 1081 1082
f 1048 1047 1083
f 1047 1082 1083
f 1049 1048 1084
f 1048 1083 1084
f 1050 1049 1085
f 1049 1084 1085
f 1051 1050 1086
f 1050 1085 1086
f 1052 1051 1087
f 1051 1086 1087
f 1053 1052 1088
f 1052 1087 1088
f 1054 1053 1089
f 1053 1088 1089
f 1055 1054 1090
f 1054 1089 1090
f 1056 1055 1091
f 1055 1090 1091
f 1057 1056 1092
f 1056 1091 1092
f 1058 1057 1093
f 1057 1092 1093
f 1059 1058 1094
f 1058 1093 1094
f 1060 1059 1095
f 1059 1094 1095
f 1061 1060 1096
f 1060 1095 1096
f 1062 1061 1097
f 1061 1096 1097
f 1063 1062 1098
f 1062 1097 1098
f 1064 1063 1099
f 1063 1098 1099
f 1065 1064 1100
f 1064 1099 1100
f 1066 1065 1101
f 1065 1100 1101
f 1067 1066 1102
f 1066 1101 1102
f 1068 1067 1103
f 1067 1102 1103
f 1069 1068 1104
f 1068 1103 1104
f 1070 1069 1105
f 1069 1104 1105
f 1070 1105 1106
f 1070 1106 1107
f 1071 1070 1107
f 1074 1072 1108
f 1108 1072 1109
f 1072 1073 1109
f 1075 1074 1110
f 1074 1108 1110
f 1076 1075 1111
f 1075 1110 1111
f 1077 1076 1112
f 1076 1111 1112
f 1078 1077 1113
f 1077 1112 1113
f 1079 1078 1114
f 1078 1113 1114
f 1080 1079 1115
f 1079 1114 1115
f 1081 1080 1116
f 1080 1115 1116
f 1082 1081 1117
f 1081 1116 1117
f 1083 1082 1118
f 1082 1117 1118
f 1084 1083 1119
f 1083 1118 1119
f 1085 1084 1120
f 1084 1119 1120
f 1086 1085 1121
f 1085 1120 1121
f 1087 1086 1122
f 1086 1121 1122
f 1088 1087 1123
f 1087 1122 1123
f 1089 1088 1124
f 1088 1123 1124
f 1090 1089 1125
f 1089 1124 1125
f 1091 1090 1126
f 1090 1125 1126
f 1092 1091 1127
f 1091 1126 1127
f 1093 1092 1128
f 1092 1127 1128
f 1094 1093 1129
f 1093 1128 1129
f 1095 1094 1130
f 1094 1129 1130
f 1096 1095 1131
f 1095 1130 1131
f 1097 1096 1132
f 1096 1131 1132
f 1098 1097 1133
f 1097 1132 1133
f 1099 1098 1134
f 1098 1133 1134
f 1100 1099 1135
f 1099 1134 1135
f 1101 1100 1136
f 1100 1135 1136
f 1102 1101 1137
f 1101 1136 1137
f 1103 1102 1138
f 1102 1137 1138
f 1104 1103 1139
f 1103 1138 1139
f 1105 1104 1140
f 1104 1139 1140
f 1106 1105 1141
f 1105 1140 1141
f 1106 1141 1142
f 1106 1142 1143
f 1107 1106 1143
f 1110 1108 504
f 504 1108 509
f 1108 1109 509
f 1111 1110 507
f 1110 504 507
f 1112 1111 538
f 1111 507 538
f 1113 1112 537
f 1112 538 537
f 1114 1113 534
f 1113 537 534
f 1115 1114 541
f 1114 534 541
f 1116 1115 561
f 1115 541 561
f 1117 1116 563
f 1116 561 563
f 1118 1117 588
f 1117 563 588
f 1119 1118 591
f 1118 588 591
f 1120 1119 613
f 1119 591 613
f 1121 1120 637
f 1120 613 637
f 1122 1121 639
f 1121 637 639
f 1123 1122 665
f 1122 639 665
f 1124 1123 691
f 1123 665 691
f 1125 1124 719
f 1124 691 719
f 1126 1125 745
f 1125 719 745
f 1127 1126 771
f 1126 745 771
f 1128 1127 797
f 1127 771 797
f 1129 1128 823
f 1128 797 823
f 1130 1129 848
f 1129 823 848
f 1131 1130 872
f 1130 848 872
f 1132 1131 895
f 1131 872 895
f 1133 1132 896
f 1132 895 896
f 1134 1133 940
f 1133 896 940
f 1135 1134 943
f 1134 940 943
f 1136 1135 961
f 1135 943 961
f 1137 1136 977
f 1136 961 977
f 1138 1137 990
f 1137 977 990
f 1139 1138 992
f 1138 990 992
f 1140 1139 1000
f 1139 992 1000
f 1141 1140 999
f 1140 1000 999
f 1142 1141 998
f 1141 999 998
f 1142 998 997
f 1142 997 1144
f 1143 1142 1144
f 1144 997 996
f 499 498 1071
f 500 499 1145
f 499 1071 1145
f 492 500 1146
f 500 1145 1146
f 490 492 1147
f 492 1146 1147
f 477 490 1148
f 490 1147 1148
f 475 477 1149
f 477 1148 1149
f 460 475 1150
f 475 1149 1150
f 440 460 1151
f 460 1150 1151
f 417 440 1152
f 440 1151 1152
f 395 417 1153
f 417 1152 1153
f 393 395 1154
f 395 1153 1154
f 370 393 1155
f 393 1154 1155
f 346 370 1156
f 370 1155 1156
f 321 346 1157
f 346 1156 1157
f 295 321 1158
f 321 1157 1158
f 268 295 1159
f 295 1158 1159
f 242 268 1160
f 268 1159 1160
f 216 242 1161
f 242 1160 1161
f 188 216 1162
f 216 1161 1162
f 162 188 1163
f 188 1162 1163
f 137 162 1164
f 162 1163 1164
f 113 137 1165
f 137 1164 1165
f 111 113 1166
f 113 1165 1166
f 88 111 1167
f 111 1166 1167
f 62 88 1168
f 88 1167 1168
f 60 62 1169
f 62 1168 1169
f 63 60 1170
f 60 1169 1170
f 34 63 1171
f 63 1170 1171
f 37 34 1172
f 34 1171 1172
f 38 37 1173
f 37 1172 1173
f 7 38 1174
f 38 1173 1174
f 7 1174 1002
f 1145 1071 1107
f 1146 1145 1175
f 1145 1107 1175
f 1147 1146 1176
f 1146 1175 1176
f 1148 1147 1177
f 1147 1176 1177
f 1149 1148 1178
f 1148 1177 1178
f 1150 1149 1179
f 1149 1178 1179
f 1151 1150 1180
f 1150 1179 1180
f 1152 1151 1181
f 1151 1180 1181
f 1153 1152 1182
f 1152 1181 1182
f 1154 1153 1183
f 1153 1182 1183
f 1155 1154 1184
f 1154 1183 1184
f 1156 1155 1185
f 1155 1184 1185
f 1157 1156 1186
f 1156 1185 1186
f 1158 1157 1187
f 1157 1186 1187
f 1159 1158 1188
f 1158 1187 1188
f 1160 1159 1189
f 1159 1188 1189
f 1161 1160 1190
f 1160 1189 1190
f 1162 1161 1191
f 1161 1190 1191
f 1163 1162 1192
f 1162 1191 1192
f 1164 1163 1193
f 1163 1192 1193
f 1165 1164 1194
f 1164 1193 1194
f 1166 1165 1195
f 1165 1194 1195
f 1167 1166 1196
f 1166 1195 1196
f 1168 1167 1197
f 1167 1196 1197
f 1169 1168 1198
f 1168 1197 1198
f 1170 1169 1199
f 1169 1198 1199
f 1171 1170 1200
f 1170 1199 1200
f 1172 1171 1201
f 1171 1200 1201
f 1173 1172 1202
f 1172 1201 1202
f 1174 1173 1203
f 1173 1202 1203
f 1002 1174 1204
f 1174 1203 1204
f 1002 1204 1037
f 1175 1107 1143
f 1176 1175 1205
f 1175 1143 1205
f 1177 1176 1206
f 1176 1205 1206
f 1178 1177 1207
f 1177 1206 1207
f 1179 1178 1208
f 1178 1207 1208
f 1180 1179 1209
f 1179 1208 1209
f 1181 1180 1210
f 1180 1209 1210
f 1182 1181 1211
f 1181 1210 1211
f 1183 1182 1212
f 1182 1211 1212
f 1184 1183 1213
f 1183 1212 1213
f 1185 1184 1214
f 1184 1213 1214
f 1186 1185 1215
f 1185 1214 1215
f 1187 1186 1216
f 1186 1215 1216
f 1188 1187 1217
f 1187 1216 1217
f 1189 1188 1218
f 1188 1217 1218
f 1190 1189 1219
f 1189 1218 1219
f 1191 1190 1220
f 1190 1219 1220
f 1192 1191 1221
f 1191 1220 1221
f 1193 1192 1222
f 1192 1221 1222
f 1194 1193 1223
f 1193 1222 1223
f 1195 1194 1224
f 1194 1223 1224
f 1196 1195 1225
f 1195 1224 1225
f 1197 1196 1226
f 1196 1225 1226
f 1198 1197 1227
f 1197 1226 1227
f 1199 1198 1228
f 1198 1227 1228
f 1200 1199 1229
f 1199 1228 1229
f 1201 1200 1230
f 1200 1229 1230
f 1202 1201 1231
f 1201 1230 1231
f 1203 1202 1232
f 1202 1231 1232
f 1204 1203 1233
f 1203 1232 1233
f 1037 1204 1234
f 1204 1233 1234
f 1037 1234 1073
f 1205 1143 1144
f 1206 1205 1235
f 1205 1144 1235
f 1207 1206 1236
f 1206 1235 1236
f 1208 1207 1237
f 1207 1236 1237
f 1209 1208 1238
f 1208 1237 1238
f 1210 1209 1239
f 1209 1238 1239
f 1211 1210 1240
f 1210 1239 1240
f 1212 1211 1241
f 1211 1240 1241
f 1213 1212 1242
f 1212 1241 1242
f 1214 1213 1243
f 1213 1242 1243
f 1215 1214 1244
f 1214 1243 1244
f 1216 1215 1245
f 1215 1244 1245
f 1217 1216 1246
f 1216 1245 1246
f 1218 1217 1247
f 1217 1246 1247
f 1219 1218 1248
f 1218 1247 1248
f 1220 1219 1249
f 1219 1248 1249
f 1221 1220 1250
f 1220 1249 1250
f 1222 1221 1251
f 1221 1250 1251
f 1223 1222 1252
f 1222 1251 1252
f 1224 1223 1253
f 1223 1252 1253
f 1225 1224 1254
f 1224 1253 1254
f 1226 1225 1255
f 1225 1254 1255
f 1227 1226 1256
f 1226 1255 1256
f 1228 1227 1257
f 1227 1256 1257
f 1229 1228 1258
f 1228 1257 1258
f 1230 1229 1259
f 1229 1258 1259
f 1231 1230 1260
f 1230 1259 1260
f 1232 1231 1261
f 1231 1260 1261
f 1233 1232 1262
f 1232 1261 1262
f 1234 1233 1263
f 1233 1262 1263
f 1073 1234 1264
f 1234 1263 1264
f 1073 1264 1109
f 1235 1144 996
f 1236 1235 995
f 1235 996 995
f 1237 1236 994
f 1236 995 994
f 1238 1237 993
f 1237 994 993
f 1239 1238 979
f 1238 993 979
f 1240 1239 978
f 1239 979 978
f 1241 1240 962
f 1240 978 962
f 1242 1241 945
f 1241 962 945
f 1243 1242 922
f 1242 945 922
f 1244 1243 920
f 1243 922 920
f 1245 1244 897
f 1244 920 897
f 1246 1245 873
f 1245 897 873
f 1247 1246 850
f 1246 873 850
f 1248 1247 825
f 1247 850 825
f 1249 1248 800
f 1248 825 800
f 1250 1249 774
f 1249 800 774
f 1251 1250 749
f 1250 774 749
f 1252 1251 723
f 1251 749 723
f 1253 1252 696
f 1252 723 696
f 1254 1253 669
f 1253 696 669
f 1255 1254 644
f 1254 669 644
f 1256 1255 640
f 1255 644 640
f 1257 1256 615
f 1256 640 615
f 1258 1257 592
f 1257 615 592
f 1259 1258 572
f 1258 592 572
f 1260 1259 567
f 1259 572 567
f 1261 1260 546
f 1260 567 546
f 1262 1261 544
f 1261 546 544
f 1263 1262 520
f 1262 544 520
f 1264 1263 515
f 1263 520 515
f 1109 1264 512
f 1264 515 512
f 1109 512 509

