# https://github.com/mikedh/trimesh
v 0.00513300 -0.01130000 0.00273500
v 0.00513300 -0.01350000 0.00273500
v 0.00308500 -0.01350000 0.00425500
v 0.00308500 -0.01130000 0.00425500
v 0.00079600 -0.01350000 0.00537800
v 0.00079600 -0.01130000 0.00537800
v -0.00166000 -0.01350000 0.00606800
v -0.00166000 -0.01130000 0.00606800
v -0.00420000 -0.01350000 0.00630000
v -0.00420000 -0.01130000 0.00630000
v 0.00680000 -0.01350000 -0.00099200
v 0.00680000 -0.01130000 -0.00099200
v 0.00680000 -0.01350000 -0.01040000
v 0.00680000 -0.01130000 -0.01040000
v -0.00980000 -0.01130000 -0.01140000
v -0.00980000 -0.00950000 -0.01140000
v 0.00780000 -0.01130000 -0.01140000
v 0.00980000 -0.00950000 -0.01140000
v 0.00780000 -0.01350000 -0.01140000
v 0.00980000 -0.01350000 -0.01140000
v 0.00980000 -0.00950000 -0.01570000
v 0.00980000 -0.01350000 -0.01570000
v -0.00980000 -0.00950000 -0.01570000
v -0.00980000 -0.01350000 -0.01570000
v 0.00724400 -0.01130000 -0.01123100
v 0.00724400 -0.01350000 -0.01123100
v 0.00687600 -0.01130000 -0.01078300
v 0.00687600 -0.01350000 -0.01078300
v -0.00680000 -0.01350000 0.00630000
v -0.00980000 -0.01350000 0.00330000
v -0.00974200 -0.01350000 0.00388500
v -0.00957200 -0.01350000 0.00444800
v -0.00738500 -0.01350000 0.00624200
v -0.00794800 -0.01350000 0.00607200
v -0.00929400 -0.01350000 0.00496700
v -0.00892100 -0.01350000 0.00542100
v -0.00846700 -0.01350000 0.00579400
v 0.00583800 -0.01350000 0.00195700
v 0.00636400 -0.01350000 0.00104900
v 0.00669000 -0.01350000 0.00005200
v -0.00980000 -0.01130000 0.00330000
v 0.00669000 -0.01130000 0.00005200
v 0.00636400 -0.01130000 0.00104900
v 0.00583800 -0.01130000 0.00195700
v -0.00680000 -0.01130000 0.00630000
v -0.00974200 -0.01130000 0.00388500
v -0.00957200 -0.01130000 0.00444800
v -0.00738500 -0.01130000 0.00624200
v -0.00794800 -0.01130000 0.00607200
v -0.00846700 -0.01130000 0.00579400
v -0.00892100 -0.01130000 0.00542100
v -0.00929400 -0.01130000 0.00496700
v -0.00980000 0.01110000 -0.01140000
v 0.00980000 0.01110000 -0.01140000
v -0.00980000 0.01110000 -0.01570000
v 0.00980000 0.01110000 -0.01570000
v 0.00741700 0.01350000 -0.01132400
v 0.00696900 0.01350000 -0.01095600
v -0.00980000 0.01350000 -0.01570000
v 0.00780000 0.01350000 -0.01140000
v 0.00980000 0.01350000 -0.01570000
v 0.00980000 0.01350000 -0.01140000
v 0.00680000 0.01350000 -0.01040000
v 0.00680000 0.01350000 -0.00099200
v -0.00420000 0.01350000 0.00630000
v 0.00513300 0.01350000 0.00273500
v 0.00308500 0.01350000 0.00425500
v -0.00738500 0.01350000 0.00624200
v -0.00794800 0.01350000 0.00607200
v -0.00980000 0.01350000 0.00330000
v 0.00079600 0.01350000 0.00537800
v -0.00166000 0.01350000 0.00606800
v -0.00680000 0.01350000 0.00630000
v 0.00583800 0.01350000 0.00195700
v 0.00669000 0.01350000 0.00005200
v 0.00636400 0.01350000 0.00104900
v -0.00974200 0.01350000 0.00388500
v -0.00957200 0.01350000 0.00444800
v -0.00929400 0.01350000 0.00496700
v -0.00846700 0.01350000 0.00579400
v -0.00892100 0.01350000 0.00542100
v -0.00980000 0.01150000 -0.01140000
v -0.00980000 0.01150000 0.00330000
v 0.00680000 0.01150000 -0.00099200
v 0.00680000 0.01150000 -0.01040000
v 0.00780000 0.01150000 -0.01140000
v 0.00669000 0.01150000 0.00005200
v 0.00636400 0.01150000 0.00104900
v 0.00583800 0.01150000 0.00195700
v 0.00513300 0.01150000 0.00273500
v 0.00741700 0.01150000 -0.01132400
v 0.00696900 0.01150000 -0.01095600
v 0.00079600 0.01150000 0.00537800
v 0.00308500 0.01150000 0.00425500
v -0.00738500 0.01150000 0.00624200
v -0.00680000 0.01150000 0.00630000
v -0.00420000 0.01150000 0.00630000
v -0.00166000 0.01150000 0.00606800
v -0.00974200 0.01150000 0.00388500
v -0.00957200 0.01150000 0.00444800
v -0.00929400 0.01150000 0.00496700
v -0.00892100 0.01150000 0.00542100
v -0.00846700 0.01150000 0.00579400
v -0.00794800 0.01150000 0.00607200
f 3 2 1
f 4 3 1
f 4 5 3
f 6 5 4
f 6 7 5
f 8 7 6
f 8 9 7
f 10 9 8
f 13 12 11
f 13 14 12
f 17 16 15
f 17 18 16
f 19 18 17
f 19 20 18
f 18 22 21
f 18 20 22
f 22 23 21
f 22 24 23
f 25 19 17
f 25 26 19
f 27 26 25
f 27 28 26
f 14 28 27
f 14 13 28
f 24 28 13
f 24 26 28
f 22 26 24
f 22 19 26
f 20 19 22
f 30 9 29
f 30 24 9
f 11 24 13
f 11 9 24
f 7 9 11
f 29 31 30
f 29 32 31
f 33 32 29
f 33 34 32
f 11 5 7
f 11 3 5
f 2 3 11
f 32 36 35
f 32 37 36
f 34 37 32
f 11 38 2
f 11 39 38
f 40 39 11
f 15 30 41
f 15 24 30
f 16 24 15
f 16 23 24
f 40 11 12
f 42 40 12
f 42 39 40
f 43 39 42
f 43 38 39
f 44 38 43
f 44 2 38
f 1 2 44
f 23 18 21
f 23 16 18
f 45 15 41
f 15 25 17
f 15 27 25
f 14 27 15
f 15 6 4
f 46 45 41
f 15 8 6
f 15 10 8
f 45 10 15
f 47 45 46
f 47 48 45
f 49 48 47
f 15 12 14
f 15 42 12
f 43 42 15
f 15 44 43
f 15 1 44
f 4 1 15
f 47 50 49
f 47 51 50
f 52 51 47
f 9 45 29
f 9 10 45
f 33 29 45
f 48 33 45
f 48 34 33
f 49 34 48
f 49 37 34
f 50 37 49
f 50 36 37
f 51 36 50
f 51 35 36
f 52 35 51
f 52 32 35
f 47 32 52
f 47 31 32
f 46 31 47
f 46 30 31
f 41 30 46
f 18 53 16
f 18 54 53
f 56 23 55
f 56 21 23
f 55 16 53
f 55 23 16
f 56 53 54
f 56 55 53
f 21 54 18
f 21 56 54
f 23 18 16
f 23 21 18
f 59 58 57
f 60 59 57
f 60 61 59
f 62 61 60
f 65 64 63
f 64 67 66
f 70 69 68
f 64 71 67
f 64 72 71
f 65 72 64
f 59 63 58
f 59 65 63
f 70 65 59
f 70 73 65
f 68 73 70
f 74 64 66
f 74 75 64
f 76 75 74
f 78 70 77
f 78 79 70
f 70 80 69
f 70 81 80
f 79 81 70
f 82 55 53
f 82 59 55
f 83 59 82
f 83 70 59
f 59 56 55
f 59 61 56
f 61 54 56
f 61 62 54
f 85 64 84
f 85 63 64
f 86 82 53
f 86 62 60
f 86 54 62
f 53 54 86
f 87 84 64
f 75 87 64
f 75 88 87
f 76 88 75
f 76 89 88
f 74 89 76
f 74 90 89
f 66 90 74
f 91 82 86
f 91 92 82
f 82 84 87
f 82 85 84
f 92 85 82
f 82 94 93
f 82 90 94
f 83 96 95
f 83 97 96
f 82 97 83
f 82 98 97
f 93 98 82
f 83 100 99
f 83 101 100
f 102 101 83
f 83 103 102
f 83 104 103
f 95 104 83
f 82 89 90
f 82 88 89
f 87 88 82
f 92 63 85
f 92 58 63
f 91 58 92
f 91 57 58
f 86 57 91
f 86 60 57
f 96 65 73
f 96 97 65
f 56 53 55
f 56 54 53
f 77 70 83
f 99 77 83
f 99 78 77
f 100 78 99
f 100 79 78
f 101 79 100
f 101 81 79
f 102 81 101
f 102 80 81
f 103 80 102
f 103 69 80
f 104 69 103
f 104 68 69
f 95 68 104
f 95 73 68
f 96 73 95
f 72 65 97
f 98 72 97
f 98 71 72
f 93 71 98
f 93 67 71
f 94 67 93
f 94 66 67
f 90 66 94

